Campagnol-Fauve.ufo
<glyph name="exclam" format="1">
  <advance width="220"/>
  <unicode hex="0021"/>
  <outline>
    <contour>
      <point x="178.398" y="574.637" type="line" smooth="no"/>
      <point x="207.367" y="574.637" type="line" smooth="no"/>
      <point x="86.0078" y="120.427" type="line" smooth="no"/>
      <point x="58.8672" y="120.427" type="line" smooth="no"/>
    </contour>
    <contour>
      <point x="69.7695" y="94.5469" type="curve" smooth="yes"/>
      <point x="101.204" y="94.5469"/>
      <point x="126.912" y="68.8398"/>
      <point x="126.912" y="37.4053" type="curve" smooth="yes"/>
      <point x="126.912" y="5.97559"/>
      <point x="101.204" y="-20"/>
      <point x="69.7695" y="-20" type="curve" smooth="yes"/>
      <point x="38.3398" y="-20"/>
      <point x="12.6328" y="5.97559"/>
      <point x="12.6328" y="37.4053" type="curve" smooth="yes"/>
      <point x="12.6328" y="68.8398"/>
      <point x="38.3398" y="94.5469"/>
    </contour>
    <contour>
      <point x="69.7695" y="66.5098" type="curve" smooth="yes"/>
      <point x="53.5371" y="66.5098"/>
      <point x="40.6699" y="53.6387"/>
      <point x="40.6699" y="37.4053" type="curve" smooth="yes"/>
      <point x="40.6699" y="21.1719"/>
      <point x="53.5371" y="8.30469"/>
      <point x="69.7695" y="8.30469" type="curve" smooth="yes"/>
      <point x="86.0078" y="8.30469"/>
      <point x="98.875" y="21.1719"/>
      <point x="98.875" y="37.4053" type="curve" smooth="yes"/>
      <point x="98.875" y="53.6387"/>
      <point x="86.0078" y="66.5098"/>
    </contour>
  </outline>
</glyph>
<glyph name="quotedbl" format="1">
  <advance width="302"/>
  <unicode hex="0022"/>
  <outline>
    <contour>
      <point x="256.184" y="518.281" type="line" smooth="no"/>
      <point x="272.641" y="498.809"/>
      <point x="279.531" y="475.725"/>
      <point x="278.262" y="452.891" type="curve" smooth="yes"/>
      <point x="276.996" y="430.057"/>
      <point x="268.221" y="407.553"/>
      <point x="255.059" y="385.812" type="curve" smooth="yes"/>
      <point x="228.744" y="342.338"/>
      <point x="184.5" y="301.517"/>
      <point x="138.48" y="269.797" type="curve" smooth="no"/>
      <point x="122.59" y="292.859" type="line" smooth="no"/>
      <point x="166.184" y="322.909"/>
      <point x="207.971" y="362.236"/>
      <point x="231.012" y="400.297" type="curve" smooth="yes"/>
      <point x="242.535" y="419.33"/>
      <point x="249.219" y="437.865"/>
      <point x="250.137" y="454.438" type="curve" smooth="yes"/>
      <point x="251.062" y="471.01"/>
      <point x="246.801" y="485.639"/>
      <point x="234.668" y="500" type="curve" smooth="no"/>
    </contour>
    <contour>
      <point x="146.184" y="518.281" type="line" smooth="no"/>
      <point x="162.641" y="498.809"/>
      <point x="169.531" y="475.725"/>
      <point x="168.262" y="452.891" type="curve" smooth="yes"/>
      <point x="166.996" y="430.057"/>
      <point x="158.221" y="407.553"/>
      <point x="145.059" y="385.812" type="curve" smooth="yes"/>
      <point x="118.744" y="342.338"/>
      <point x="74.5" y="301.517"/>
      <point x="28.4805" y="269.797" type="curve" smooth="no"/>
      <point x="12.5898" y="292.859" type="line" smooth="no"/>
      <point x="56.1836" y="322.909"/>
      <point x="97.9707" y="362.236"/>
      <point x="121.012" y="400.297" type="curve" smooth="yes"/>
      <point x="132.535" y="419.33"/>
      <point x="139.219" y="437.865"/>
      <point x="140.137" y="454.438" type="curve" smooth="yes"/>
      <point x="141.062" y="471.01"/>
      <point x="136.801" y="485.639"/>
      <point x="124.668" y="500" type="curve" smooth="no"/>
    </contour>
  </outline>
</glyph>
<glyph name="numbersign" format="1">
  <advance width="350"/>
  <unicode hex="0023"/>
  <outline>
    <contour>
      <point x="230.729" y="601.139" type="line" smooth="no"/>
      <point x="259.697" y="601.139" type="line" smooth="no"/>
      <point x="250.275" y="567.107" type="line" smooth="no"/>
      <point x="265.134" y="572.298"/>
      <point x="278.933" y="575.467"/>
      <point x="291.62" y="575.686" type="curve" smooth="yes"/>
      <point x="297.298" y="575.787"/>
      <point x="302.693" y="575.348"/>
      <point x="307.933" y="574.139" type="curve" smooth="yes"/>
      <point x="318.409" y="571.727"/>
      <point x="328.636" y="564.945"/>
      <point x="333.525" y="554.592" type="curve" smooth="yes"/>
      <point x="338.417" y="544.243"/>
      <point x="338.224" y="532.303"/>
      <point x="334.933" y="519.154" type="curve" smooth="yes"/>
      <point x="328.354" y="492.862"/>
      <point x="309.105" y="459.047"/>
      <point x="273.058" y="412.139" type="curve" smooth="yes"/>
      <point x="249.13" y="381.004"/>
      <point x="217.229" y="344.046"/>
      <point x="176.729" y="300.904" type="curve" smooth="no"/>
      <point x="131.308" y="122.549" type="line" smooth="no"/>
      <point x="87.292" y="122.549" type="line" smooth="no"/>
      <point x="85.042" y="246.764" type="line" smooth="no"/>
      <point x="89.2607" y="250.842" type="line" smooth="yes"/>
      <point x="151.558" y="315.107" type="line" smooth="no"/>
      <point x="207.386" y="516.482" type="line" smooth="no"/>
      <point x="164.68" y="492.634"/>
      <point x="118.128" y="457.311"/>
      <point x="85.4639" y="419.592" type="curve" smooth="yes"/>
      <point x="64.0977" y="394.917"/>
      <point x="48.752" y="369.262"/>
      <point x="43.1357" y="346.326" type="curve" smooth="yes"/>
      <point x="37.5195" y="323.392"/>
      <point x="40.415" y="303.998"/>
      <point x="56.2139" y="285.295" type="curve" smooth="no"/>
      <point x="34.6982" y="267.154" type="line" smooth="no"/>
      <point x="13.2744" y="292.516"/>
      <point x="8.63379" y="323.585"/>
      <point x="15.8545" y="353.076" type="curve" smooth="yes"/>
      <point x="23.0791" y="382.568"/>
      <point x="40.9912" y="411.182"/>
      <point x="64.2295" y="438.014" type="curve" smooth="yes"/>
      <point x="106.025" y="486.279"/>
      <point x="165.383" y="528.77"/>
      <point x="217.511" y="553.467" type="curve" smooth="no"/>
    </contour>
    <contour>
      <point x="292.604" y="547.279" type="curve" smooth="yes"/>
      <point x="281.394" y="546.73"/>
      <point x="264.225" y="542.837"/>
      <point x="245.214" y="535.045" type="curve" smooth="yes"/>
      <point x="243.812" y="534.475"/>
      <point x="242.419" y="533.828"/>
      <point x="240.995" y="533.217" type="curve" smooth="yes"/>
      <point x="193.183" y="360.529" type="line" smooth="no"/>
      <point x="215.98" y="386.198"/>
      <point x="235.173" y="409.094"/>
      <point x="250.697" y="429.295" type="curve" smooth="yes"/>
      <point x="285.622" y="474.739"/>
      <point x="302.967" y="507.334"/>
      <point x="307.65" y="526.045" type="curve" smooth="yes"/>
      <point x="309.998" y="535.401"/>
      <point x="309.049" y="540.582"/>
      <point x="308.072" y="542.639" type="curve" smooth="yes"/>
      <point x="307.103" y="544.7"/>
      <point x="306.201" y="545.658"/>
      <point x="301.604" y="546.717" type="curve" smooth="yes"/>
      <point x="299.306" y="547.249"/>
      <point x="296.345" y="547.465"/>
    </contour>
    <contour>
      <point x="135.808" y="258.154" type="line" smooth="no"/>
      <point x="113.167" y="235.232" type="line" smooth="no"/>
      <point x="113.167" y="155.807" type="line" smooth="no"/>
    </contour>
    <contour>
      <point x="112.818" y="96.2422" type="curve" smooth="yes"/>
      <point x="144.254" y="96.2422"/>
      <point x="169.962" y="70.5352"/>
      <point x="169.962" y="39.1006" type="curve" smooth="yes"/>
      <point x="169.962" y="7.6709"/>
      <point x="144.254" y="-18.3047"/>
      <point x="112.818" y="-18.3047" type="curve" smooth="yes"/>
      <point x="81.3896" y="-18.3047"/>
      <point x="55.6826" y="7.6709"/>
      <point x="55.6826" y="39.1006" type="curve" smooth="yes"/>
      <point x="55.6826" y="70.5352"/>
      <point x="81.3896" y="96.2422"/>
    </contour>
    <contour>
      <point x="112.818" y="68.2051" type="curve" smooth="yes"/>
      <point x="96.5908" y="68.2051"/>
      <point x="83.7197" y="55.334"/>
      <point x="83.7197" y="39.1006" type="curve" smooth="yes"/>
      <point x="83.7197" y="22.8672"/>
      <point x="96.5869" y="10"/>
      <point x="112.818" y="10" type="curve" smooth="yes"/>
      <point x="129.058" y="10"/>
      <point x="141.925" y="22.8672"/>
      <point x="141.925" y="39.1006" type="curve" smooth="yes"/>
      <point x="141.925" y="55.334"/>
      <point x="129.058" y="68.2051"/>
    </contour>
  </outline>
</glyph>
<glyph name="dollar" format="1">
  <advance width="325"/>
  <unicode hex="0024"/>
  <outline>
    <contour>
      <point x="283.195" y="504.703" type="curve" smooth="yes"/>
      <point x="297.258" y="504.703" type="line" smooth="no"/>
      <point x="297.258" y="476.578" type="line" smooth="no"/>
      <point x="290.09" y="476.578" type="line" smooth="no"/>
      <point x="312.336" y="463.719" type="line" smooth="no"/>
      <point x="188.963" y="250.007" type="line" smooth="no"/>
      <point x="211.944" y="192.705"/>
      <point x="234.431" y="134.485"/>
      <point x="220.195" y="84.6562" type="curve" smooth="yes"/>
      <point x="212.765" y="58.6367"/>
      <point x="193.793" y="36.1582"/>
      <point x="162.68" y="21.7969" type="curve" smooth="yes"/>
      <point x="134.405" y="8.74609"/>
      <point x="96.29" y="1.41504"/>
      <point x="44.7441" y="0.185547" type="curve" smooth="no"/>
      <point x="37.1328" y="-13" type="line" smooth="no"/>
      <point x="12.6641" y="1.0625" type="line" smooth="no"/>
      <point x="14.7422" y="4.66016" type="line" smooth="no"/>
      <point x="14.7422" y="28.125" type="line" smooth="no"/>
      <point x="28.2949" y="28.125" type="line" smooth="no"/>
      <point x="157.852" y="252.434" type="line" smooth="no"/>
      <point x="134.562" y="310.071"/>
      <point x="109.026" y="368.216"/>
      <point x="116.977" y="418.359" type="curve" smooth="yes"/>
      <point x="121.077" y="444.208"/>
      <point x="136.154" y="467.684"/>
      <point x="163.383" y="482.484" type="curve" smooth="yes"/>
      <point x="190.616" y="497.285"/>
      <point x="229.015" y="504.703"/>
    </contour>
    <contour>
      <point x="287.312" y="476.578" type="line" smooth="no"/>
      <point x="283.195" y="476.578" type="line" smooth="yes"/>
      <point x="231.656" y="476.578"/>
      <point x="197.458" y="468.993"/>
      <point x="176.742" y="457.734" type="curve" smooth="yes"/>
      <point x="156.03" y="446.476"/>
      <point x="147.804" y="432.822"/>
      <point x="144.82" y="414" type="curve" smooth="yes"/>
      <point x="139.712" y="381.78"/>
      <point x="155.89" y="333.909"/>
      <point x="175.69" y="283.319" type="curve" smooth="no"/>
    </contour>
    <contour>
      <point x="61.3916" y="29.0225" type="line" smooth="no"/>
      <point x="101.528" y="31.3496"/>
      <point x="130.778" y="38.0547"/>
      <point x="151.008" y="47.3906" type="curve" smooth="yes"/>
      <point x="176.355" y="59.0889"/>
      <point x="187.729" y="73.7402"/>
      <point x="193.055" y="92.3906" type="curve" smooth="yes"/>
      <point x="202.014" y="123.747"/>
      <point x="189.397" y="169.738"/>
      <point x="170.991" y="218.875" type="curve" smooth="no"/>
    </contour>
  </outline>
</glyph>
<glyph name="percent" format="1">
  <advance width="355"/>
  <unicode hex="0025"/>
  <outline>
    <contour>
      <point x="299.849" y="263" type="curve" smooth="yes"/>
      <point x="323.017" y="256.734"/>
      <point x="335.176" y="233.377"/>
      <point x="339.869" y="206.474" type="curve" smooth="yes"/>
      <point x="344.567" y="179.574"/>
      <point x="342.44" y="146.527"/>
      <point x="333.106" y="112.031" type="curve" smooth="yes"/>
      <point x="323.772" y="77.5293"/>
      <point x="308.944" y="47.9238"/>
      <point x="291.327" y="27.0586" type="curve" smooth="yes"/>
      <point x="273.705" y="6.19336"/>
      <point x="251.429" y="-7.84375"/>
      <point x="228.261" y="-1.57617" type="curve" smooth="yes"/>
      <point x="205.093" y="4.68945"/>
      <point x="192.934" y="28.0469"/>
      <point x="188.24" y="54.9453" type="curve" smooth="yes"/>
      <point x="183.547" y="81.8496"/>
      <point x="185.669" y="114.896"/>
      <point x="195.003" y="149.393" type="curve" smooth="yes"/>
      <point x="204.337" y="183.891"/>
      <point x="219.165" y="213.5"/>
      <point x="236.782" y="234.365" type="curve" smooth="yes"/>
      <point x="254.404" y="255.23"/>
      <point x="276.681" y="269.268"/>
    </contour>
    <contour>
      <point x="292.514" y="235.899" type="curve" smooth="yes"/>
      <point x="285.052" y="237.916"/>
      <point x="272.409" y="232.885"/>
      <point x="258.329" y="216.212" type="curve" smooth="yes"/>
      <point x="244.249" y="199.539"/>
      <point x="230.581" y="173.115"/>
      <point x="222.175" y="142.041" type="curve" smooth="yes"/>
      <point x="213.769" y="110.972"/>
      <point x="212.247" y="81.2598"/>
      <point x="215.996" y="59.7617" type="curve" smooth="yes"/>
      <point x="219.749" y="38.2637"/>
      <point x="228.151" y="27.6162"/>
      <point x="235.613" y="25.5947" type="curve" smooth="yes"/>
      <point x="243.079" y="23.5781"/>
      <point x="255.7" y="28.5391"/>
      <point x="269.78" y="45.2119" type="curve" smooth="yes"/>
      <point x="283.86" y="61.8848"/>
      <point x="297.528" y="88.3086"/>
      <point x="305.935" y="119.383" type="curve" smooth="yes"/>
      <point x="314.341" y="150.452"/>
      <point x="315.862" y="180.164"/>
      <point x="312.113" y="201.662" type="curve" smooth="yes"/>
      <point x="308.36" y="223.16"/>
      <point x="299.976" y="233.878"/>
    </contour>
    <contour>
      <point x="127.849" y="500" type="curve" smooth="yes"/>
      <point x="151.017" y="493.734"/>
      <point x="163.176" y="470.377"/>
      <point x="167.869" y="443.474" type="curve" smooth="yes"/>
      <point x="172.567" y="416.574"/>
      <point x="170.44" y="383.527"/>
      <point x="161.106" y="349.031" type="curve" smooth="yes"/>
      <point x="151.772" y="314.529"/>
      <point x="136.944" y="284.924"/>
      <point x="119.327" y="264.059" type="curve" smooth="yes"/>
      <point x="101.705" y="243.193"/>
      <point x="79.4287" y="229.156"/>
      <point x="56.2607" y="235.424" type="curve" smooth="yes"/>
      <point x="33.0928" y="241.689"/>
      <point x="20.9336" y="265.047"/>
      <point x="16.2402" y="291.945" type="curve" smooth="yes"/>
      <point x="11.5469" y="318.85"/>
      <point x="13.6689" y="351.896"/>
      <point x="23.0029" y="386.393" type="curve" smooth="yes"/>
      <point x="32.3369" y="420.891"/>
      <point x="47.165" y="450.5"/>
      <point x="64.7822" y="471.365" type="curve" smooth="yes"/>
      <point x="82.4043" y="492.23"/>
      <point x="104.681" y="506.268"/>
    </contour>
    <contour>
      <point x="120.514" y="472.899" type="curve" smooth="yes"/>
      <point x="113.052" y="474.916"/>
      <point x="100.409" y="469.885"/>
      <point x="86.3291" y="453.212" type="curve" smooth="yes"/>
      <point x="72.249" y="436.539"/>
      <point x="58.5811" y="410.115"/>
      <point x="50.1748" y="379.041" type="curve" smooth="yes"/>
      <point x="41.7686" y="347.972"/>
      <point x="40.2471" y="318.26"/>
      <point x="43.9961" y="296.762" type="curve" smooth="yes"/>
      <point x="47.749" y="275.264"/>
      <point x="56.1514" y="264.616"/>
      <point x="63.6133" y="262.595" type="curve" smooth="yes"/>
      <point x="71.0791" y="260.578"/>
      <point x="83.7002" y="265.539"/>
      <point x="97.7803" y="282.212" type="curve" smooth="yes"/>
      <point x="111.86" y="298.885"/>
      <point x="125.528" y="325.309"/>
      <point x="133.935" y="356.383" type="curve" smooth="yes"/>
      <point x="142.341" y="387.452"/>
      <point x="143.862" y="417.164"/>
      <point x="140.113" y="438.662" type="curve" smooth="yes"/>
      <point x="136.36" y="460.16"/>
      <point x="127.976" y="470.878"/>
    </contour>
    <contour>
      <point x="288.063" y="477.781" type="line" smooth="no"/>
      <point x="312.392" y="463.719" type="line" smooth="no"/>
      <point x="37.1885" y="-13" type="line" smooth="no"/>
      <point x="12.7197" y="1.0625" type="line" smooth="no"/>
    </contour>
  </outline>
</glyph>
<glyph name="ampersand" format="1">
  <advance width="460"/>
  <unicode hex="0026"/>
  <outline>
    <contour>
      <point x="110.848" y="512.578" type="curve" smooth="yes"/>
      <point x="277.427" y="512.578"/>
      <point x="343.863" y="368.438"/>
      <point x="343.863" y="368.438" type="curve" smooth="no"/>
      <point x="349.629" y="355.641" type="line" smooth="no"/>
      <point x="324.035" y="344.109" type="line" smooth="no"/>
      <point x="318.129" y="356.906" type="line" smooth="no"/>
      <point x="318.129" y="356.906"/>
      <point x="261.369" y="484.453"/>
      <point x="110.848" y="484.453" type="curve" smooth="yes"/>
      <point x="103.443" y="484.453"/>
      <point x="98.7275" y="483.069"/>
      <point x="96.082" y="481.641" type="curve" smooth="yes"/>
      <point x="93.4365" y="480.212"/>
      <point x="92.4785" y="478.964"/>
      <point x="91.4414" y="476.297" type="curve" smooth="yes"/>
      <point x="89.3711" y="470.958"/>
      <point x="89.7627" y="457.993"/>
      <point x="95.8008" y="440.438" type="curve" smooth="yes"/>
      <point x="107.886" y="405.321"/>
      <point x="139.004" y="354.011"/>
      <point x="176.801" y="300.797" type="curve" smooth="yes"/>
      <point x="184.957" y="289.406" type="line" smooth="no"/>
      <point x="184.957" y="288.422" type="line" smooth="no"/>
      <point x="176.379" y="277.312" type="line" smooth="yes"/>
      <point x="126.747" y="213.056"/>
      <point x="79.4316" y="145.331"/>
      <point x="56.1445" y="95.625" type="curve" smooth="yes"/>
      <point x="44.5039" y="70.7695"/>
      <point x="39.7227" y="50.0752"/>
      <point x="41.0977" y="40.2188" type="curve" smooth="yes"/>
      <point x="41.7871" y="35.2881"/>
      <point x="42.917" y="33.5479"/>
      <point x="45.3164" y="31.7812" type="curve" smooth="yes"/>
      <point x="47.7158" y="30.0107"/>
      <point x="52.7129" y="28.125"/>
      <point x="61.6289" y="28.125" type="curve" smooth="yes"/>
      <point x="212.15" y="28.125"/>
      <point x="268.91" y="155.672"/>
      <point x="268.91" y="155.672" type="curve" smooth="no"/>
      <point x="273.691" y="166.219" type="line" smooth="no"/>
      <point x="277.26" y="187.128"/>
      <point x="281.65" y="209.368"/>
      <point x="286.629" y="232.734" type="curve" smooth="yes"/>
      <point x="291.973" y="257.344" type="line" smooth="no"/>
      <point x="240.645" y="257.344" type="line" smooth="no"/>
      <point x="240.645" y="285.469" type="line" smooth="no"/>
      <point x="298.441" y="285.469" type="line" smooth="no"/>
      <point x="309.973" y="333.844" type="line" smooth="no"/>
      <point x="338.801" y="333.844" type="line" smooth="no"/>
      <point x="327.27" y="285.469" type="line" smooth="no"/>
      <point x="392.379" y="285.469" type="line" smooth="no"/>
      <point x="392.379" y="257.344" type="line" smooth="no"/>
      <point x="320.801" y="257.344" type="line" smooth="no"/>
      <point x="314.051" y="226.828" type="line" smooth="yes"/>
      <point x="303.996" y="179.657"/>
      <point x="296.499" y="137.122"/>
      <point x="293.52" y="103.359" type="curve" smooth="yes"/>
      <point x="290.545" y="69.5918"/>
      <point x="293.365" y="44.3096"/>
      <point x="298.301" y="35.1562" type="curve" smooth="yes"/>
      <point x="300.771" y="30.5771"/>
      <point x="301.777" y="30.0674"/>
      <point x="304.77" y="29.6719" type="curve" smooth="yes"/>
      <point x="307.762" y="29.2764"/>
      <point x="314.477" y="30.2217"/>
      <point x="324.457" y="35.7188" type="curve" smooth="yes"/>
      <point x="344.422" y="46.71"/>
      <point x="375.561" y="74.1143"/>
      <point x="416.988" y="120.938" type="curve" smooth="yes"/>
      <point x="426.41" y="131.484" type="line" smooth="no"/>
      <point x="447.363" y="112.781" type="line" smooth="no"/>
      <point x="438.082" y="102.234" type="line" smooth="yes"/>
      <point x="395.697" y="54.3291"/>
      <point x="364.025" y="25.3828"/>
      <point x="338.098" y="11.1094" type="curve" smooth="yes"/>
      <point x="325.139" y="3.96777"/>
      <point x="313.075" y="0.105469"/>
      <point x="301.113" y="1.6875" type="curve" smooth="yes"/>
      <point x="289.156" y="3.26465"/>
      <point x="279.035" y="11.6279"/>
      <point x="273.551" y="21.7969" type="curve" smooth="yes"/>
      <point x="263.32" y="40.7637"/>
      <point x="262.479" y="66.3311"/>
      <point x="264.973" y="98.7188" type="curve" smooth="no"/>
      <point x="230.968" y="56.501"/>
      <point x="165.951" y="0"/>
      <point x="61.6289" y="0" type="curve" smooth="yes"/>
      <point x="48.8584" y="0"/>
      <point x="37.5908" y="2.60156"/>
      <point x="28.7227" y="9.14062" type="curve" smooth="yes"/>
      <point x="19.8594" y="15.6797"/>
      <point x="14.7168" y="25.9541"/>
      <point x="13.2539" y="36.4219" type="curve" smooth="yes"/>
      <point x="10.332" y="57.3525"/>
      <point x="18.0566" y="80.4639"/>
      <point x="30.6914" y="107.438" type="curve" smooth="yes"/>
      <point x="55.3447" y="160.062"/>
      <point x="101.531" y="226.173"/>
      <point x="150.363" y="289.688" type="curve" smooth="no"/>
      <point x="113.511" y="341.965"/>
      <point x="82.8633" y="391.663"/>
      <point x="69.2227" y="431.297" type="curve" smooth="yes"/>
      <point x="62.1826" y="451.753"/>
      <point x="58.7549" y="470.097"/>
      <point x="65.1445" y="486.562" type="curve" smooth="yes"/>
      <point x="68.3398" y="494.794"/>
      <point x="74.6279" y="502.019"/>
      <point x="82.7227" y="506.391" type="curve" smooth="yes"/>
      <point x="90.8223" y="510.759"/>
      <point x="100.244" y="512.578"/>
    </contour>
  </outline>
</glyph>
<glyph name="quotesingle" format="1">
  <advance width="181"/>
  <unicode hex="0027"/>
  <outline>
    <contour>
      <point x="146.184" y="708.281" type="line" smooth="no"/>
      <point x="162.641" y="688.809"/>
      <point x="169.531" y="665.725"/>
      <point x="168.262" y="642.891" type="curve" smooth="yes"/>
      <point x="166.996" y="620.057"/>
      <point x="158.221" y="597.553"/>
      <point x="145.059" y="575.812" type="curve" smooth="yes"/>
      <point x="118.744" y="532.338"/>
      <point x="74.5" y="491.517"/>
      <point x="28.4805" y="459.797" type="curve" smooth="no"/>
      <point x="12.5898" y="482.859" type="line" smooth="no"/>
      <point x="56.1836" y="512.909"/>
      <point x="97.9707" y="552.236"/>
      <point x="121.012" y="590.297" type="curve" smooth="yes"/>
      <point x="132.535" y="609.33"/>
      <point x="139.219" y="627.865"/>
      <point x="140.137" y="644.438" type="curve" smooth="yes"/>
      <point x="141.062" y="661.01"/>
      <point x="136.801" y="675.639"/>
      <point x="124.668" y="690" type="curve" smooth="no"/>
    </contour>
  </outline>
</glyph>
<glyph name="parenleft" format="1">
  <advance width="316"/>
  <unicode hex="0028"/>
  <outline>
    <contour>
      <point x="303.642" y="642.875" type="curve" smooth="no"/>
      <point x="303.642" y="614.75" type="line" smooth="no"/>
      <point x="246.319" y="614.75"/>
      <point x="191.739" y="563.8"/>
      <point x="147.267" y="485.094" type="curve" smooth="yes"/>
      <point x="102.789" y="406.393"/>
      <point x="69.5449" y="302.215"/>
      <point x="52.9072" y="205.531" type="curve" smooth="yes"/>
      <point x="36.2656" y="108.852"/>
      <point x="37.0254" y="18.8691"/>
      <point x="55.7197" y="-28.0469" type="curve" smooth="yes"/>
      <point x="65.0664" y="-51.5049"/>
      <point x="76.6377" y="-62.5088"/>
      <point x="92.001" y="-64.4688" type="curve" smooth="yes"/>
      <point x="107.359" y="-66.4238"/>
      <point x="131.385" y="-58.2422"/>
      <point x="163.579" y="-31" type="curve" smooth="no"/>
      <point x="181.86" y="-52.5156" type="line" smooth="no"/>
      <point x="146.646" y="-82.3105"/>
      <point x="116.105" y="-95.9727"/>
      <point x="88.4854" y="-92.4531" type="curve" smooth="yes"/>
      <point x="60.8652" y="-88.9287"/>
      <point x="41.0068" y="-67.1719"/>
      <point x="29.5635" y="-38.4531" type="curve" smooth="yes"/>
      <point x="6.67676" y="18.9883"/>
      <point x="8.07812" y="110.82"/>
      <point x="25.2041" y="210.312" type="curve" smooth="yes"/>
      <point x="42.3252" y="309.809"/>
      <point x="76.0703" y="416.188"/>
      <point x="122.798" y="498.875" type="curve" smooth="yes"/>
      <point x="169.525" y="581.566"/>
      <point x="230.209" y="642.875"/>
    </contour>
  </outline>
</glyph>
<glyph name="asterisk" format="1">
  <advance width="279"/>
  <unicode hex="002a"/>
  <outline>
    <contour>
      <point x="12.5" y="262" type="line" smooth="no"/>
      <point x="12.5" y="290.125" type="line" smooth="no"/>
      <point x="107.853" y="290.125" type="line" smooth="no"/>
      <point x="41.6367" y="356.342" type="line" smooth="no"/>
      <point x="61.5234" y="376.229" type="line" smooth="no"/>
      <point x="128.1" y="309.653" type="line" smooth="no"/>
      <point x="128.1" y="401.6" type="line" smooth="no"/>
      <point x="156.225" y="401.6" type="line" smooth="no"/>
      <point x="156.225" y="313.28" type="line" smooth="no"/>
      <point x="218.325" y="375.381" type="line" smooth="no"/>
      <point x="238.212" y="355.493" type="line" smooth="no"/>
      <point x="172.844" y="290.125" type="line" smooth="no"/>
      <point x="266.5" y="290.125" type="line" smooth="no"/>
      <point x="266.5" y="262" type="line" smooth="no"/>
      <point x="175.752" y="262" type="line" smooth="no"/>
      <point x="241.129" y="196.624" type="line" smooth="no"/>
      <point x="221.241" y="176.736" type="line" smooth="no"/>
      <point x="156.225" y="241.753" type="line" smooth="no"/>
      <point x="156.225" y="147.6" type="line" smooth="no"/>
      <point x="128.1" y="147.6" type="line" smooth="no"/>
      <point x="128.1" y="245.38" type="line" smooth="no"/>
      <point x="58.6074" y="175.888" type="line" smooth="no"/>
      <point x="38.7197" y="195.775" type="line" smooth="no"/>
      <point x="104.944" y="262" type="line" smooth="no"/>
    </contour>
  </outline>
</glyph>
<glyph name="plus" format="1">
  <advance width="279"/>
  <unicode hex="002b"/>
  <outline>
    <contour>
      <point x="12.5" y="270" type="line" smooth="no"/>
      <point x="12.5" y="298.125" type="line" smooth="no"/>
      <point x="128.1" y="298.125" type="line" smooth="no"/>
      <point x="128.1" y="401.6" type="line" smooth="no"/>
      <point x="156.225" y="401.6" type="line" smooth="no"/>
      <point x="156.225" y="298.125" type="line" smooth="no"/>
      <point x="266.5" y="298.125" type="line" smooth="no"/>
      <point x="266.5" y="270" type="line" smooth="no"/>
      <point x="156.225" y="270" type="line" smooth="no"/>
      <point x="156.225" y="147.6" type="line" smooth="no"/>
      <point x="128.1" y="147.6" type="line" smooth="no"/>
      <point x="128.1" y="270" type="line" smooth="no"/>
    </contour>
  </outline>
</glyph>
<glyph name="period" format="1">
  <advance width="141"/>
  <unicode hex="002e"/>
  <outline>
    <contour>
      <point x="70.4971" y="94.5469" type="curve" smooth="yes"/>
      <point x="101.932" y="94.5469"/>
      <point x="127.64" y="68.8398"/>
      <point x="127.64" y="37.4053" type="curve" smooth="yes"/>
      <point x="127.64" y="5.97559"/>
      <point x="101.932" y="-20"/>
      <point x="70.4971" y="-20" type="curve" smooth="yes"/>
      <point x="39.0674" y="-20"/>
      <point x="13.3604" y="5.97559"/>
      <point x="13.3604" y="37.4053" type="curve" smooth="yes"/>
      <point x="13.3604" y="68.8398"/>
      <point x="39.0674" y="94.5469"/>
    </contour>
    <contour>
      <point x="70.4971" y="66.5098" type="curve" smooth="yes"/>
      <point x="54.2646" y="66.5098"/>
      <point x="41.3975" y="53.6387"/>
      <point x="41.3975" y="37.4053" type="curve" smooth="yes"/>
      <point x="41.3975" y="21.1719"/>
      <point x="54.2646" y="8.30469"/>
      <point x="70.4971" y="8.30469" type="curve" smooth="yes"/>
      <point x="86.7354" y="8.30469"/>
      <point x="99.6025" y="21.1719"/>
      <point x="99.6025" y="37.4053" type="curve" smooth="yes"/>
      <point x="99.6025" y="53.6387"/>
      <point x="86.7354" y="66.5098"/>
    </contour>
  </outline>
</glyph>
<glyph name="slash" format="1">
  <advance width="325"/>
  <unicode hex="002f"/>
  <outline>
    <contour>
      <point x="288.008" y="477.781" type="line" smooth="no"/>
      <point x="312.336" y="463.719" type="line" smooth="no"/>
      <point x="37.1328" y="-13" type="line" smooth="no"/>
      <point x="12.6641" y="1.0625" type="line" smooth="no"/>
    </contour>
  </outline>
</glyph>
<glyph name="one" format="1">
  <advance width="288"/>
  <unicode hex="0031"/>
  <outline>
    <contour>
      <point x="252.07" y="503.578" type="line" smooth="no"/>
      <point x="275.555" y="490.078" type="line" smooth="no"/>
      <point x="144.211" y="0" type="line" smooth="no"/>
      <point x="117.07" y="7.3125" type="line" smooth="no"/>
      <point x="234.773" y="446.625" type="line" smooth="no"/>
      <point x="32.2734" y="244.125" type="line" smooth="no"/>
      <point x="12.4453" y="264.094" type="line" smooth="no"/>
    </contour>
  </outline>
</glyph>
<glyph name="two" format="1">
  <advance width="380"/>
  <unicode hex="0032"/>
  <outline>
    <contour>
      <point x="86.3076" y="360.695" type="curve" smooth="no"/>
      <point x="111.831" y="348.887" type="line" smooth="no"/>
      <point x="111.831" y="348.887"/>
      <point x="169.536" y="476.553"/>
      <point x="319.174" y="476.553" type="curve" smooth="yes"/>
      <point x="328.896" y="476.553"/>
      <point x="333.688" y="474.303"/>
      <point x="335.868" y="472.475" type="curve" smooth="yes"/>
      <point x="388.524" y="428.309"/>
      <point x="42.208" y="32.8984"/>
      <point x="33.6699" y="23.5068" type="curve" smooth="yes"/>
      <point x="12.29" y="0" type="line" smooth="no"/>
      <point x="345.673" y="0" type="line" smooth="no"/>
      <point x="345.673" y="28.1523" type="line" smooth="no"/>
      <point x="75.5059" y="28.1523" type="line" smooth="no"/>
      <point x="143.841" y="105.539"/>
      <point x="433.7" y="427.096"/>
      <point x="353.943" y="493.99" type="curve" smooth="yes"/>
      <point x="344.798" y="501.662"/>
      <point x="332.704" y="504.678"/>
      <point x="319.174" y="504.678" type="curve" smooth="yes"/>
      <point x="151.435" y="504.678"/>
      <point x="86.668" y="361.477"/>
    </contour>
  </outline>
</glyph>
<glyph name="three" format="1">
  <advance width="362"/>
  <unicode hex="0033"/>
  <outline>
    <contour>
      <point x="300.504" y="511.641" type="curve" smooth="yes"/>
      <point x="313.278" y="511.641"/>
      <point x="324.546" y="509.039"/>
      <point x="333.41" y="502.5" type="curve" smooth="yes"/>
      <point x="342.273" y="495.961"/>
      <point x="347.42" y="485.686"/>
      <point x="348.879" y="475.219" type="curve" smooth="yes"/>
      <point x="351.801" y="454.283"/>
      <point x="344.075" y="431.176"/>
      <point x="331.441" y="404.203" type="curve" smooth="yes"/>
      <point x="306.792" y="351.578"/>
      <point x="260.602" y="285.467"/>
      <point x="211.77" y="221.953" type="curve" smooth="no"/>
      <point x="248.626" y="169.671"/>
      <point x="279.199" y="119.978"/>
      <point x="292.84" y="80.3438" type="curve" smooth="yes"/>
      <point x="299.884" y="59.8867"/>
      <point x="303.378" y="41.5439"/>
      <point x="296.988" y="25.0781" type="curve" smooth="yes"/>
      <point x="293.793" y="16.8467"/>
      <point x="287.509" y="9.62207"/>
      <point x="279.41" y="5.25" type="curve" smooth="yes"/>
      <point x="271.311" y="0.880859"/>
      <point x="261.894" y="-0.912109"/>
      <point x="251.285" y="-0.912109" type="curve" smooth="yes"/>
      <point x="84.7061" y="-0.912109"/>
      <point x="18.2695" y="143.203"/>
      <point x="18.2695" y="143.203" type="curve" smooth="no"/>
      <point x="12.5039" y="156" type="line" smooth="no"/>
      <point x="38.0977" y="167.531" type="line" smooth="no"/>
      <point x="44.0039" y="154.734" type="line" smooth="no"/>
      <point x="44.0039" y="154.734"/>
      <point x="100.764" y="27.2402"/>
      <point x="251.285" y="27.2402" type="curve" smooth="yes"/>
      <point x="258.689" y="27.2402"/>
      <point x="263.405" y="28.5713"/>
      <point x="266.051" y="30" type="curve" smooth="yes"/>
      <point x="268.7" y="31.4277"/>
      <point x="269.654" y="32.6758"/>
      <point x="270.691" y="35.3438" type="curve" smooth="yes"/>
      <point x="272.766" y="40.6826"/>
      <point x="272.374" y="53.6465"/>
      <point x="266.332" y="71.2031" type="curve" smooth="yes"/>
      <point x="254.247" y="106.314"/>
      <point x="223.129" y="157.63"/>
      <point x="185.332" y="210.844" type="curve" smooth="yes"/>
      <point x="177.176" y="222.234" type="line" smooth="no"/>
      <point x="177.176" y="223.219" type="line" smooth="no"/>
      <point x="185.754" y="234.328" type="line" smooth="yes"/>
      <point x="235.386" y="298.584"/>
      <point x="282.701" y="366.309"/>
      <point x="305.988" y="416.016" type="curve" smooth="yes"/>
      <point x="317.634" y="440.871"/>
      <point x="322.41" y="461.564"/>
      <point x="321.035" y="471.422" type="curve" smooth="yes"/>
      <point x="320.35" y="476.352"/>
      <point x="319.216" y="478.014"/>
      <point x="316.816" y="479.779" type="curve" smooth="yes"/>
      <point x="314.417" y="481.551"/>
      <point x="309.425" y="483.516"/>
      <point x="300.504" y="483.516" type="curve" smooth="yes"/>
      <point x="149.986" y="483.516"/>
      <point x="93.2227" y="355.969"/>
      <point x="93.2227" y="355.969" type="curve" smooth="no"/>
      <point x="87.457" y="343.172" type="line" smooth="no"/>
      <point x="61.8633" y="354.844" type="line" smooth="no"/>
      <point x="67.6289" y="367.641" type="line" smooth="no"/>
      <point x="67.6289" y="367.641"/>
      <point x="133.925" y="511.641"/>
    </contour>
  </outline>
</glyph>
<glyph name="four" format="1">
  <advance width="368"/>
  <unicode hex="0034"/>
  <outline>
    <contour>
      <point x="227.664" y="507.281" type="line" smooth="no"/>
      <point x="254.805" y="499.969" type="line" smooth="no"/>
      <point x="251.289" y="486.469" type="line" smooth="yes"/>
      <point x="215.082" y="351.342"/>
      <point x="121.923" y="236.855"/>
      <point x="79.1641" y="189.469" type="curve" smooth="no"/>
      <point x="243.977" y="189.469" type="line" smooth="no"/>
      <point x="328.492" y="504.891" type="line" smooth="no"/>
      <point x="355.633" y="497.578" type="line" smooth="no"/>
      <point x="220.773" y="-6" type="line" smooth="no"/>
      <point x="193.633" y="1.3125" type="line" smooth="no"/>
      <point x="236.523" y="161.344" type="line" smooth="no"/>
      <point x="12.3672" y="161.344" type="line" smooth="no"/>
      <point x="36.8359" y="185.531" type="line" smooth="no"/>
      <point x="36.8359" y="185.531"/>
      <point x="179.263" y="326.652"/>
      <point x="224.008" y="493.641" type="curve" smooth="yes"/>
    </contour>
  </outline>
</glyph>
<glyph name="six" format="1">
  <advance width="324"/>
  <unicode hex="0036"/>
  <outline>
    <contour>
      <point x="261.126" y="303.328" type="curve" smooth="yes"/>
      <point x="242.914" y="303.785"/>
      <point x="210.765" y="298.274"/>
      <point x="164.376" y="280.547" type="curve" smooth="yes"/>
      <point x="151.72" y="275.625" type="line" smooth="no"/>
      <point x="129.874" y="238.83"/>
      <point x="110.688" y="205.216"/>
      <point x="95.8906" y="177.047" type="curve" smooth="yes"/>
      <point x="58.2217" y="105.337"/>
      <point x="42.5322" y="59.3965"/>
      <point x="41.0479" y="37.9688" type="curve" smooth="yes"/>
      <point x="40.3096" y="27.2549"/>
      <point x="42.4941" y="25.2461"/>
      <point x="42.5947" y="25.1719" type="curve" smooth="yes"/>
      <point x="42.6992" y="25.0977"/>
      <point x="46.4229" y="23.9277"/>
      <point x="54.9697" y="26.7188" type="curve" smooth="yes"/>
      <point x="72.0693" y="32.2998"/>
      <point x="101.204" y="51.623"/>
      <point x="131.328" y="77.9062" type="curve" smooth="yes"/>
      <point x="191.582" y="130.479"/>
      <point x="258.708" y="211.983"/>
      <point x="277.578" y="261.984" type="curve" smooth="yes"/>
      <point x="282.299" y="274.486"/>
      <point x="283.832" y="284.699"/>
      <point x="282.923" y="290.672" type="curve" smooth="yes"/>
      <point x="282.018" y="296.645"/>
      <point x="280.65" y="298.551"/>
      <point x="274.656" y="301.078" type="curve" smooth="yes"/>
      <point x="271.659" y="302.344"/>
      <point x="267.198" y="303.328"/>
    </contour>
    <contour>
      <point x="264.501" y="505.969" type="line" smooth="no"/>
      <point x="287.845" y="490.359" type="line" smooth="no"/>
      <point x="280.109" y="478.688" type="line" smooth="yes"/>
      <point x="174.642" y="313.875" type="line" smooth="no"/>
      <point x="226.555" y="332.02"/>
      <point x="261.381" y="337.303"/>
      <point x="285.595" y="327.094" type="curve" smooth="yes"/>
      <point x="299.287" y="321.324"/>
      <point x="308.557" y="308.505"/>
      <point x="310.626" y="294.891" type="curve" smooth="yes"/>
      <point x="312.695" y="281.281"/>
      <point x="309.575" y="267.1"/>
      <point x="303.876" y="252" type="curve" smooth="yes"/>
      <point x="281.086" y="191.615"/>
      <point x="212.76" y="111.691"/>
      <point x="149.702" y="56.6719" type="curve" smooth="yes"/>
      <point x="118.177" y="29.1621"/>
      <point x="88.8691" y="8.21777"/>
      <point x="63.6885" y="0" type="curve" smooth="yes"/>
      <point x="51.0986" y="-4.10938"/>
      <point x="37.6367" y="-5.68652"/>
      <point x="26.4229" y="2.25" type="curve" smooth="yes"/>
      <point x="15.207" y="10.1865"/>
      <point x="11.8496" y="24.4551"/>
      <point x="12.9229" y="39.9375" type="curve" smooth="yes"/>
      <point x="15.0664" y="70.9014"/>
      <point x="32.6152" y="117.057"/>
      <point x="71.001" y="190.125" type="curve" smooth="yes"/>
      <point x="109.388" y="263.197"/>
      <point x="168.95" y="362.219"/>
      <point x="256.626" y="494.156" type="curve" smooth="yes"/>
    </contour>
  </outline>
</glyph>
<glyph name="seven" format="1">
  <advance width="344"/>
  <unicode hex="0037"/>
  <outline>
    <contour>
      <point x="52.1875" y="498.125" type="line" smooth="no"/>
      <point x="331.328" y="498.125" type="line" smooth="no"/>
      <point x="37" y="-11.6406" type="line" smooth="no"/>
      <point x="12.6719" y="2.42188" type="line" smooth="no"/>
      <point x="282.531" y="470" type="line" smooth="no"/>
      <point x="52.1875" y="470" type="line" smooth="no"/>
    </contour>
  </outline>
</glyph>
<glyph name="colon" format="1">
  <advance width="139"/>
  <unicode hex="003a"/>
  <outline>
    <contour>
      <point x="69.4971" y="274.547" type="curve" smooth="yes"/>
      <point x="100.932" y="274.547"/>
      <point x="126.64" y="248.84"/>
      <point x="126.64" y="217.405" type="curve" smooth="yes"/>
      <point x="126.64" y="185.976"/>
      <point x="100.932" y="160"/>
      <point x="69.4971" y="160" type="curve" smooth="yes"/>
      <point x="38.0674" y="160"/>
      <point x="12.3604" y="185.976"/>
      <point x="12.3604" y="217.405" type="curve" smooth="yes"/>
      <point x="12.3604" y="248.84"/>
      <point x="38.0674" y="274.547"/>
    </contour>
    <contour>
      <point x="69.4971" y="246.51" type="curve" smooth="yes"/>
      <point x="53.2646" y="246.51"/>
      <point x="40.3975" y="233.639"/>
      <point x="40.3975" y="217.405" type="curve" smooth="yes"/>
      <point x="40.3975" y="201.172"/>
      <point x="53.2646" y="188.305"/>
      <point x="69.4971" y="188.305" type="curve" smooth="yes"/>
      <point x="85.7354" y="188.305"/>
      <point x="98.6025" y="201.172"/>
      <point x="98.6025" y="217.405" type="curve" smooth="yes"/>
      <point x="98.6025" y="233.639"/>
      <point x="85.7354" y="246.51"/>
    </contour>
    <contour>
      <point x="69.4971" y="94.5469" type="curve" smooth="yes"/>
      <point x="100.932" y="94.5469"/>
      <point x="126.64" y="68.8398"/>
      <point x="126.64" y="37.4053" type="curve" smooth="yes"/>
      <point x="126.64" y="5.97559"/>
      <point x="100.932" y="-20"/>
      <point x="69.4971" y="-20" type="curve" smooth="yes"/>
      <point x="38.0674" y="-20"/>
      <point x="12.3604" y="5.97559"/>
      <point x="12.3604" y="37.4053" type="curve" smooth="yes"/>
      <point x="12.3604" y="68.8398"/>
      <point x="38.0674" y="94.5469"/>
    </contour>
    <contour>
      <point x="69.4971" y="66.5098" type="curve" smooth="yes"/>
      <point x="53.2646" y="66.5098"/>
      <point x="40.3975" y="53.6387"/>
      <point x="40.3975" y="37.4053" type="curve" smooth="yes"/>
      <point x="40.3975" y="21.1719"/>
      <point x="53.2646" y="8.30469"/>
      <point x="69.4971" y="8.30469" type="curve" smooth="yes"/>
      <point x="85.7354" y="8.30469"/>
      <point x="98.6025" y="21.1719"/>
      <point x="98.6025" y="37.4053" type="curve" smooth="yes"/>
      <point x="98.6025" y="53.6387"/>
      <point x="85.7354" y="66.5098"/>
    </contour>
  </outline>
</glyph>
<glyph name="semicolon" format="1">
  <advance width="143"/>
  <unicode hex="003b"/>
  <outline>
    <contour>
      <point x="75.166" y="180.547" type="curve" smooth="yes"/>
      <point x="106.602" y="180.547"/>
      <point x="132.309" y="154.84"/>
      <point x="132.309" y="123.405" type="curve" smooth="yes"/>
      <point x="132.309" y="91.9756"/>
      <point x="106.602" y="66"/>
      <point x="75.166" y="66" type="curve" smooth="yes"/>
      <point x="43.7363" y="66"/>
      <point x="18.0293" y="91.9756"/>
      <point x="18.0293" y="123.405" type="curve" smooth="yes"/>
      <point x="18.0293" y="154.84"/>
      <point x="43.7363" y="180.547"/>
    </contour>
    <contour>
      <point x="75.166" y="152.51" type="curve" smooth="yes"/>
      <point x="58.9336" y="152.51"/>
      <point x="46.0664" y="139.639"/>
      <point x="46.0664" y="123.405" type="curve" smooth="yes"/>
      <point x="46.0664" y="107.172"/>
      <point x="58.9336" y="94.3047"/>
      <point x="75.166" y="94.3047" type="curve" smooth="yes"/>
      <point x="91.4043" y="94.3047"/>
      <point x="104.271" y="107.172"/>
      <point x="104.271" y="123.405" type="curve" smooth="yes"/>
      <point x="104.271" y="139.639"/>
      <point x="91.4043" y="152.51"/>
    </contour>
    <contour>
      <point x="74.2852" y="18.2812" type="line" smooth="no"/>
      <point x="90.7422" y="-1.19141"/>
      <point x="97.6328" y="-24.2754"/>
      <point x="96.3633" y="-47.1094" type="curve" smooth="yes"/>
      <point x="95.0977" y="-69.9434"/>
      <point x="86.3223" y="-92.4473"/>
      <point x="73.1602" y="-114.188" type="curve" smooth="yes"/>
      <point x="46.8457" y="-157.662"/>
      <point x="2.60156" y="-198.483"/>
      <point x="-43.418" y="-230.203" type="curve" smooth="no"/>
      <point x="-59.3086" y="-207.141" type="line" smooth="no"/>
      <point x="-15.7148" y="-177.091"/>
      <point x="26.0723" y="-137.764"/>
      <point x="49.1133" y="-99.7031" type="curve" smooth="yes"/>
      <point x="60.6367" y="-80.6699"/>
      <point x="67.3203" y="-62.1348"/>
      <point x="68.2383" y="-45.5615" type="curve" smooth="yes"/>
      <point x="69.1621" y="-28.9902"/>
      <point x="64.9023" y="-14.3613"/>
      <point x="52.7695" y="0" type="curve" smooth="no"/>
    </contour>
  </outline>
</glyph>
<glyph name="less" format="1">
  <advance width="246"/>
  <unicode hex="003c"/>
  <outline>
    <contour>
      <point x="211.197" y="505.828" type="line" smooth="no"/>
      <point x="233.702" y="488.953" type="line" smooth="no"/>
      <point x="225.124" y="477.703" type="line" smooth="yes"/>
      <point x="73.3896" y="279.141" type="line" smooth="yes"/>
      <point x="66.3584" y="270.281" type="line" smooth="no"/>
      <point x="67.6367" y="269.903"/>
      <point x="68.8447" y="269.64"/>
      <point x="70.1553" y="269.016" type="curve" smooth="yes"/>
      <point x="80.3809" y="264.155"/>
      <point x="85.373" y="252.743"/>
      <point x="86.3271" y="240.047" type="curve" smooth="yes"/>
      <point x="86.4629" y="239.484" type="line" smooth="no"/>
      <point x="86.4629" y="238.922" type="line" smooth="yes"/>
      <point x="86.4629" y="159.574"/>
      <point x="101.47" y="104.269"/>
      <point x="116.275" y="68.9062" type="curve" smooth="yes"/>
      <point x="131.081" y="33.5479"/>
      <point x="144.682" y="19.125"/>
      <point x="144.682" y="19.125" type="curve" smooth="no"/>
      <point x="154.244" y="8.85938" type="line" smooth="no"/>
      <point x="133.572" y="-10.2656" type="line" smooth="no"/>
      <point x="124.01" y="0" type="line" smooth="no"/>
      <point x="124.01" y="0"/>
      <point x="106.62" y="19.2041"/>
      <point x="90.4004" y="57.9375" type="curve" smooth="yes"/>
      <point x="74.251" y="96.5088"/>
      <point x="58.4736" y="155.558"/>
      <point x="58.3379" y="237.938" type="curve" smooth="yes"/>
      <point x="58.0791" y="241.427"/>
      <point x="57.7002" y="242.71"/>
      <point x="57.4941" y="243.422" type="curve" smooth="no"/>
      <point x="57.9072" y="243.153"/>
      <point x="54.541" y="242.016"/>
      <point x="54.541" y="242.016" type="curve" smooth="yes"/>
      <point x="50.8096" y="240.403"/>
      <point x="46.0381" y="237.31"/>
      <point x="42.166" y="234.562" type="curve" smooth="yes"/>
      <point x="36.9629" y="230.906" type="line" smooth="yes"/>
      <point x="36.1592" y="230.344"/>
      <point x="35.3682" y="229.769"/>
      <point x="34.1504" y="229.078" type="curve" smooth="yes"/>
      <point x="33.5439" y="228.735"/>
      <point x="32.9775" y="228.34"/>
      <point x="31.4785" y="227.812" type="curve" smooth="yes"/>
      <point x="29.9795" y="227.29"/>
      <point x="27.2598" y="225.202"/>
      <point x="20.6504" y="228.234" type="curve" smooth="yes"/>
      <point x="17.3457" y="229.751"/>
      <point x="14.0938" y="233.548"/>
      <point x="13.0566" y="236.672" type="curve" smooth="yes"/>
      <point x="12.0244" y="239.801"/>
      <point x="12.2744" y="241.993"/>
      <point x="12.4941" y="243.422" type="curve" smooth="yes"/>
      <point x="12.9336" y="246.282"/>
      <point x="13.6191" y="247.073"/>
      <point x="14.041" y="247.922" type="curve" smooth="yes"/>
      <point x="14.8848" y="249.618"/>
      <point x="15.4209" y="250.523"/>
      <point x="16.1504" y="251.578" type="curve" smooth="yes"/>
      <point x="17.6182" y="253.692"/>
      <point x="19.5029" y="256.224"/>
      <point x="22.3379" y="259.875" type="curve" smooth="yes"/>
      <point x="51.166" y="296.578" type="line" smooth="yes"/>
      <point x="202.76" y="494.578" type="line" smooth="yes"/>
    </contour>
  </outline>
</glyph>
<glyph name="equal" format="1">
  <advance width="281"/>
  <unicode hex="003d"/>
  <outline>
    <contour>
      <point x="13.5" y="0" type="line" smooth="no"/>
      <point x="13.5" y="28.125" type="line" smooth="no"/>
      <point x="267.5" y="28.125" type="line" smooth="no"/>
      <point x="267.5" y="0" type="line" smooth="no"/>
    </contour>
    <contour>
      <point x="13.5" y="154" type="line" smooth="no"/>
      <point x="13.5" y="182.125" type="line" smooth="no"/>
      <point x="267.5" y="182.125" type="line" smooth="no"/>
      <point x="267.5" y="154" type="line" smooth="no"/>
    </contour>
  </outline>
</glyph>
<glyph name="greater" format="1">
  <advance width="246"/>
  <unicode hex="003e"/>
  <outline>
    <contour>
      <point x="34.8008" y="-16.0938" type="line" smooth="no"/>
      <point x="12.3008" y="0.78125" type="line" smooth="no"/>
      <point x="20.8789" y="12.0312" type="line" smooth="yes"/>
      <point x="172.613" y="210.594" type="line" smooth="yes"/>
      <point x="179.645" y="219.453" type="line" smooth="no"/>
      <point x="178.365" y="219.835"/>
      <point x="177.152" y="220.099"/>
      <point x="175.844" y="220.719" type="curve" smooth="yes"/>
      <point x="165.617" y="225.579"/>
      <point x="160.625" y="236.991"/>
      <point x="159.676" y="249.688" type="curve" smooth="yes"/>
      <point x="159.535" y="250.25" type="line" smooth="no"/>
      <point x="159.535" y="250.812" type="line" smooth="yes"/>
      <point x="159.535" y="330.16"/>
      <point x="144.527" y="385.47"/>
      <point x="129.723" y="420.828" type="curve" smooth="yes"/>
      <point x="114.918" y="456.19"/>
      <point x="101.316" y="470.609"/>
      <point x="101.316" y="470.609" type="curve" smooth="no"/>
      <point x="91.7539" y="480.875" type="line" smooth="no"/>
      <point x="112.426" y="500" type="line" smooth="no"/>
      <point x="121.988" y="489.734" type="line" smooth="no"/>
      <point x="121.988" y="489.734"/>
      <point x="139.377" y="470.53"/>
      <point x="155.598" y="431.797" type="curve" smooth="yes"/>
      <point x="171.748" y="393.23"/>
      <point x="187.523" y="334.177"/>
      <point x="187.66" y="251.797" type="curve" smooth="yes"/>
      <point x="187.924" y="248.312"/>
      <point x="188.297" y="247.024"/>
      <point x="188.504" y="246.312" type="curve" smooth="no"/>
      <point x="188.091" y="246.585"/>
      <point x="191.457" y="247.719"/>
      <point x="191.457" y="247.719" type="curve" smooth="yes"/>
      <point x="195.188" y="249.336"/>
      <point x="199.965" y="252.425"/>
      <point x="203.832" y="255.172" type="curve" smooth="yes"/>
      <point x="209.035" y="258.828" type="line" smooth="yes"/>
      <point x="209.84" y="259.391"/>
      <point x="210.631" y="259.971"/>
      <point x="211.848" y="260.656" type="curve" smooth="yes"/>
      <point x="212.454" y="261.003"/>
      <point x="213.021" y="261.399"/>
      <point x="214.52" y="261.922" type="curve" smooth="yes"/>
      <point x="216.018" y="262.449"/>
      <point x="218.738" y="264.532"/>
      <point x="225.348" y="261.5" type="curve" smooth="yes"/>
      <point x="228.652" y="259.983"/>
      <point x="231.904" y="256.191"/>
      <point x="232.941" y="253.062" type="curve" smooth="yes"/>
      <point x="233.975" y="249.938"/>
      <point x="233.724" y="247.745"/>
      <point x="233.504" y="246.312" type="curve" smooth="yes"/>
      <point x="233.064" y="243.456"/>
      <point x="232.379" y="242.661"/>
      <point x="231.957" y="241.812" type="curve" smooth="yes"/>
      <point x="231.113" y="240.12"/>
      <point x="230.582" y="239.216"/>
      <point x="229.848" y="238.156" type="curve" smooth="yes"/>
      <point x="228.38" y="236.047"/>
      <point x="226.494" y="233.511"/>
      <point x="223.66" y="229.859" type="curve" smooth="yes"/>
      <point x="194.832" y="193.156" type="line" smooth="yes"/>
      <point x="43.2383" y="-4.84375" type="line" smooth="yes"/>
    </contour>
  </outline>
</glyph>
<glyph name="question" format="1">
  <advance width="350"/>
  <unicode hex="003f"/>
  <outline>
    <contour>
      <point x="291.62" y="574.693" type="curve" smooth="yes"/>
      <point x="297.299" y="574.795"/>
      <point x="302.694" y="574.355"/>
      <point x="307.934" y="573.146" type="curve" smooth="yes"/>
      <point x="318.409" y="570.734"/>
      <point x="328.637" y="563.953"/>
      <point x="333.526" y="553.6" type="curve" smooth="yes"/>
      <point x="338.417" y="543.251"/>
      <point x="338.225" y="531.311"/>
      <point x="334.934" y="518.162" type="curve" smooth="yes"/>
      <point x="328.351" y="491.87"/>
      <point x="309.106" y="458.055"/>
      <point x="273.059" y="411.146" type="curve" smooth="yes"/>
      <point x="237.766" y="365.229"/>
      <point x="185.479" y="306.82"/>
      <point x="113.167" y="234.24" type="curve" smooth="no"/>
      <point x="113.167" y="120.84" type="line" smooth="no"/>
      <point x="85.042" y="120.84" type="line" smooth="no"/>
      <point x="85.042" y="245.771" type="line" smooth="no"/>
      <point x="89.2607" y="249.85" type="line" smooth="yes"/>
      <point x="163.458" y="324.052"/>
      <point x="215.774" y="382.863"/>
      <point x="250.698" y="428.303" type="curve" smooth="yes"/>
      <point x="285.622" y="473.747"/>
      <point x="302.968" y="506.342"/>
      <point x="307.651" y="525.053" type="curve" smooth="yes"/>
      <point x="309.993" y="534.409"/>
      <point x="309.05" y="539.59"/>
      <point x="308.073" y="541.646" type="curve" smooth="yes"/>
      <point x="307.104" y="543.708"/>
      <point x="306.201" y="544.666"/>
      <point x="301.604" y="545.725" type="curve" smooth="yes"/>
      <point x="292.411" y="547.848"/>
      <point x="270.562" y="544.438"/>
      <point x="245.215" y="534.053" type="curve" smooth="yes"/>
      <point x="194.522" y="513.285"/>
      <point x="128.205" y="467.955"/>
      <point x="85.4639" y="418.6" type="curve" smooth="yes"/>
      <point x="64.0977" y="393.925"/>
      <point x="48.752" y="368.27"/>
      <point x="43.1357" y="345.334" type="curve" smooth="yes"/>
      <point x="37.5195" y="322.399"/>
      <point x="40.415" y="303.006"/>
      <point x="56.2139" y="284.303" type="curve" smooth="no"/>
      <point x="34.6982" y="266.162" type="line" smooth="no"/>
      <point x="13.2705" y="291.523"/>
      <point x="8.63379" y="322.593"/>
      <point x="15.8545" y="352.084" type="curve" smooth="yes"/>
      <point x="23.0791" y="381.576"/>
      <point x="40.9912" y="410.189"/>
      <point x="64.2295" y="437.021" type="curve" smooth="yes"/>
      <point x="110.706" y="490.688"/>
      <point x="178.84" y="537.199"/>
      <point x="234.667" y="560.068" type="curve" smooth="yes"/>
      <point x="255.604" y="568.646"/>
      <point x="274.592" y="574.399"/>
    </contour>
    <contour>
      <point x="100.304" y="94.5469" type="curve" smooth="yes"/>
      <point x="131.738" y="94.5469"/>
      <point x="157.446" y="68.8398"/>
      <point x="157.446" y="37.4053" type="curve" smooth="yes"/>
      <point x="157.446" y="5.97559"/>
      <point x="131.738" y="-20"/>
      <point x="100.304" y="-20" type="curve" smooth="yes"/>
      <point x="68.874" y="-20"/>
      <point x="43.167" y="5.97559"/>
      <point x="43.167" y="37.4053" type="curve" smooth="yes"/>
      <point x="43.167" y="68.8398"/>
      <point x="68.874" y="94.5469"/>
    </contour>
    <contour>
      <point x="100.304" y="66.5098" type="curve" smooth="yes"/>
      <point x="84.0713" y="66.5098"/>
      <point x="71.2041" y="53.6387"/>
      <point x="71.2041" y="37.4053" type="curve" smooth="yes"/>
      <point x="71.2041" y="21.1719"/>
      <point x="84.0713" y="8.30469"/>
      <point x="100.304" y="8.30469" type="curve" smooth="yes"/>
      <point x="116.542" y="8.30469"/>
      <point x="129.409" y="21.1719"/>
      <point x="129.409" y="37.4053" type="curve" smooth="yes"/>
      <point x="129.409" y="53.6387"/>
      <point x="116.542" y="66.5098"/>
    </contour>
  </outline>
</glyph>
<glyph name="at" format="1">
  <advance width="564"/>
  <unicode hex="0040"/>
  <outline>
    <contour>
      <point x="424.021" y="620.719" type="curve" smooth="yes"/>
      <point x="443.248" y="621.185"/>
      <point x="460.229" y="618.79"/>
      <point x="475.209" y="613.547" type="curve" smooth="yes"/>
      <point x="505.171" y="603.058"/>
      <point x="525.854" y="580.776"/>
      <point x="537.365" y="552.938" type="curve" smooth="yes"/>
      <point x="560.393" y="497.25"/>
      <point x="551.99" y="419.532"/>
      <point x="533.146" y="339.328" type="curve" smooth="yes"/>
      <point x="495.463" y="178.915"/>
      <point x="411.787" y="8.01562"/>
      <point x="411.787" y="8.01562" type="curve" smooth="no"/>
      <point x="407.85" y="0" type="line" smooth="no"/>
      <point x="309.975" y="0" type="line" smooth="no"/>
      <point x="340.068" y="194.906" type="line" smooth="no"/>
      <point x="321.158" y="151.159"/>
      <point x="303.018" y="114.315"/>
      <point x="286.068" y="85.2188" type="curve" smooth="yes"/>
      <point x="256.959" y="35.2441"/>
      <point x="231.273" y="5.12793"/>
      <point x="206.334" y="-9.5625" type="curve" smooth="yes"/>
      <point x="193.867" y="-16.9102"/>
      <point x="181.057" y="-20.2451"/>
      <point x="168.787" y="-18.5625" type="curve" smooth="yes"/>
      <point x="156.518" y="-16.8838"/>
      <point x="145.869" y="-10.0898"/>
      <point x="137.99" y="-0.703125" type="curve" smooth="yes"/>
      <point x="122.24" y="18.0615"/>
      <point x="114.801" y="46.3662"/>
      <point x="112.396" y="80.5781" type="curve" smooth="yes"/>
      <point x="107.594" y="148.992"/>
      <point x="124.921" y="242.288"/>
      <point x="170.053" y="325.266" type="curve" smooth="yes"/>
      <point x="215.185" y="408.243"/>
      <point x="289.193" y="480.999"/>
      <point x="396.6" y="503.016" type="curve" smooth="yes"/>
      <point x="410.381" y="505.828" type="line" smooth="no"/>
      <point x="416.006" y="478.266" type="line" smooth="no"/>
      <point x="411.787" y="477.422" type="line" smooth="no"/>
      <point x="342.74" y="28.125" type="line" smooth="no"/>
      <point x="390.131" y="28.125" type="line" smooth="no"/>
      <point x="400.054" y="48.832"/>
      <point x="471.637" y="200.685"/>
      <point x="505.725" y="345.797" type="curve" smooth="yes"/>
      <point x="524.01" y="423.638"/>
      <point x="529.675" y="497.795"/>
      <point x="511.35" y="542.109" type="curve" smooth="yes"/>
      <point x="502.191" y="564.263"/>
      <point x="488.389" y="579.106"/>
      <point x="465.928" y="586.969" type="curve" smooth="yes"/>
      <point x="443.467" y="594.831"/>
      <point x="411.221" y="595.218"/>
      <point x="366.787" y="583.312" type="curve" smooth="yes"/>
      <point x="188.826" y="535.628"/>
      <point x="107.8" y="376.005"/>
      <point x="70.6309" y="225.141" type="curve" smooth="yes"/>
      <point x="33.4668" y="74.2725"/>
      <point x="41.5215" y="-64.8281"/>
      <point x="41.5215" y="-64.8281" type="curve" smooth="no"/>
      <point x="42.3652" y="-78.8906" type="line" smooth="no"/>
      <point x="14.3809" y="-80.5781" type="line" smooth="no"/>
      <point x="13.5371" y="-66.5156" type="line" smooth="no"/>
      <point x="13.5371" y="-66.5156"/>
      <point x="4.85742" y="76.1963"/>
      <point x="43.209" y="231.891" type="curve" smooth="yes"/>
      <point x="81.5645" y="387.58"/>
      <point x="168.404" y="559.253"/>
      <point x="359.475" y="610.453" type="curve" smooth="yes"/>
      <point x="383.39" y="616.86"/>
      <point x="404.8" y="620.249"/>
    </contour>
    <contour>
      <point x="382.115" y="469.969" type="line" smooth="no"/>
      <point x="295.17" y="445.412"/>
      <point x="234.099" y="384.012"/>
      <point x="194.803" y="311.766" type="curve" smooth="yes"/>
      <point x="152.492" y="233.974"/>
      <point x="136.043" y="144.294"/>
      <point x="140.381" y="82.5469" type="curve" smooth="yes"/>
      <point x="142.552" y="51.6709"/>
      <point x="150.545" y="28.1123"/>
      <point x="159.506" y="17.4375" type="curve" smooth="yes"/>
      <point x="163.988" y="12.0986"/>
      <point x="167.965" y="9.91406"/>
      <point x="172.584" y="9.28125" type="curve" smooth="yes"/>
      <point x="177.207" y="8.64844"/>
      <point x="183.509" y="9.68066"/>
      <point x="192.131" y="14.7656" type="curve" smooth="yes"/>
      <point x="209.379" y="24.9258"/>
      <point x="233.87" y="51.5791"/>
      <point x="261.74" y="99.4219" type="curve" smooth="yes"/>
      <point x="289.475" y="147.028"/>
      <point x="320.952" y="215.478"/>
      <point x="355.115" y="308.953" type="curve" smooth="no"/>
    </contour>
  </outline>
</glyph>
<glyph name="A" format="1">
  <advance width="327"/>
  <unicode hex="0041"/>
  <outline>
    <contour>
      <point x="286.125" y="424.266" type="line" smooth="no"/>
      <point x="143.953" y="178.172" type="line" smooth="no"/>
      <point x="286.125" y="178.172" type="line" smooth="no"/>
    </contour>
    <contour>
      <point x="292.031" y="490.781" type="line" smooth="no"/>
      <point x="314.25" y="490.781" type="line" smooth="no"/>
      <point x="314.25" y="0" type="line" smooth="no"/>
      <point x="286.125" y="0" type="line" smooth="no"/>
      <point x="286.125" y="150.047" type="line" smooth="no"/>
      <point x="127.781" y="150.047" type="line" smooth="no"/>
      <point x="37.0781" y="-7.03125" type="line" smooth="no"/>
      <point x="12.75" y="7.03125" type="line" smooth="no"/>
    </contour>
  </outline>
</glyph>
<glyph name="B" format="1">
  <advance width="361"/>
  <unicode hex="0042"/>
  <outline>
    <contour>
      <point x="195.731" y="476.438" type="curve" smooth="no"/>
      <point x="51.4502" y="29.5312" type="line" smooth="no"/>
      <point x="175.072" y="36.584"/>
      <point x="262.84" y="106.678"/>
      <point x="289.247" y="161.156" type="curve" smooth="yes"/>
      <point x="296.203" y="175.509"/>
      <point x="298.752" y="188.376"/>
      <point x="297.825" y="197.859" type="curve" smooth="yes"/>
      <point x="296.898" y="207.348"/>
      <point x="293.479" y="213.412"/>
      <point x="285.731" y="218.391" type="curve" smooth="yes"/>
      <point x="270.232" y="228.349"/>
      <point x="230.94" y="230.818"/>
      <point x="165.216" y="205.875" type="curve" smooth="no"/>
      <point x="153.263" y="231.188" type="line" smooth="no"/>
      <point x="247.143" y="284.656"/>
      <point x="309.104" y="352.749"/>
      <point x="319.06" y="398.953" type="curve" smooth="yes"/>
      <point x="324.039" y="422.06"/>
      <point x="319.068" y="438.24"/>
      <point x="299.372" y="452.391" type="curve" smooth="yes"/>
      <point x="280.968" y="465.613"/>
      <point x="246.598" y="475.198"/>
    </contour>
    <contour>
      <point x="175.341" y="504.984" type="line" smooth="no"/>
      <point x="185.466" y="504.984" type="line" smooth="yes"/>
      <point x="245.768" y="504.984"/>
      <point x="288.166" y="494.943"/>
      <point x="315.685" y="475.172" type="curve" smooth="yes"/>
      <point x="343.203" y="455.405"/>
      <point x="353.209" y="424.129"/>
      <point x="346.481" y="392.906" type="curve" smooth="yes"/>
      <point x="336.58" y="346.961"/>
      <point x="296.924" y="298.125"/>
      <point x="237.778" y="253.266" type="curve" smooth="no"/>
      <point x="264.203" y="255.727"/>
      <point x="285.274" y="252.211"/>
      <point x="300.919" y="242.156" type="curve" smooth="yes"/>
      <point x="315.584" y="232.734"/>
      <point x="324.192" y="217.204"/>
      <point x="325.81" y="200.672" type="curve" smooth="yes"/>
      <point x="327.427" y="184.145"/>
      <point x="323.129" y="166.602"/>
      <point x="314.56" y="148.922" type="curve" smooth="yes"/>
      <point x="280.287" y="78.2139"/>
      <point x="176.343" y="0"/>
      <point x="31.7627" y="0" type="curve" smooth="yes"/>
      <point x="12.4971" y="0" type="line" smooth="no"/>
    </contour>
  </outline>
</glyph>
<glyph name="C" format="1">
  <advance width="246"/>
  <unicode hex="0043"/>
  <outline>
    <contour>
      <point x="226.721" y="495.422" type="curve" smooth="no"/>
      <point x="233.61" y="468.141" type="line" smooth="no"/>
      <point x="177.998" y="454.052"/>
      <point x="131.979" y="409.188"/>
      <point x="98.751" y="351.422" type="curve" smooth="yes"/>
      <point x="65.5234" y="293.66"/>
      <point x="45.5947" y="223.51"/>
      <point x="41.376" y="163.125" type="curve" smooth="yes"/>
      <point x="37.1572" y="102.744"/>
      <point x="50.1172" y="53.499"/>
      <point x="73.0166" y="35.1562" type="curve" smooth="yes"/>
      <point x="84.4648" y="25.9893"/>
      <point x="98.2188" y="22.4648"/>
      <point x="119.001" y="27.4219" type="curve" smooth="yes"/>
      <point x="139.783" y="32.3828"/>
      <point x="166.929" y="46.9023"/>
      <point x="199.579" y="74.5312" type="curve" smooth="no"/>
      <point x="217.721" y="53.0156" type="line" smooth="no"/>
      <point x="182.964" y="23.6074"/>
      <point x="152.693" y="6.5"/>
      <point x="125.471" y="0" type="curve" smooth="yes"/>
      <point x="98.2461" y="-6.49512"/>
      <point x="73.5664" y="-1.29688"/>
      <point x="55.4385" y="13.2188" type="curve" smooth="yes"/>
      <point x="19.1875" y="42.2578"/>
      <point x="8.85645" y="100.146"/>
      <point x="13.3916" y="165.094" type="curve" smooth="yes"/>
      <point x="17.9268" y="230.045"/>
      <point x="38.748" y="303.465"/>
      <point x="74.4229" y="365.484" type="curve" smooth="yes"/>
      <point x="110.099" y="427.509"/>
      <point x="161.035" y="478.779"/>
    </contour>
  </outline>
</glyph>
<glyph name="D" format="1">
  <advance width="330"/>
  <unicode hex="0044"/>
  <outline>
    <contour>
      <point x="190.219" y="499.016" type="curve" smooth="yes"/>
      <point x="206.61" y="499.916"/>
      <point x="221.367" y="498.748"/>
      <point x="234.797" y="495.5" type="curve" smooth="yes"/>
      <point x="261.661" y="489.014"/>
      <point x="282.513" y="473.883"/>
      <point x="295.969" y="453.453" type="curve" smooth="yes"/>
      <point x="322.881" y="412.602"/>
      <point x="322.274" y="353.75"/>
      <point x="306.094" y="292.016" type="curve" smooth="yes"/>
      <point x="289.917" y="230.285"/>
      <point x="257.327" y="164.891"/>
      <point x="214.547" y="110.609" type="curve" smooth="yes"/>
      <point x="171.767" y="56.332"/>
      <point x="118.737" y="12.8662"/>
      <point x="60" y="-2.875" type="curve" smooth="no"/>
      <point x="52.6875" y="24.2656" type="line" smooth="no"/>
      <point x="102.825" y="37.7041"/>
      <point x="152.215" y="76.9736"/>
      <point x="192.469" y="128.047" type="curve" smooth="yes"/>
      <point x="232.723" y="179.125"/>
      <point x="263.757" y="241.746"/>
      <point x="278.812" y="299.188" type="curve" smooth="yes"/>
      <point x="293.868" y="356.633"/>
      <point x="292.102" y="408.207"/>
      <point x="272.484" y="437.984" type="curve" smooth="yes"/>
      <point x="262.676" y="452.877"/>
      <point x="248.899" y="463.077"/>
      <point x="228.188" y="468.078" type="curve" smooth="yes"/>
      <point x="209.067" y="472.697"/>
      <point x="183.509" y="472.09"/>
      <point x="151.406" y="464.422" type="curve" smooth="no"/>
      <point x="39.8906" y="7.39062" type="line" smooth="no"/>
      <point x="12.6094" y="14" type="line" smooth="no"/>
      <point x="128.203" y="487.766" type="line" smooth="no"/>
      <point x="136.219" y="489.875" type="line" smooth="yes"/>
      <point x="155.778" y="495.117"/>
      <point x="173.827" y="498.119"/>
    </contour>
  </outline>
</glyph>
<glyph name="F" format="1">
  <advance width="317"/>
  <unicode hex="0046"/>
  <outline>
    <contour>
      <point x="12.4697" y="0" type="line" smooth="no"/>
      <point x="146.046" y="498.078" type="line" smooth="no"/>
      <point x="304.53" y="498.078" type="line" smooth="no"/>
      <point x="304.53" y="469.953" type="line" smooth="no"/>
      <point x="167.557" y="469.953" type="line" smooth="no"/>
      <point x="104.14" y="233.141" type="line" smooth="no"/>
      <point x="199.905" y="233.141" type="line" smooth="no"/>
      <point x="199.905" y="205.016" type="line" smooth="no"/>
      <point x="96.5459" y="205.016" type="line" smooth="no"/>
      <point x="41.666" y="0" type="line" smooth="no"/>
    </contour>
  </outline>
</glyph>
<glyph name="G" format="1">
  <advance width="296"/>
  <unicode hex="0047"/>
  <outline>
    <contour>
      <point x="269.502" y="503.156" type="curve" smooth="yes"/>
      <point x="283.564" y="503.156" type="line" smooth="no"/>
      <point x="283.564" y="475.031" type="line" smooth="no"/>
      <point x="269.502" y="475.031" type="line" smooth="yes"/>
      <point x="203.269" y="475.031"/>
      <point x="151.398" y="436.737"/>
      <point x="112.847" y="380.25" type="curve" smooth="yes"/>
      <point x="74.292" y="323.768"/>
      <point x="50.4873" y="249.535"/>
      <point x="43.2363" y="183.375" type="curve" smooth="yes"/>
      <point x="35.9854" y="117.22"/>
      <point x="46.9805" y="59.6602"/>
      <point x="67.7051" y="37.8281" type="curve" smooth="yes"/>
      <point x="78.0674" y="26.916"/>
      <point x="89.1328" y="22.8652"/>
      <point x="107.222" y="27.2812" type="curve" smooth="yes"/>
      <point x="124.627" y="31.5352"/>
      <point x="148.406" y="45.8398"/>
      <point x="176.83" y="73.5469" type="curve" smooth="no"/>
      <point x="199.472" y="213.188" type="line" smooth="no"/>
      <point x="90.627" y="213.188" type="line" smooth="no"/>
      <point x="90.627" y="241.312" type="line" smooth="no"/>
      <point x="232.658" y="241.312" type="line" smooth="no"/>
      <point x="203.127" y="59.9062" type="line" smooth="no"/>
      <point x="200.033" y="56.6719" type="line" smooth="yes"/>
      <point x="168.011" y="24.6484"/>
      <point x="139.842" y="6.35449"/>
      <point x="113.83" y="0" type="curve" smooth="yes"/>
      <point x="87.8184" y="-6.34961"/>
      <point x="63.5303" y="1.34473"/>
      <point x="47.3145" y="18.4219" type="curve" smooth="yes"/>
      <point x="14.8828" y="52.585"/>
      <point x="7.53027" y="116.033"/>
      <point x="15.252" y="186.469" type="curve" smooth="yes"/>
      <point x="22.9727" y="256.904"/>
      <point x="47.5605" y="334.696"/>
      <point x="89.502" y="396.141" type="curve" smooth="yes"/>
      <point x="131.443" y="457.59"/>
      <point x="192.316" y="503.156"/>
    </contour>
  </outline>
</glyph>
<glyph name="H" format="1">
  <advance width="367"/>
  <unicode hex="0048"/>
  <outline>
    <contour>
      <point x="192.45" y="0" type="line" smooth="no"/>
      <point x="247.954" y="207.016" type="line" smooth="no"/>
      <point x="97.0635" y="207.016" type="line" smooth="no"/>
      <point x="41.6875" y="0" type="line" smooth="no"/>
      <point x="12.4512" y="0" type="line" smooth="no"/>
      <point x="147.407" y="503.172" type="line" smooth="no"/>
      <point x="174.549" y="496" type="line" smooth="no"/>
      <point x="104.657" y="235.141" type="line" smooth="no"/>
      <point x="255.549" y="235.141" type="line" smooth="no"/>
      <point x="327.402" y="503.172" type="line" smooth="no"/>
      <point x="354.549" y="496" type="line" smooth="no"/>
      <point x="221.691" y="0" type="line" smooth="no"/>
    </contour>
  </outline>
</glyph>
<glyph name="I" format="1">
  <advance width="187"/>
  <unicode hex="0049"/>
  <outline>
    <contour>
      <point x="12.4512" y="0" type="line" smooth="no"/>
      <point x="147.267" y="503.172" type="line" smooth="no"/>
      <point x="174.549" y="496" type="line" smooth="no"/>
      <point x="41.5527" y="0" type="line" smooth="no"/>
    </contour>
  </outline>
</glyph>
<glyph name="J" format="1">
  <advance width="335"/>
  <unicode hex="004a"/>
  <outline>
    <contour>
      <point x="195.283" y="498.172" type="line" smooth="no"/>
      <point x="322.408" y="498.172" type="line" smooth="no"/>
      <point x="197.622" y="-4" type="line" smooth="no"/>
      <point x="189.658" y="-6.25" type="line" smooth="yes"/>
      <point x="150.289" y="-16.7969"/>
      <point x="117.598" y="-17.7109"/>
      <point x="90.9404" y="-9.90625" type="curve" smooth="yes"/>
      <point x="64.2832" y="-2.09766"/>
      <point x="44.1738" y="14.8926"/>
      <point x="31.5967" y="36.7812" type="curve" smooth="yes"/>
      <point x="6.44727" y="80.5684"/>
      <point x="8.45117" y="141.965"/>
      <point x="24.8467" y="203.844" type="curve" smooth="yes"/>
      <point x="28.5029" y="217.484" type="line" smooth="no"/>
      <point x="55.6436" y="210.172" type="line" smooth="no"/>
      <point x="51.9873" y="196.672" type="line" smooth="yes"/>
      <point x="36.6943" y="138.945"/>
      <point x="37.1992" y="83.6934"/>
      <point x="56.0654" y="50.8438" type="curve" smooth="yes"/>
      <point x="65.5" y="34.4219"/>
      <point x="78.7285" y="22.9785"/>
      <point x="98.8154" y="17.0938" type="curve" smooth="yes"/>
      <point x="117.348" y="11.666"/>
      <point x="142.491" y="11.6621"/>
      <point x="174.472" y="19.2031" type="curve" smooth="no"/>
      <point x="286.408" y="470.047" type="line" smooth="no"/>
      <point x="195.283" y="470.047" type="line" smooth="no"/>
    </contour>
  </outline>
</glyph>
<glyph name="K" format="1">
  <advance width="375"/>
  <unicode hex="004b"/>
  <outline>
    <contour>
      <point x="340.268" y="505.703" type="line" smooth="no"/>
      <point x="362.627" y="488.688" type="line" smooth="no"/>
      <point x="144.096" y="201.953" type="line" smooth="no"/>
      <point x="276.846" y="5.35938" type="line" smooth="no"/>
      <point x="253.643" y="-10.25" type="line" smooth="no"/>
      <point x="109.643" y="203.078" type="line" smooth="no"/>
    </contour>
    <contour>
      <point x="12.373" y="0" type="line" smooth="no"/>
      <point x="147.33" y="503.172" type="line" smooth="no"/>
      <point x="174.471" y="496" type="line" smooth="no"/>
      <point x="41.6133" y="0" type="line" smooth="no"/>
    </contour>
  </outline>
</glyph>
<glyph name="L" format="1">
  <advance width="252"/>
  <unicode hex="004c"/>
  <outline>
    <contour>
      <point x="148.641" y="508.078" type="line" smooth="no"/>
      <point x="175.922" y="500.906" type="line" smooth="no"/>
      <point x="49.1396" y="28.125" type="line" smooth="no"/>
      <point x="239.484" y="28.125" type="line" smooth="no"/>
      <point x="239.484" y="0" type="line" smooth="no"/>
      <point x="12.5156" y="0" type="line" smooth="no"/>
    </contour>
  </outline>
</glyph>
<glyph name="M" format="1">
  <advance width="427"/>
  <unicode hex="004d"/>
  <outline>
    <contour>
      <point x="12.709" y="0" type="line" smooth="no"/>
      <point x="144.01" y="489.672" type="line" smooth="no"/>
      <point x="171.15" y="489.391" type="line" smooth="no"/>
      <point x="229.369" y="251.312" type="line" smooth="no"/>
      <point x="388.838" y="493.75" type="line" smooth="no"/>
      <point x="414.291" y="482.781" type="line" smooth="no"/>
      <point x="299.822" y="-7.71875" type="line" smooth="no"/>
      <point x="272.4" y="-1.25" type="line" smooth="no"/>
      <point x="369.01" y="412.328" type="line" smooth="no"/>
      <point x="237.266" y="211.094" type="line" smooth="no"/>
      <point x="209.682" y="211.094" type="line" smooth="no"/>
      <point x="156.947" y="429.203" type="line" smooth="no"/>
      <point x="41.9492" y="0" type="line" smooth="no"/>
    </contour>
  </outline>
</glyph>
<glyph name="N" format="1">
  <advance width="387"/>
  <unicode hex="004e"/>
  <outline>
    <contour>
      <point x="12.2939" y="0" type="line" smooth="no"/>
      <point x="141.973" y="483.625" type="line" smooth="no"/>
      <point x="169.395" y="482.078" type="line" smooth="no"/>
      <point x="233.238" y="71.0312" type="line" smooth="no"/>
      <point x="347.426" y="497.125" type="line" smooth="no"/>
      <point x="374.706" y="489.953" type="line" smooth="no"/>
      <point x="243.223" y="-0.40625" type="line" smooth="no"/>
      <point x="215.801" y="1" type="line" smooth="no"/>
      <point x="151.956" y="412.188" type="line" smooth="no"/>
      <point x="41.5322" y="0" type="line" smooth="no"/>
    </contour>
  </outline>
</glyph>
<glyph name="O" format="1">
  <advance width="310"/>
  <unicode hex="004f"/>
  <outline>
    <contour>
      <point x="215.558" y="474.812" type="curve" smooth="yes"/>
      <point x="192.776" y="480.973"/>
      <point x="162.704" y="466.516"/>
      <point x="132.772" y="431.068" type="curve" smooth="yes"/>
      <point x="102.843" y="395.627"/>
      <point x="74.9326" y="341.188"/>
      <point x="57.6572" y="277.33" type="curve" smooth="yes"/>
      <point x="40.3779" y="213.474"/>
      <point x="37.0342" y="152.359"/>
      <point x="45.0059" y="106.66" type="curve" smooth="yes"/>
      <point x="52.9814" y="60.9609"/>
      <point x="71.6631" y="33.3379"/>
      <point x="94.4443" y="27.1719" type="curve" smooth="yes"/>
      <point x="117.222" y="21.0107"/>
      <point x="147.298" y="35.4727"/>
      <point x="177.224" y="70.915" type="curve" smooth="yes"/>
      <point x="207.155" y="106.357"/>
      <point x="235.064" y="160.792"/>
      <point x="252.345" y="224.645" type="curve" smooth="yes"/>
      <point x="269.619" y="288.502"/>
      <point x="272.968" y="349.599"/>
      <point x="264.991" y="395.297" type="curve" smooth="yes"/>
      <point x="257.016" y="440.996"/>
      <point x="238.335" y="468.646"/>
    </contour>
    <contour>
      <point x="222.909" y="501.957" type="curve" smooth="yes"/>
      <point x="261.393" y="491.547"/>
      <point x="283.831" y="451.213"/>
      <point x="292.752" y="400.113" type="curve" smooth="yes"/>
      <point x="301.669" y="349.01"/>
      <point x="297.718" y="284.586"/>
      <point x="279.516" y="217.301" type="curve" smooth="yes"/>
      <point x="261.31" y="150.021"/>
      <point x="232.239" y="92.3955"/>
      <point x="198.771" y="52.7617" type="curve" smooth="yes"/>
      <point x="165.302" y="13.127"/>
      <point x="125.575" y="-10.4102"/>
      <point x="87.0928" y="0" type="curve" smooth="yes"/>
      <point x="48.6094" y="10.416"/>
      <point x="26.167" y="50.7705"/>
      <point x="17.25" y="101.875" type="curve" smooth="yes"/>
      <point x="8.3291" y="152.975"/>
      <point x="12.2803" y="217.398"/>
      <point x="30.4863" y="284.683" type="curve" smooth="yes"/>
      <point x="48.6885" y="351.963"/>
      <point x="77.7627" y="409.588"/>
      <point x="111.23" y="449.223" type="curve" smooth="yes"/>
      <point x="144.7" y="488.857"/>
      <point x="184.427" y="512.367"/>
    </contour>
  </outline>
</glyph>
<glyph name="P" format="1">
  <advance width="353"/>
  <unicode hex="0050"/>
  <outline>
    <contour>
      <point x="155.639" y="498.719" type="line" smooth="no"/>
      <point x="166.186" y="498.719" type="line" smooth="yes"/>
      <point x="232.529" y="498.719"/>
      <point x="279.635" y="481.109"/>
      <point x="308.357" y="452.172" type="curve" smooth="yes"/>
      <point x="337.08" y="423.238"/>
      <point x="345.82" y="383.66"/>
      <point x="337.748" y="345.859" type="curve" smooth="yes"/>
      <point x="321.611" y="270.26"/>
      <point x="241.75" y="198.766"/>
      <point x="127.092" y="198.766" type="curve" smooth="no"/>
      <point x="127.092" y="226.891" type="line" smooth="no"/>
      <point x="230.033" y="226.891"/>
      <point x="297.305" y="291.42"/>
      <point x="310.186" y="351.766" type="curve" smooth="yes"/>
      <point x="316.628" y="381.938"/>
      <point x="310.27" y="410.301"/>
      <point x="288.389" y="432.344" type="curve" smooth="yes"/>
      <point x="267.866" y="453.02"/>
      <point x="231.555" y="468.031"/>
      <point x="176.592" y="469.891" type="curve" smooth="no"/>
      <point x="41.5273" y="0" type="line" smooth="no"/>
      <point x="12.3867" y="0" type="line" smooth="no"/>
    </contour>
  </outline>
</glyph>
<glyph name="Q" format="1">
  <advance width="310"/>
  <unicode hex="0051"/>
  <outline>
    <contour>
      <point x="202.601" y="476.578" type="curve" smooth="yes"/>
      <point x="181.973" y="475.541"/>
      <point x="157.402" y="460.498"/>
      <point x="132.851" y="431.424" type="curve" smooth="yes"/>
      <point x="102.924" y="395.982"/>
      <point x="75.0361" y="341.543"/>
      <point x="57.7568" y="277.686" type="curve" smooth="yes"/>
      <point x="40.4824" y="213.829"/>
      <point x="37.125" y="152.715"/>
      <point x="45.1006" y="107.016" type="curve" smooth="yes"/>
      <point x="53.0762" y="61.3164"/>
      <point x="71.6836" y="33.6934"/>
      <point x="94.46" y="27.5273" type="curve" smooth="yes"/>
      <point x="117.241" y="21.3662"/>
      <point x="147.361" y="35.8281"/>
      <point x="177.288" y="71.2705" type="curve" smooth="yes"/>
      <point x="207.219" y="106.713"/>
      <point x="235.107" y="161.143"/>
      <point x="252.382" y="225" type="curve" smooth="yes"/>
      <point x="269.661" y="288.857"/>
      <point x="273.014" y="349.954"/>
      <point x="265.038" y="395.652" type="curve" smooth="yes"/>
      <point x="257.062" y="441.352"/>
      <point x="238.455" y="469.006"/>
      <point x="215.679" y="475.168" type="curve" smooth="yes"/>
      <point x="212.831" y="475.941"/>
      <point x="209.742" y="476.455"/>
      <point x="206.679" y="476.578" type="curve" smooth="yes"/>
      <point x="205.338" y="476.635"/>
      <point x="203.977" y="476.578"/>
    </contour>
    <contour>
      <point x="201.194" y="504.703" type="curve" smooth="yes"/>
      <point x="208.449" y="505.02"/>
      <point x="215.775" y="504.264"/>
      <point x="222.991" y="502.312" type="curve" smooth="yes"/>
      <point x="261.475" y="491.902"/>
      <point x="283.824" y="451.573"/>
      <point x="292.741" y="400.469" type="curve" smooth="yes"/>
      <point x="301.662" y="349.369"/>
      <point x="297.729" y="284.941"/>
      <point x="279.522" y="217.656" type="curve" smooth="yes"/>
      <point x="261.32" y="150.377"/>
      <point x="232.272" y="92.751"/>
      <point x="198.804" y="53.1172" type="curve" smooth="yes"/>
      <point x="170.872" y="20.0391"/>
      <point x="138.563" y="-1.69141"/>
      <point x="106.272" y="-1.96875" type="curve" smooth="yes"/>
      <point x="88.4131" y="-2.10938" type="line" smooth="no"/>
      <point x="238.882" y="-91.2656" type="line" smooth="no"/>
      <point x="224.257" y="-115.172" type="line" smooth="no"/>
      <point x="35.3975" y="0" type="line" smooth="no"/>
      <point x="42.71" y="26.0156" type="line" smooth="no"/>
      <point x="48.6162" y="26.0156" type="line" smooth="no"/>
      <point x="32.959" y="44.7979"/>
      <point x="22.6133" y="71.5391"/>
      <point x="17.2568" y="102.23" type="curve" smooth="yes"/>
      <point x="8.33984" y="153.334"/>
      <point x="12.2734" y="217.758"/>
      <point x="30.4756" y="285.038" type="curve" smooth="yes"/>
      <point x="48.6816" y="352.322"/>
      <point x="77.8662" y="409.943"/>
      <point x="111.335" y="449.578" type="curve" smooth="yes"/>
      <point x="138.528" y="481.781"/>
      <point x="169.765" y="503.332"/>
    </contour>
  </outline>
</glyph>
<glyph name="R" format="1">
  <advance width="351"/>
  <unicode hex="0052"/>
  <outline>
    <contour>
      <point x="173.66" y="472.391" type="curve" smooth="no"/>
      <point x="105.738" y="229.391" type="line" smooth="no"/>
      <point x="126.41" y="229.391" type="line" smooth="yes"/>
      <point x="229.353" y="229.391"/>
      <point x="296.004" y="293.678"/>
      <point x="308.379" y="353.984" type="curve" smooth="yes"/>
      <point x="314.565" y="384.14"/>
      <point x="307.983" y="412.616"/>
      <point x="285.879" y="434.703" type="curve" smooth="yes"/>
      <point x="265.146" y="455.419"/>
      <point x="228.64" y="470.531"/>
    </contour>
    <contour>
      <point x="12.4443" y="0" type="line" smooth="no"/>
      <point x="152.566" y="501.219" type="line" smooth="no"/>
      <point x="163.254" y="501.219" type="line" smooth="yes"/>
      <point x="229.599" y="501.219"/>
      <point x="275.9" y="481.167"/>
      <point x="303.348" y="457.672" type="curve" smooth="no"/>
      <point x="336.769" y="428.777"/>
      <point x="343.702" y="386.179"/>
      <point x="335.94" y="348.359" type="curve" smooth="yes"/>
      <point x="321.515" y="278.047"/>
      <point x="251.456" y="212.006"/>
      <point x="149.613" y="202.953" type="curve" smooth="no"/>
      <point x="263.94" y="5.23438" type="line" smooth="no"/>
      <point x="239.473" y="-8.82812" type="line" smooth="no"/>
      <point x="104.473" y="225.031" type="line" smooth="no"/>
      <point x="41.4639" y="0" type="line" smooth="no"/>
    </contour>
  </outline>
</glyph>
<glyph name="S" format="1">
  <advance width="308"/>
  <unicode hex="0053"/>
  <outline>
    <contour>
      <point x="281.195" y="504.703" type="curve" smooth="yes"/>
      <point x="295.258" y="504.703" type="line" smooth="no"/>
      <point x="295.258" y="476.578" type="line" smooth="no"/>
      <point x="281.195" y="476.578" type="line" smooth="yes"/>
      <point x="229.656" y="476.578"/>
      <point x="195.458" y="468.993"/>
      <point x="174.742" y="457.734" type="curve" smooth="yes"/>
      <point x="154.03" y="446.476"/>
      <point x="145.804" y="432.822"/>
      <point x="142.82" y="414" type="curve" smooth="yes"/>
      <point x="136.853" y="376.361"/>
      <point x="159.933" y="317.364"/>
      <point x="183.905" y="257.625" type="curve" smooth="yes"/>
      <point x="207.877" y="197.886"/>
      <point x="233.062" y="136.696"/>
      <point x="218.195" y="84.6562" type="curve" smooth="yes"/>
      <point x="210.765" y="58.6367"/>
      <point x="191.793" y="36.1582"/>
      <point x="160.68" y="21.7969" type="curve" smooth="yes"/>
      <point x="129.566" y="7.43555"/>
      <point x="86.5352" y="0"/>
      <point x="26.8047" y="0" type="curve" smooth="yes"/>
      <point x="12.7422" y="0" type="line" smooth="no"/>
      <point x="12.7422" y="28.125" type="line" smooth="no"/>
      <point x="26.8047" y="28.125" type="line" smooth="yes"/>
      <point x="84.1494" y="28.125"/>
      <point x="123.66" y="35.6924"/>
      <point x="149.008" y="47.3906" type="curve" smooth="yes"/>
      <point x="174.355" y="59.0889"/>
      <point x="185.729" y="73.7402"/>
      <point x="191.055" y="92.3906" type="curve" smooth="yes"/>
      <point x="201.712" y="129.691"/>
      <point x="181.839" y="187.699"/>
      <point x="158.008" y="247.078" type="curve" smooth="yes"/>
      <point x="134.177" y="306.461"/>
      <point x="106.78" y="366.662"/>
      <point x="114.977" y="418.359" type="curve" smooth="yes"/>
      <point x="119.077" y="444.208"/>
      <point x="134.154" y="467.684"/>
      <point x="161.383" y="482.484" type="curve" smooth="yes"/>
      <point x="188.616" y="497.285"/>
      <point x="227.015" y="504.703"/>
    </contour>
  </outline>
</glyph>
<glyph name="T" format="1">
  <advance width="284"/>
  <unicode hex="0054"/>
  <outline>
    <contour>
      <point x="12.7109" y="0" type="line" smooth="no"/>
      <point x="138.961" y="470.953" type="line" smooth="no"/>
      <point x="54.1641" y="470.953" type="line" smooth="no"/>
      <point x="54.1641" y="499.078" type="line" smooth="no"/>
      <point x="271.289" y="499.078" type="line" smooth="no"/>
      <point x="271.289" y="470.953" type="line" smooth="no"/>
      <point x="168.07" y="470.953" type="line" smooth="no"/>
      <point x="41.8105" y="0" type="line" smooth="no"/>
    </contour>
  </outline>
</glyph>
<glyph name="V" format="1">
  <advance width="277"/>
  <unicode hex="0056"/>
  <outline>
    <contour>
      <point x="238.836" y="504.562" type="line" smooth="no"/>
      <point x="264.43" y="492.75" type="line" smooth="no"/>
      <point x="46.4297" y="1" type="line" smooth="no"/>
      <point x="12.5703" y="1" type="line" smooth="no"/>
      <point x="12.5703" y="499.922" type="line" smooth="no"/>
      <point x="40.6953" y="499.922" type="line" smooth="no"/>
      <point x="40.6953" y="73.125" type="line" smooth="no"/>
    </contour>
  </outline>
</glyph>
<glyph name="W" format="1">
  <advance width="394"/>
  <unicode hex="0057"/>
  <outline>
    <contour>
      <point x="237.336" y="504.562" type="line" smooth="no"/>
      <point x="262.93" y="492.75" type="line" smooth="no"/>
      <point x="159.195" y="258.753" type="line" smooth="no"/>
      <point x="159.195" y="73.125" type="line" smooth="no"/>
      <point x="357.336" y="504.562" type="line" smooth="no"/>
      <point x="382.93" y="492.75" type="line" smooth="no"/>
      <point x="164.93" y="1" type="line" smooth="no"/>
      <point x="131.07" y="1" type="line" smooth="no"/>
      <point x="131.07" y="195.311" type="line" smooth="no"/>
      <point x="44.9297" y="1" type="line" smooth="no"/>
      <point x="11.0703" y="1" type="line" smooth="no"/>
      <point x="11.0703" y="499.922" type="line" smooth="no"/>
      <point x="39.1953" y="499.922" type="line" smooth="no"/>
      <point x="39.1953" y="73.125" type="line" smooth="no"/>
      <point x="131.07" y="273.177" type="line" smooth="no"/>
      <point x="131.07" y="499.922" type="line" smooth="no"/>
      <point x="159.195" y="499.922" type="line" smooth="no"/>
      <point x="159.195" y="334.417" type="line" smooth="no"/>
    </contour>
  </outline>
</glyph>
<glyph name="X" format="1">
  <advance width="339"/>
  <unicode hex="0058"/>
  <outline>
    <contour>
      <point x="228.286" y="0" type="line" smooth="no"/>
      <point x="170.138" y="216.625" type="line" smooth="no"/>
      <point x="45.1113" y="0" type="line" smooth="no"/>
      <point x="12.7031" y="0.0625" type="line" smooth="no"/>
      <point x="159.938" y="255.016" type="line" smooth="no"/>
      <point x="96.375" y="491.969" type="line" smooth="no"/>
      <point x="123.656" y="499.141" type="line" smooth="no"/>
      <point x="179.766" y="289.469" type="line" smooth="no"/>
      <point x="301.969" y="501.25" type="line" smooth="no"/>
      <point x="326.297" y="487.188" type="line" smooth="no"/>
      <point x="190.031" y="251.078" type="line" smooth="no"/>
      <point x="257.39" y="0" type="line" smooth="no"/>
    </contour>
  </outline>
</glyph>
<glyph name="Y" format="1">
  <advance width="339"/>
  <unicode hex="0059"/>
  <outline>
    <contour>
      <point x="12.7031" y="0.0625" type="line" smooth="no"/>
      <point x="155.438" y="255.016" type="line" smooth="no"/>
      <point x="96.375" y="491.969" type="line" smooth="no"/>
      <point x="123.656" y="499.141" type="line" smooth="no"/>
      <point x="179.766" y="289.469" type="line" smooth="no"/>
      <point x="301.969" y="501.25" type="line" smooth="no"/>
      <point x="326.297" y="487.188" type="line" smooth="no"/>
      <point x="45.1113" y="0" type="line" smooth="no"/>
    </contour>
  </outline>
</glyph>
<glyph name="Z" format="1">
  <advance width="396"/>
  <unicode hex="005a"/>
  <outline>
    <contour>
      <point x="173.492" y="504.984" type="line" smooth="no"/>
      <point x="382.914" y="504.984" type="line" smooth="no"/>
      <point x="66.5391" y="28.125" type="line" smooth="no"/>
      <point x="231.07" y="28.125" type="line" smooth="no"/>
      <point x="231.07" y="0" type="line" smooth="no"/>
      <point x="10.0859" y="0" type="line" smooth="no"/>
      <point x="328.18" y="476.859" type="line" smooth="no"/>
      <point x="173.492" y="476.859" type="line" smooth="no"/>
    </contour>
  </outline>
</glyph>
<glyph name="backslash" format="1">
  <advance width="325"/>
  <unicode hex="005c"/>
  <outline>
    <contour>
      <point x="36.9922" y="477.781" type="line" smooth="no"/>
      <point x="12.6641" y="463.719" type="line" smooth="no"/>
      <point x="287.867" y="-13" type="line" smooth="no"/>
      <point x="312.336" y="1.0625" type="line" smooth="no"/>
    </contour>
  </outline>
</glyph>
<glyph name="bracketright" format="1">
  <advance width="316"/>
  <unicode hex="005d"/>
  <outline>
    <contour>
      <point x="12.3594" y="-91.9102" type="curve" smooth="no"/>
      <point x="12.3594" y="-63.7852" type="line" smooth="no"/>
      <point x="69.6768" y="-63.7852"/>
      <point x="124.257" y="-12.835"/>
      <point x="168.734" y="65.8711" type="curve" smooth="yes"/>
      <point x="213.212" y="144.577"/>
      <point x="246.456" y="248.749"/>
      <point x="263.094" y="345.434" type="curve" smooth="yes"/>
      <point x="279.731" y="442.118"/>
      <point x="278.976" y="532.096"/>
      <point x="260.281" y="579.012" type="curve" smooth="yes"/>
      <point x="250.935" y="602.47"/>
      <point x="239.358" y="613.474"/>
      <point x="224" y="615.434" type="curve" smooth="yes"/>
      <point x="208.637" y="617.394"/>
      <point x="184.616" y="609.206"/>
      <point x="152.422" y="581.965" type="curve" smooth="no"/>
      <point x="134.141" y="603.48" type="line" smooth="no"/>
      <point x="169.354" y="633.28"/>
      <point x="199.896" y="646.938"/>
      <point x="227.516" y="643.418" type="curve" smooth="yes"/>
      <point x="255.136" y="639.894"/>
      <point x="274.994" y="618.136"/>
      <point x="286.438" y="589.418" type="curve" smooth="yes"/>
      <point x="309.324" y="531.978"/>
      <point x="307.918" y="440.149"/>
      <point x="290.797" y="340.652" type="curve" smooth="yes"/>
      <point x="273.671" y="241.155"/>
      <point x="239.931" y="134.777"/>
      <point x="193.203" y="52.0898" type="curve" smooth="yes"/>
      <point x="146.476" y="-30.5977"/>
      <point x="85.7881" y="-91.9102"/>
    </contour>
  </outline>
</glyph>
<glyph name="asciicircum" format="1">
  <advance width="189"/>
  <unicode hex="005e"/>
  <outline>
    <contour>
      <point x="27.2969" y="500" type="line" smooth="no"/>
      <point x="-120.359" y="414.781" type="line" smooth="no"/>
      <point x="-106.297" y="390.453" type="line" smooth="no"/>
      <point x="27.5" y="467.673" type="line" smooth="no"/>
      <point x="161.297" y="390.453" type="line" smooth="no"/>
      <point x="175.359" y="414.781" type="line" smooth="no"/>
      <point x="27.7031" y="500" type="line" smooth="no"/>
    </contour>
  </outline>
</glyph>
<glyph name="underscore" format="1">
  <advance width="281"/>
  <unicode hex="005f"/>
  <outline>
    <contour>
      <point x="13.5" y="0" type="line" smooth="no"/>
      <point x="13.5" y="28.125" type="line" smooth="no"/>
      <point x="267.5" y="28.125" type="line" smooth="no"/>
      <point x="267.5" y="0" type="line" smooth="no"/>
    </contour>
  </outline>
</glyph>
<glyph name="grave" format="1">
  <advance width="189"/>
  <unicode hex="0060"/>
  <outline>
    <contour>
      <point x="27.7031" y="500" type="line" smooth="no"/>
      <point x="13.6406" y="475.672" type="line" smooth="no"/>
      <point x="161.297" y="390.453" type="line" smooth="no"/>
      <point x="175.359" y="414.781" type="line" smooth="no"/>
    </contour>
  </outline>
</glyph>
<glyph name="a" format="1">
  <advance width="329"/>
  <unicode hex="0061"/>
  <outline>
    <contour>
      <point x="311.067" y="520.695" type="line" smooth="no"/>
      <point x="316.692" y="493.133" type="line" smooth="no"/>
      <point x="312.475" y="492.289" type="line" smooth="no"/>
      <point x="234.101" y="0" type="line" smooth="no"/>
      <point x="206.255" y="0" type="line" smooth="no"/>
      <point x="240.475" y="209.492" type="line" smooth="no"/>
      <point x="221.612" y="165.89"/>
      <point x="203.665" y="129.112"/>
      <point x="186.755" y="100.086" type="curve" smooth="yes"/>
      <point x="157.643" y="50.1113"/>
      <point x="131.956" y="20"/>
      <point x="107.021" y="5.30469" type="curve" smooth="yes"/>
      <point x="94.5498" y="-2.04297"/>
      <point x="81.7432" y="-5.37402"/>
      <point x="69.4736" y="-3.69531" type="curve" smooth="yes"/>
      <point x="57.2041" y="-2.0127"/>
      <point x="46.4111" y="4.78223"/>
      <point x="38.5361" y="14.1641" type="curve" smooth="yes"/>
      <point x="22.7822" y="32.9326"/>
      <point x="15.4873" y="61.2383"/>
      <point x="13.083" y="95.4453" type="curve" smooth="yes"/>
      <point x="8.27637" y="163.864"/>
      <point x="25.6084" y="257.015"/>
      <point x="70.7393" y="339.992" type="curve" smooth="yes"/>
      <point x="115.872" y="422.97"/>
      <point x="189.876" y="495.866"/>
      <point x="297.286" y="517.883" type="curve" smooth="yes"/>
    </contour>
    <contour>
      <point x="282.802" y="484.836" type="line" smooth="no"/>
      <point x="195.854" y="460.284"/>
      <point x="134.786" y="398.884"/>
      <point x="95.4893" y="326.633" type="curve" smooth="yes"/>
      <point x="53.1787" y="248.845"/>
      <point x="36.7314" y="159.161"/>
      <point x="41.0674" y="97.4141" type="curve" smooth="yes"/>
      <point x="43.2354" y="66.542"/>
      <point x="51.2334" y="42.9795"/>
      <point x="60.1924" y="32.3047" type="curve" smooth="yes"/>
      <point x="64.6709" y="26.9697"/>
      <point x="68.6475" y="24.7812"/>
      <point x="73.2705" y="24.1484" type="curve" smooth="yes"/>
      <point x="77.8896" y="23.5156"/>
      <point x="84.0557" y="24.5527"/>
      <point x="92.6768" y="29.6328" type="curve" smooth="yes"/>
      <point x="109.921" y="39.7979"/>
      <point x="134.559" y="66.4502"/>
      <point x="162.427" y="114.289" type="curve" smooth="yes"/>
      <point x="190.225" y="162.005"/>
      <point x="221.688" y="230.591"/>
      <point x="255.942" y="324.383" type="curve" smooth="no"/>
    </contour>
  </outline>
</glyph>
<glyph name="b" format="1">
  <advance width="329"/>
  <unicode hex="0062"/>
  <outline>
    <contour>
      <point x="147.312" y="798.891" type="line" smooth="no"/>
      <point x="175.014" y="794.25" type="line" smooth="no"/>
      <point x="96.123" y="329.344" type="line" smooth="no"/>
      <point x="112.233" y="365.317"/>
      <point x="127.601" y="395.613"/>
      <point x="142.248" y="420.75" type="curve" smooth="yes"/>
      <point x="171.357" y="470.725"/>
      <point x="197.044" y="500.695"/>
      <point x="221.982" y="515.391" type="curve" smooth="yes"/>
      <point x="234.45" y="522.738"/>
      <point x="247.255" y="526.21"/>
      <point x="259.529" y="524.531" type="curve" smooth="yes"/>
      <point x="271.799" y="522.854"/>
      <point x="282.446" y="515.913"/>
      <point x="290.326" y="506.531" type="curve" smooth="yes"/>
      <point x="306.076" y="487.767"/>
      <point x="313.517" y="459.462"/>
      <point x="315.92" y="425.25" type="curve" smooth="yes"/>
      <point x="320.724" y="356.831"/>
      <point x="303.255" y="263.681"/>
      <point x="258.123" y="180.703" type="curve" smooth="yes"/>
      <point x="212.991" y="97.7256"/>
      <point x="139.124" y="24.8291"/>
      <point x="31.7168" y="2.8125" type="curve" smooth="yes"/>
      <point x="17.9355" y="0" type="line" smooth="no"/>
      <point x="12.3105" y="27.5625" type="line" smooth="no"/>
      <point x="16.5293" y="28.4062" type="line" smooth="no"/>
    </contour>
    <contour>
      <point x="255.732" y="496.688" type="curve" smooth="yes"/>
      <point x="251.109" y="497.32"/>
      <point x="244.808" y="496.283"/>
      <point x="236.187" y="491.203" type="curve" smooth="yes"/>
      <point x="218.938" y="481.043"/>
      <point x="194.446" y="454.39"/>
      <point x="162.076" y="406.547" type="curve" smooth="no"/>
      <point x="139.102" y="359.394"/>
      <point x="107.835" y="291.665"/>
      <point x="74.0449" y="199.547" type="curve" smooth="no"/>
      <point x="46.3418" y="36" type="line" smooth="no"/>
      <point x="133.208" y="60.583"/>
      <point x="194.239" y="121.997"/>
      <point x="233.514" y="194.203" type="curve" smooth="yes"/>
      <point x="275.824" y="271.995"/>
      <point x="292.132" y="361.534"/>
      <point x="287.795" y="423.281" type="curve" smooth="yes"/>
      <point x="285.624" y="454.157"/>
      <point x="277.771" y="477.856"/>
      <point x="268.812" y="488.531" type="curve" smooth="yes"/>
      <point x="264.328" y="493.87"/>
      <point x="260.352" y="496.055"/>
    </contour>
  </outline>
</glyph>
<glyph name="c" format="1">
  <advance width="246"/>
  <unicode hex="0063"/>
  <outline>
    <contour>
      <point x="226.79" y="495.422" type="curve" smooth="no"/>
      <point x="233.682" y="468.141" type="line" smooth="no"/>
      <point x="178.068" y="454.052"/>
      <point x="132.049" y="409.188"/>
      <point x="98.8213" y="351.422" type="curve" smooth="yes"/>
      <point x="65.5938" y="293.655"/>
      <point x="45.665" y="223.651"/>
      <point x="41.4463" y="163.266" type="curve" smooth="yes"/>
      <point x="37.2275" y="102.885"/>
      <point x="50.0469" y="53.499"/>
      <point x="72.9463" y="35.1562" type="curve" smooth="yes"/>
      <point x="84.3945" y="25.9854"/>
      <point x="98.1484" y="22.4648"/>
      <point x="118.932" y="27.4219" type="curve" smooth="yes"/>
      <point x="139.713" y="32.3838"/>
      <point x="166.994" y="46.9033"/>
      <point x="199.649" y="74.5312" type="curve" smooth="no"/>
      <point x="217.79" y="53.0156" type="line" smooth="no"/>
      <point x="183.033" y="23.6074"/>
      <point x="152.765" y="6.49902"/>
      <point x="125.54" y="0" type="curve" smooth="yes"/>
      <point x="98.3164" y="-6.49512"/>
      <point x="73.4912" y="-1.30078"/>
      <point x="55.3682" y="13.2188" type="curve" smooth="yes"/>
      <point x="19.1133" y="42.2578"/>
      <point x="8.78125" y="100.283"/>
      <point x="13.3213" y="165.234" type="curve" smooth="yes"/>
      <point x="17.8564" y="230.186"/>
      <point x="38.6777" y="303.464"/>
      <point x="74.3525" y="365.484" type="curve" smooth="yes"/>
      <point x="110.027" y="427.505"/>
      <point x="161.105" y="478.78"/>
    </contour>
  </outline>
</glyph>
<glyph name="d" format="1">
  <advance width="374"/>
  <unicode hex="0064"/>
  <outline>
    <contour>
      <point x="200" y="0" type="line" smooth="no"/>
      <point x="240.823" y="212.953" type="line" smooth="no"/>
      <point x="221.914" y="169.21"/>
      <point x="203.772" y="132.362"/>
      <point x="186.823" y="103.266" type="curve" smooth="yes"/>
      <point x="157.709" y="53.291"/>
      <point x="132.022" y="23.1797"/>
      <point x="107.089" y="8.48438" type="curve" smooth="yes"/>
      <point x="94.6172" y="1.13672"/>
      <point x="81.8115" y="-2.19434"/>
      <point x="69.542" y="-0.515625" type="curve" smooth="yes"/>
      <point x="57.2676" y="1.16699"/>
      <point x="46.6201" y="7.96191"/>
      <point x="38.7451" y="17.3438" type="curve" smooth="yes"/>
      <point x="22.9902" y="36.1123"/>
      <point x="15.5547" y="64.418"/>
      <point x="13.1514" y="98.625" type="curve" smooth="yes"/>
      <point x="8.34375" y="167.044"/>
      <point x="25.8164" y="260.194"/>
      <point x="70.9482" y="343.172" type="curve" smooth="yes"/>
      <point x="114.744" y="423.697"/>
      <point x="185.896" y="494.282"/>
      <point x="288.214" y="518.531" type="curve" smooth="no"/>
      <point x="333.776" y="812.859" type="line" smooth="no"/>
      <point x="361.62" y="808.5" type="line" smooth="no"/>
      <point x="314.792" y="506.297" type="line" smooth="no"/>
      <point x="316.761" y="496.312" type="line" smooth="no"/>
      <point x="313.104" y="495.609" type="line" smooth="no"/>
      <point x="227.703" y="0" type="line" smooth="no"/>
    </contour>
    <contour>
      <point x="282.87" y="488.016" type="line" smooth="no"/>
      <point x="195.924" y="463.464"/>
      <point x="134.854" y="402.062"/>
      <point x="95.5576" y="329.812" type="curve" smooth="yes"/>
      <point x="53.2471" y="252.024"/>
      <point x="36.9395" y="162.341"/>
      <point x="41.2764" y="100.594" type="curve" smooth="yes"/>
      <point x="43.4434" y="69.7217"/>
      <point x="51.3008" y="46.1592"/>
      <point x="60.2607" y="35.4844" type="curve" smooth="yes"/>
      <point x="64.7383" y="30.1494"/>
      <point x="68.7158" y="27.9609"/>
      <point x="68.8389" y="27.3281" type="curve" smooth="yes"/>
      <point x="77.957" y="26.6953"/>
      <point x="84.2637" y="27.7324"/>
      <point x="92.8857" y="32.8125" type="curve" smooth="yes"/>
      <point x="110.13" y="42.9775"/>
      <point x="134.625" y="69.6299"/>
      <point x="162.495" y="117.469" type="curve" smooth="yes"/>
      <point x="190.229" y="165.079"/>
      <point x="221.703" y="233.528"/>
      <point x="255.87" y="327" type="curve" smooth="no"/>
    </contour>
  </outline>
</glyph>
<glyph name="e" format="1">
  <advance width="296"/>
  <unicode hex="0065"/>
  <outline>
    <contour>
      <point x="231.312" y="509.484" type="curve" smooth="yes"/>
      <point x="235.39" y="509.929"/>
      <point x="239.357" y="509.911"/>
      <point x="243.265" y="509.484" type="curve" smooth="yes"/>
      <point x="258.893" y="507.771"/>
      <point x="271.772" y="496.951"/>
      <point x="277.577" y="483.188" type="curve" smooth="yes"/>
      <point x="289.188" y="455.66"/>
      <point x="282.858" y="417.599"/>
      <point x="266.608" y="374.062" type="curve" smooth="yes"/>
      <point x="234.353" y="287.644"/>
      <point x="156.946" y="180.255"/>
      <point x="43.4355" y="129.656" type="curve" smooth="no"/>
      <point x="41.1602" y="109.718"/>
      <point x="39.8643" y="90.9492"/>
      <point x="41.1855" y="75.6562" type="curve" smooth="yes"/>
      <point x="43.0449" y="54.1279"/>
      <point x="48.9902" y="38.9229"/>
      <point x="56.2324" y="31.6406" type="curve" smooth="yes"/>
      <point x="63.4746" y="24.3584"/>
      <point x="72.2109" y="21.6475"/>
      <point x="90.5449" y="27" type="curve" smooth="yes"/>
      <point x="108.875" y="32.3525"/>
      <point x="134.892" y="47.29"/>
      <point x="167.748" y="75.0938" type="curve" smooth="yes"/>
      <point x="178.437" y="84.2344" type="line" smooth="no"/>
      <point x="196.718" y="62.7188" type="line" smooth="no"/>
      <point x="185.89" y="53.7188" type="line" smooth="yes"/>
      <point x="151.335" y="24.4814"/>
      <point x="123.087" y="7.20215"/>
      <point x="98.4199" y="0" type="curve" smooth="yes"/>
      <point x="73.749" y="-7.20215"/>
      <point x="50.8936" y="-2.90527"/>
      <point x="36.2646" y="11.8125" type="curve" smooth="yes"/>
      <point x="21.6299" y="26.5254"/>
      <point x="15.3672" y="48.1729"/>
      <point x="13.2021" y="73.2656" type="curve" smooth="yes"/>
      <point x="11.3115" y="95.124"/>
      <point x="13.3027" y="120.485"/>
      <point x="17.2793" y="147.375" type="curve" smooth="no"/>
      <point x="16.7168" y="148.641" type="line" smooth="no"/>
      <point x="17.4199" y="148.922" type="line" smooth="yes"/>
      <point x="17.9443" y="152.38"/>
      <point x="18.0791" y="155.526"/>
      <point x="18.6855" y="159.047" type="curve" smooth="yes"/>
      <point x="29.5049" y="222.007"/>
      <point x="53.2061" y="293.889"/>
      <point x="83.6543" y="356.062" type="curve" smooth="yes"/>
      <point x="114.104" y="418.231"/>
      <point x="150.319" y="470.874"/>
      <point x="191.373" y="494.578" type="curve" smooth="yes"/>
      <point x="205.978" y="503.007"/>
      <point x="219.067" y="508.153"/>
    </contour>
    <contour>
      <point x="240.171" y="481.5" type="curve" smooth="yes"/>
      <point x="233.839" y="482.194"/>
      <point x="221.964" y="479.79"/>
      <point x="205.437" y="470.25" type="curve" smooth="yes"/>
      <point x="174.489" y="452.382"/>
      <point x="138.179" y="403.335"/>
      <point x="108.968" y="343.688" type="curve" smooth="yes"/>
      <point x="81.2812" y="287.161"/>
      <point x="59.4756" y="221.497"/>
      <point x="48.498" y="163.969" type="curve" smooth="no"/>
      <point x="143.855" y="213.474"/>
      <point x="212.218" y="308.632"/>
      <point x="240.312" y="383.906" type="curve" smooth="yes"/>
      <point x="255.283" y="424.02"/>
      <point x="257.445" y="458.596"/>
      <point x="251.701" y="472.219" type="curve" smooth="yes"/>
      <point x="248.827" y="479.026"/>
      <point x="246.498" y="480.806"/>
    </contour>
  </outline>
</glyph>
<glyph name="f" format="1">
  <advance width="267"/>
  <unicode hex="0066"/>
  <outline>
    <contour>
      <point x="12.2881" y="-249" type="line" smooth="no"/>
      <point x="105.025" y="180" type="line" smooth="no"/>
      <point x="46.9473" y="180" type="line" smooth="no"/>
      <point x="32.8848" y="180" type="line" smooth="no"/>
      <point x="32.8848" y="208.125" type="line" smooth="no"/>
      <point x="46.9473" y="208.125" type="line" smooth="no"/>
      <point x="116.697" y="208.125" type="line" smooth="no"/>
      <point x="170.164" y="416.202"/>
      <point x="216.392" y="553.693"/>
      <point x="254.509" y="637.453" type="curve" smooth="yes"/>
      <point x="270.356" y="672.284"/>
      <point x="284.858" y="697.899"/>
      <point x="298.384" y="716.062" type="curve" smooth="yes"/>
      <point x="311.907" y="734.226"/>
      <point x="324.194" y="745.905"/>
      <point x="339.587" y="749.25" type="curve" smooth="yes"/>
      <point x="341.512" y="749.667"/>
      <point x="343.507" y="749.913"/>
      <point x="345.493" y="749.953" type="curve" smooth="yes"/>
      <point x="347.476" y="749.993"/>
      <point x="349.444" y="749.821"/>
      <point x="351.4" y="749.531" type="curve" smooth="yes"/>
      <point x="355.312" y="748.951"/>
      <point x="359.16" y="747.786"/>
      <point x="362.509" y="745.875" type="curve" smooth="yes"/>
      <point x="369.202" y="742.052"/>
      <point x="374.084" y="736.29"/>
      <point x="377.979" y="729.703" type="curve" smooth="yes"/>
      <point x="385.766" y="716.532"/>
      <point x="390.151" y="699.235"/>
      <point x="392.884" y="678.094" type="curve" smooth="yes"/>
      <point x="394.712" y="664.172" type="line" smooth="no"/>
      <point x="366.729" y="660.516" type="line" smooth="no"/>
      <point x="365.04" y="674.438" type="line" smooth="yes"/>
      <point x="362.584" y="693.457"/>
      <point x="358.159" y="707.972"/>
      <point x="353.79" y="715.359" type="curve" smooth="yes"/>
      <point x="351.606" y="719.056"/>
      <point x="349.515" y="720.796"/>
      <point x="348.447" y="721.406" type="curve" smooth="yes"/>
      <point x="347.379" y="722.017"/>
      <point x="347.339" y="722.062"/>
      <point x="345.634" y="721.688" type="curve" smooth="yes"/>
      <point x="342.219" y="720.944"/>
      <point x="332.508" y="714.942"/>
      <point x="320.884" y="699.328" type="curve" smooth="yes"/>
      <point x="309.256" y="683.714"/>
      <point x="295.432" y="659.466"/>
      <point x="280.104" y="625.781" type="curve" smooth="yes"/>
      <point x="243.642" y="545.669"/>
      <point x="198.365" y="411.544"/>
      <point x="145.807" y="208.125" type="curve" smooth="no"/>
      <point x="217.384" y="208.125" type="line" smooth="no"/>
      <point x="231.447" y="208.125" type="line" smooth="no"/>
      <point x="231.447" y="180" type="line" smooth="no"/>
      <point x="217.384" y="180" type="line" smooth="no"/>
      <point x="138.634" y="180" type="line" smooth="no"/>
      <point x="108.39" y="60.7568"/>
      <point x="75.7441" y="-81.1504"/>
      <point x="37.8086" y="-249" type="curve" smooth="no"/>
    </contour>
  </outline>
</glyph>
<glyph name="g" format="1">
  <advance width="330"/>
  <unicode hex="0067"/>
  <outline>
    <contour>
      <point x="306.995" y="528" type="line" smooth="no"/>
      <point x="317.261" y="500.438" type="line" smooth="no"/>
      <point x="313.042" y="499.594" type="line" smooth="no"/>
      <point x="194.495" y="-250.641" type="line" smooth="no"/>
      <point x="186.901" y="-250.641" type="line" smooth="yes"/>
      <point x="107.438" y="-250.641"/>
      <point x="35.6816" y="-206.603"/>
      <point x="21.9482" y="-142.641" type="curve" smooth="yes"/>
      <point x="15.0801" y="-110.657"/>
      <point x="24.4395" y="-74.7363"/>
      <point x="53.0264" y="-41.6719" type="curve" smooth="yes"/>
      <point x="81.6133" y="-8.60742"/>
      <point x="128.881" y="22.3955"/>
      <point x="200.12" y="49.3125" type="curve" smooth="yes"/>
      <point x="213.339" y="54.375" type="line" smooth="no"/>
      <point x="215.308" y="49.1719" type="line" smooth="no"/>
      <point x="241.042" y="216.656" type="line" smooth="no"/>
      <point x="222.186" y="173.071"/>
      <point x="204.084" y="136.267"/>
      <point x="187.183" y="107.25" type="curve" smooth="yes"/>
      <point x="158.068" y="57.2754"/>
      <point x="132.522" y="27.3047"/>
      <point x="107.589" y="12.6094" type="curve" smooth="yes"/>
      <point x="95.1172" y="5.26172"/>
      <point x="82.1709" y="1.79004"/>
      <point x="69.9014" y="3.46875" type="curve" smooth="yes"/>
      <point x="57.6318" y="5.15137"/>
      <point x="46.9795" y="12.0869"/>
      <point x="39.1045" y="21.4688" type="curve" smooth="yes"/>
      <point x="23.3496" y="40.2373"/>
      <point x="15.9141" y="68.543"/>
      <point x="13.5107" y="102.75" type="curve" smooth="yes"/>
      <point x="8.70312" y="171.169"/>
      <point x="26.1758" y="264.319"/>
      <point x="71.3076" y="347.297" type="curve" smooth="yes"/>
      <point x="116.438" y="430.274"/>
      <point x="190.303" y="503.171"/>
      <point x="297.714" y="525.188" type="curve" smooth="no"/>
    </contour>
    <contour>
      <point x="283.089" y="492.141" type="line" smooth="no"/>
      <point x="196.24" y="467.554"/>
      <point x="135.322" y="405.995"/>
      <point x="96.0576" y="333.797" type="curve" smooth="yes"/>
      <point x="53.7471" y="256.009"/>
      <point x="37.2988" y="166.466"/>
      <point x="41.6357" y="104.719" type="curve" smooth="yes"/>
      <point x="43.8027" y="73.8467"/>
      <point x="51.6602" y="50.1436"/>
      <point x="60.6201" y="39.4688" type="curve" smooth="yes"/>
      <point x="65.0977" y="34.1338"/>
      <point x="69.2158" y="31.9453"/>
      <point x="73.8389" y="31.3125" type="curve" smooth="yes"/>
      <point x="78.457" y="30.6797"/>
      <point x="84.623" y="31.7168"/>
      <point x="93.2451" y="36.7969" type="curve" smooth="yes"/>
      <point x="110.489" y="46.9619"/>
      <point x="135.125" y="73.6143"/>
      <point x="158.495" y="121.453" type="curve" smooth="no"/>
      <point x="190.716" y="169.042"/>
      <point x="222.08" y="237.438"/>
      <point x="256.229" y="330.844" type="curve" smooth="no"/>
    </contour>
    <contour>
      <point x="211.37" y="23.5781" type="line" smooth="no"/>
      <point x="210.104" y="23.0156" type="line" smooth="yes"/>
      <point x="141.748" y="-2.81152"/>
      <point x="98.4355" y="-32.127"/>
      <point x="74.2607" y="-60.0938" type="curve" smooth="yes"/>
      <point x="50.082" y="-88.0557"/>
      <point x="44.4258" y="-113.716"/>
      <point x="49.3701" y="-136.734" type="curve" smooth="yes"/>
      <point x="58.6689" y="-180.052"/>
      <point x="111.381" y="-217.374"/>
      <point x="174.948" y="-221.672" type="curve" smooth="no"/>
    </contour>
  </outline>
</glyph>
<glyph name="h" format="1">
  <advance width="310"/>
  <unicode hex="0068"/>
  <outline>
    <contour>
      <point x="184.424" y="0" type="line" smooth="no"/>
      <point x="208.75" y="103.714"/>
      <point x="233.318" y="209.606"/>
      <point x="256.9" y="336.656" type="curve" smooth="yes"/>
      <point x="263.663" y="376.919"/>
      <point x="267.795" y="409.465"/>
      <point x="268.994" y="433.688" type="curve" smooth="yes"/>
      <point x="270.172" y="457.554"/>
      <point x="267.509" y="473.472"/>
      <point x="265.479" y="477.703" type="curve" smooth="no"/>
      <point x="265.28" y="477.603"/>
      <point x="264.951" y="477.8"/>
      <point x="261.822" y="475.734" type="curve" smooth="yes"/>
      <point x="253.666" y="470.355"/>
      <point x="239.226" y="455.356"/>
      <point x="221.604" y="431.438" type="curve" smooth="yes"/>
      <point x="186.741" y="384.117"/>
      <point x="136.877" y="301.312"/>
      <point x="71.9785" y="182.812" type="curve" smooth="no"/>
      <point x="41.041" y="0" type="line" smooth="no"/>
      <point x="12.457" y="0" type="line" smooth="no"/>
      <point x="145.666" y="784.547" type="line" smooth="no"/>
      <point x="173.369" y="779.906" type="line" smooth="no"/>
      <point x="85.7598" y="263.672" type="line" smooth="no"/>
      <point x="131.265" y="344.017"/>
      <point x="170.495" y="409.53"/>
      <point x="198.963" y="448.172" type="curve" smooth="yes"/>
      <point x="217.429" y="473.243"/>
      <point x="231.992" y="489.841"/>
      <point x="246.213" y="499.219" type="curve" smooth="yes"/>
      <point x="253.323" y="503.912"/>
      <point x="261" y="507.345"/>
      <point x="269.979" y="506.25" type="curve" smooth="yes"/>
      <point x="278.956" y="505.155"/>
      <point x="286.629" y="498.27"/>
      <point x="290.369" y="491.062" type="curve" smooth="yes"/>
      <point x="297.844" y="476.653"/>
      <point x="298.266" y="458.367"/>
      <point x="296.979" y="432.281" type="curve" smooth="yes"/>
      <point x="295.687" y="406.2"/>
      <point x="291.472" y="372.902"/>
      <point x="284.604" y="332.016" type="curve" smooth="yes"/>
      <point x="266.412" y="225.375"/>
      <point x="238.538" y="111.289"/>
      <point x="213.12" y="0" type="curve" smooth="no"/>
    </contour>
  </outline>
</glyph>
<glyph name="i" format="1">
  <advance width="197"/>
  <unicode hex="0069"/>
  <outline>
    <contour>
      <point x="127.209" y="573.188" type="curve" smooth="yes"/>
      <point x="158.44" y="573.188"/>
      <point x="184.162" y="547.466"/>
      <point x="184.162" y="516.234" type="curve" smooth="yes"/>
      <point x="184.162" y="486.382"/>
      <point x="160.634" y="461.694"/>
      <point x="131.287" y="459.562" type="curve" smooth="no"/>
      <point x="102.626" y="322.589"/>
      <point x="70.2168" y="203.075"/>
      <point x="52.959" y="122.344" type="curve" smooth="yes"/>
      <point x="43.8975" y="79.9404"/>
      <point x="39.4277" y="47.4307"/>
      <point x="40.8652" y="32.0625" type="curve" smooth="yes"/>
      <point x="41.2207" y="28.2959"/>
      <point x="42.0039" y="26.2793"/>
      <point x="42.4121" y="25.1719" type="curve" smooth="yes"/>
      <point x="43.4629" y="25.4482"/>
      <point x="45.3477" y="25.9629"/>
      <point x="48.7402" y="27.8438" type="curve" smooth="yes"/>
      <point x="118.745" y="66.626"/>
      <point x="162.646" y="121.5"/>
      <point x="162.646" y="121.5" type="curve" smooth="no"/>
      <point x="184.584" y="103.922" type="line" smooth="no"/>
      <point x="184.584" y="103.922"/>
      <point x="137.698" y="45.0352"/>
      <point x="62.2402" y="3.23438" type="curve" smooth="yes"/>
      <point x="51.2852" y="-2.83496"/>
      <point x="39.1074" y="-6.28809"/>
      <point x="28.0684" y="0" type="curve" smooth="yes"/>
      <point x="17.0332" y="6.28809"/>
      <point x="13.9668" y="17.9697"/>
      <point x="12.8809" y="29.5312" type="curve" smooth="yes"/>
      <point x="10.7148" y="52.6592"/>
      <point x="16.3047" y="85.0654"/>
      <point x="25.5371" y="128.25" type="curve" smooth="yes"/>
      <point x="43.0889" y="210.349"/>
      <point x="75.1641" y="328.917"/>
      <point x="103.584" y="464.625" type="curve" smooth="no"/>
      <point x="84.0195" y="473.669"/>
      <point x="70.2559" y="493.418"/>
      <point x="70.2559" y="516.234" type="curve" smooth="yes"/>
      <point x="70.2559" y="547.466"/>
      <point x="95.9814" y="573.188"/>
    </contour>
    <contour>
      <point x="127.209" y="544.922" type="curve" smooth="yes"/>
      <point x="111.178" y="544.922"/>
      <point x="98.3809" y="532.266"/>
      <point x="98.3809" y="516.234" type="curve" smooth="yes"/>
      <point x="98.3809" y="500.203"/>
      <point x="111.178" y="487.406"/>
      <point x="127.209" y="487.406" type="curve" smooth="yes"/>
      <point x="143.239" y="487.406"/>
      <point x="155.896" y="500.203"/>
      <point x="155.896" y="516.234" type="curve" smooth="yes"/>
      <point x="155.896" y="532.266"/>
      <point x="143.239" y="544.922"/>
    </contour>
  </outline>
</glyph>
<glyph name="j" format="1">
  <advance width="327"/>
  <unicode hex="006a"/>
  <outline>
    <contour>
      <point x="257.649" y="569.513" type="curve" smooth="yes"/>
      <point x="288.881" y="569.513"/>
      <point x="314.603" y="543.932"/>
      <point x="314.603" y="512.7" type="curve" smooth="yes"/>
      <point x="314.603" y="483.621"/>
      <point x="292.401" y="459.373"/>
      <point x="264.118" y="456.169" type="curve" smooth="no"/>
      <point x="199.521" y="50.5957" type="line" smooth="no"/>
      <point x="255.349" y="50.5957" type="line" smooth="no"/>
      <point x="255.349" y="22.4707" type="line" smooth="no"/>
      <point x="195.161" y="22.4707" type="line" smooth="no"/>
      <point x="155.786" y="-236.982" type="line" smooth="no"/>
      <point x="153.958" y="-248.936" type="line" smooth="no"/>
      <point x="141.864" y="-248.936" type="line" smooth="yes"/>
      <point x="115.413" y="-248.936"/>
      <point x="92.7158" y="-228.083"/>
      <point x="71.2705" y="-201.123" type="curve" smooth="yes"/>
      <point x="49.8291" y="-174.158"/>
      <point x="30.7139" y="-139.007"/>
      <point x="20.3643" y="-102.967" type="curve" smooth="yes"/>
      <point x="10.0146" y="-66.9268"/>
      <point x="7.98535" y="-29.2705"/>
      <point x="25.0049" y="1.0957" type="curve" smooth="yes"/>
      <point x="42.0293" y="31.4619"/>
      <point x="78.1572" y="50.5957"/>
      <point x="133.005" y="50.5957" type="curve" smooth="yes"/>
      <point x="170.974" y="50.5957" type="line" smooth="no"/>
      <point x="236.274" y="459.966" type="line" smooth="no"/>
      <point x="215.519" y="468.491"/>
      <point x="200.837" y="489.018"/>
      <point x="200.837" y="512.7" type="curve" smooth="yes"/>
      <point x="200.837" y="543.932"/>
      <point x="226.422" y="569.513"/>
    </contour>
    <contour>
      <point x="257.649" y="541.247" type="curve" smooth="yes"/>
      <point x="241.618" y="541.247"/>
      <point x="228.821" y="528.731"/>
      <point x="228.821" y="512.7" type="curve" smooth="yes"/>
      <point x="228.821" y="496.669"/>
      <point x="241.618" y="483.731"/>
      <point x="257.649" y="483.731" type="curve" smooth="yes"/>
      <point x="273.681" y="483.731"/>
      <point x="286.337" y="496.669"/>
      <point x="286.337" y="512.7" type="curve" smooth="yes"/>
      <point x="286.337" y="528.731"/>
      <point x="273.681" y="541.247"/>
    </contour>
    <contour>
      <point x="133.005" y="22.4707" type="line" smooth="yes"/>
      <point x="84.2998" y="22.4707"/>
      <point x="61.1191" y="7.83301"/>
      <point x="49.6143" y="-12.6855" type="curve" smooth="yes"/>
      <point x="38.1143" y="-33.2041"/>
      <point x="38.373" y="-63.4248"/>
      <point x="47.5049" y="-95.2324" type="curve" smooth="yes"/>
      <point x="56.6416" y="-127.036"/>
      <point x="74.3252" y="-159.767"/>
      <point x="93.3486" y="-183.686" type="curve" smooth="yes"/>
      <point x="106.356" y="-200.038"/>
      <point x="120.252" y="-210.778"/>
      <point x="130.474" y="-216.311" type="curve" smooth="no"/>
      <point x="166.755" y="22.4707" type="line" smooth="no"/>
    </contour>
  </outline>
</glyph>
<glyph name="k" format="1">
  <advance width="314"/>
  <unicode hex="006b"/>
  <outline>
    <contour>
      <point x="12.2529" y="0" type="line" smooth="no"/>
      <point x="13.7471" y="8.70312" type="line" smooth="no"/>
      <point x="147.341" y="774.547" type="line" smooth="no"/>
      <point x="149.732" y="788.469" type="line" smooth="no"/>
      <point x="177.436" y="783.547" type="line" smooth="no"/>
      <point x="175.044" y="769.766" type="line" smooth="no"/>
      <point x="41.4502" y="3.78125" type="line" smooth="no"/>
      <point x="40.7949" y="0" type="line" smooth="no"/>
    </contour>
    <contour>
      <point x="190.232" y="0" type="line" smooth="no"/>
      <point x="190.232" y="0"/>
      <point x="180.427" y="18.0332"/>
      <point x="171.388" y="55.6719" type="curve" smooth="yes"/>
      <point x="162.388" y="93.1445"/>
      <point x="153.604" y="150.703"/>
      <point x="153.529" y="232.297" type="curve" smooth="yes"/>
      <point x="153.251" y="235.953"/>
      <point x="152.988" y="237.303"/>
      <point x="152.825" y="237.781" type="curve" smooth="no"/>
      <point x="153.251" y="237.602"/>
      <point x="149.674" y="238.142"/>
      <point x="144.388" y="236.375" type="curve" smooth="yes"/>
      <point x="139.102" y="234.604"/>
      <point x="132.658" y="231.369"/>
      <point x="126.811" y="228.5" type="curve" smooth="yes"/>
      <point x="123.883" y="227.062"/>
      <point x="121.15" y="225.719"/>
      <point x="118.232" y="224.562" type="curve" smooth="yes"/>
      <point x="115.31" y="223.402"/>
      <point x="113.011" y="221.39"/>
      <point x="105.857" y="222.594" type="curve" smooth="yes"/>
      <point x="102.275" y="223.191"/>
      <point x="96.7373" y="226.518"/>
      <point x="94.4658" y="231.031" type="curve" smooth="yes"/>
      <point x="92.1895" y="235.54"/>
      <point x="92.6328" y="239.078"/>
      <point x="93.0596" y="241.578" type="curve" smooth="yes"/>
      <point x="93.916" y="246.57"/>
      <point x="95.5332" y="249.58"/>
      <point x="97.8408" y="253.812" type="curve" smooth="yes"/>
      <point x="102.455" y="262.268"/>
      <point x="110.278" y="274.027"/>
      <point x="123.154" y="292.203" type="curve" smooth="yes"/>
      <point x="270.95" y="491.188" type="line" smooth="yes"/>
      <point x="279.388" y="502.438" type="line" smooth="no"/>
      <point x="301.747" y="485.562" type="line" smooth="no"/>
      <point x="293.311" y="474.312" type="line" smooth="yes"/>
      <point x="146.216" y="276.031" type="line" smooth="yes"/>
      <point x="141.781" y="269.773"/>
      <point x="141.149" y="268.275"/>
      <point x="137.919" y="263.516" type="curve" smooth="no"/>
      <point x="145.504" y="265.88"/>
      <point x="154.121" y="267.773"/>
      <point x="163.654" y="263.797" type="curve" smooth="yes"/>
      <point x="174.144" y="259.416"/>
      <point x="180.532" y="247.48"/>
      <point x="181.513" y="234.406" type="curve" smooth="yes"/>
      <point x="181.654" y="233.844" type="line" smooth="no"/>
      <point x="181.654" y="233.281" type="line" smooth="yes"/>
      <point x="181.654" y="153.151"/>
      <point x="190.184" y="97.4727"/>
      <point x="198.669" y="62.1406" type="curve" smooth="yes"/>
      <point x="207.155" y="26.8047"/>
      <point x="214.982" y="12.9219"/>
      <point x="214.982" y="12.9219" type="curve" smooth="no"/>
      <point x="221.108" y="0" type="line" smooth="no"/>
    </contour>
  </outline>
</glyph>
<glyph name="l" format="1">
  <advance width="199"/>
  <unicode hex="006c"/>
  <outline>
    <contour>
      <point x="178.78" y="779.484" type="line" smooth="no"/>
      <point x="181.812" y="725.532"/>
      <point x="162.529" y="636.06"/>
      <point x="137.858" y="534.234" type="curve" smooth="yes"/>
      <point x="113.188" y="432.413"/>
      <point x="82.7334" y="319.482"/>
      <point x="62.624" y="225.141" type="curve" smooth="yes"/>
      <point x="52.5693" y="177.97"/>
      <point x="45.0723" y="135.439"/>
      <point x="42.0928" y="101.672" type="curve" smooth="yes"/>
      <point x="39.1133" y="67.9092"/>
      <point x="41.9346" y="42.627"/>
      <point x="46.874" y="33.4688" type="curve" smooth="yes"/>
      <point x="49.3438" y="28.8936"/>
      <point x="50.3506" y="28.3799"/>
      <point x="53.3428" y="27.9844" type="curve" smooth="yes"/>
      <point x="56.3359" y="27.5889"/>
      <point x="63.0459" y="28.5342"/>
      <point x="73.0303" y="34.0312" type="curve" smooth="yes"/>
      <point x="92.9951" y="45.0264"/>
      <point x="124.135" y="72.4307"/>
      <point x="165.562" y="119.25" type="curve" smooth="no"/>
      <point x="186.655" y="100.547" type="line" smooth="no"/>
      <point x="144.271" y="52.6416"/>
      <point x="112.595" y="23.7002"/>
      <point x="86.6709" y="9.42188" type="curve" smooth="yes"/>
      <point x="73.707" y="2.28516"/>
      <point x="61.6484" y="-1.57715"/>
      <point x="49.6865" y="0" type="curve" smooth="yes"/>
      <point x="37.7246" y="1.57715"/>
      <point x="27.6084" y="9.94434"/>
      <point x="22.124" y="20.1094" type="curve" smooth="yes"/>
      <point x="11.1553" y="40.4473"/>
      <point x="10.9531" y="68.2734"/>
      <point x="14.1084" y="104.062" type="curve" smooth="yes"/>
      <point x="17.2637" y="139.852"/>
      <point x="25.0244" y="183.296"/>
      <point x="35.2021" y="231.047" type="curve" smooth="yes"/>
      <point x="55.5576" y="326.549"/>
      <point x="85.8887" y="439.528"/>
      <point x="110.438" y="540.844" type="curve" smooth="yes"/>
      <point x="134.984" y="642.159"/>
      <point x="153.323" y="733.021"/>
      <point x="150.796" y="777.938" type="curve" smooth="no"/>
    </contour>
  </outline>
</glyph>
<glyph name="m" format="1">
  <advance width="461"/>
  <unicode hex="006d"/>
  <outline>
    <contour>
      <point x="339.517" y="0" type="line" smooth="no"/>
      <point x="342.169" y="11.8125" type="line" smooth="yes"/>
      <point x="368.822" y="130.887"/>
      <point x="390.676" y="259.062"/>
      <point x="404.466" y="335.953" type="curve" smooth="yes"/>
      <point x="411.361" y="374.401"/>
      <point x="416.296" y="406.71"/>
      <point x="418.669" y="432" type="curve" smooth="yes"/>
      <point x="421.047" y="457.295"/>
      <point x="420.585" y="475.954"/>
      <point x="418.533" y="484.172" type="curve" smooth="yes"/>
      <point x="418.252" y="485.284"/>
      <point x="418.506" y="484.532"/>
      <point x="418.247" y="485.156" type="curve" smooth="no"/>
      <point x="413.51" y="482.331"/>
      <point x="402.04" y="472.377"/>
      <point x="387.45" y="453.234" type="curve" smooth="yes"/>
      <point x="355.994" y="411.966"/>
      <point x="275.059" y="271.642"/>
      <point x="243.9" y="214.517" type="curve" smooth="yes"/>
      <point x="235.716" y="173.531" type="line" smooth="no"/>
      <point x="235.153" y="173.812" type="line" smooth="no"/>
      <point x="197.391" y="0" type="line" smooth="no"/>
      <point x="168.784" y="0" type="line" smooth="no"/>
      <point x="189.559" y="92.0684"/>
      <point x="209.907" y="214.304"/>
      <point x="231.216" y="324.703" type="curve" smooth="yes"/>
      <point x="238.111" y="363.151"/>
      <point x="243.041" y="395.601"/>
      <point x="245.419" y="420.891" type="curve" smooth="yes"/>
      <point x="247.797" y="446.186"/>
      <point x="247.335" y="464.845"/>
      <point x="245.278" y="473.062" type="curve" smooth="yes"/>
      <point x="244.992" y="474.214"/>
      <point x="245.266" y="473.414"/>
      <point x="244.997" y="474.047" type="curve" smooth="no"/>
      <point x="240.256" y="471.222"/>
      <point x="228.79" y="461.268"/>
      <point x="214.2" y="442.125" type="curve" smooth="yes"/>
      <point x="183.521" y="401.884"/>
      <point x="136.865" y="297.686"/>
      <point x="73.4346" y="182.109" type="curve" smooth="no"/>
      <point x="40.8096" y="0" type="line" smooth="no"/>
      <point x="12.4033" y="0" type="line" smooth="no"/>
      <point x="99.8721" y="500" type="line" smooth="no"/>
      <point x="129.575" y="500" type="line" smooth="no"/>
      <point x="88.2002" y="264.656" type="line" smooth="no"/>
      <point x="130.783" y="339.411"/>
      <point x="166.797" y="426.282"/>
      <point x="191.841" y="459.141" type="curve" smooth="yes"/>
      <point x="208.619" y="481.148"/>
      <point x="220.827" y="494.789"/>
      <point x="235.294" y="501.188" type="curve" smooth="yes"/>
      <point x="242.531" y="504.387"/>
      <point x="252.74" y="504.967"/>
      <point x="260.185" y="499.922" type="curve" smooth="yes"/>
      <point x="267.629" y="494.882"/>
      <point x="270.661" y="487.411"/>
      <point x="272.56" y="479.812" type="curve" smooth="yes"/>
      <point x="276.361" y="464.616"/>
      <point x="275.904" y="444.819"/>
      <point x="273.403" y="418.219" type="curve" smooth="yes"/>
      <point x="270.907" y="391.618"/>
      <point x="265.897" y="358.673"/>
      <point x="258.919" y="319.781" type="curve" smooth="yes"/>
      <point x="253.435" y="290.391" type="line" smooth="no"/>
      <point x="301.44" y="375.653"/>
      <point x="337.915" y="434.597"/>
      <point x="365.091" y="470.25" type="curve" smooth="yes"/>
      <point x="381.869" y="492.258"/>
      <point x="394.077" y="505.898"/>
      <point x="408.544" y="512.297" type="curve" smooth="yes"/>
      <point x="412.165" y="513.896"/>
      <point x="416.537" y="514.911"/>
      <point x="420.919" y="514.828" type="curve" smooth="yes"/>
      <point x="425.301" y="514.749"/>
      <point x="429.713" y="513.554"/>
      <point x="433.435" y="511.031" type="curve" smooth="yes"/>
      <point x="440.879" y="505.991"/>
      <point x="443.911" y="498.661"/>
      <point x="445.81" y="491.062" type="curve" smooth="yes"/>
      <point x="449.611" y="475.866"/>
      <point x="449.154" y="456.069"/>
      <point x="446.653" y="429.469" type="curve" smooth="yes"/>
      <point x="444.157" y="402.868"/>
      <point x="439.147" y="369.782"/>
      <point x="432.169" y="330.891" type="curve" smooth="yes"/>
      <point x="418.221" y="253.112"/>
      <point x="396.266" y="124.796"/>
      <point x="369.591" y="5.625" type="curve" smooth="yes"/>
      <point x="368.315" y="0" type="line" smooth="no"/>
    </contour>
  </outline>
</glyph>
<glyph name="n" format="1">
  <advance width="291"/>
  <unicode hex="006e"/>
  <outline>
    <contour>
      <point x="168.781" y="0" type="line" smooth="no"/>
      <point x="168.94" y="0.703125" type="line" smooth="yes"/>
      <point x="195.593" y="119.777"/>
      <point x="220.583" y="247.952"/>
      <point x="234.378" y="324.844" type="curve" smooth="yes"/>
      <point x="241.272" y="363.292"/>
      <point x="246.062" y="395.736"/>
      <point x="248.44" y="421.031" type="curve" smooth="yes"/>
      <point x="250.817" y="446.326"/>
      <point x="250.352" y="464.985"/>
      <point x="248.3" y="473.203" type="curve" smooth="yes"/>
      <point x="248.014" y="474.368"/>
      <point x="248.286" y="473.555"/>
      <point x="248.014" y="474.188" type="curve" smooth="no"/>
      <point x="243.272" y="471.353"/>
      <point x="231.943" y="461.399"/>
      <point x="217.357" y="442.266" type="curve" smooth="yes"/>
      <point x="186.684" y="402.021"/>
      <point x="137.022" y="297.826"/>
      <point x="73.5918" y="182.25" type="curve" smooth="no"/>
      <point x="41.0918" y="0" type="line" smooth="no"/>
      <point x="12.5605" y="0" type="line" smooth="no"/>
      <point x="37.8115" y="149.665"/>
      <point x="74.7803" y="331.605"/>
      <point x="104.492" y="500" type="curve" smooth="no"/>
      <point x="132.2" y="500" type="line" smooth="no"/>
      <point x="119.57" y="426.471"/>
      <point x="101.216" y="338.713"/>
      <point x="88.3623" y="265.219" type="curve" smooth="no"/>
      <point x="130.84" y="339.772"/>
      <point x="169.998" y="426.48"/>
      <point x="195.003" y="459.281" type="curve" smooth="yes"/>
      <point x="211.776" y="481.289"/>
      <point x="223.984" y="494.93"/>
      <point x="238.456" y="501.328" type="curve" smooth="yes"/>
      <point x="245.689" y="504.527"/>
      <point x="255.762" y="505.107"/>
      <point x="263.206" y="500.062" type="curve" smooth="yes"/>
      <point x="270.65" y="495.018"/>
      <point x="273.678" y="487.552"/>
      <point x="275.581" y="479.953" type="curve" smooth="yes"/>
      <point x="279.378" y="464.757"/>
      <point x="279.062" y="444.96"/>
      <point x="276.565" y="418.359" type="curve" smooth="yes"/>
      <point x="274.064" y="391.759"/>
      <point x="269.055" y="358.812"/>
      <point x="262.081" y="319.922" type="curve" smooth="yes"/>
      <point x="248.337" y="243.309"/>
      <point x="223.697" y="116.857"/>
      <point x="197.558" y="0" type="curve" smooth="no"/>
    </contour>
  </outline>
</glyph>
<glyph name="p" format="1">
  <advance width="368"/>
  <unicode hex="0070"/>
  <outline>
    <contour>
      <point x="12.4922" y="-250.567" type="line" smooth="no"/>
      <point x="53.0928" y="12.2344" type="line" smooth="no"/>
      <point x="51.124" y="22.2188" type="line" smooth="no"/>
      <point x="54.7803" y="22.9219" type="line" smooth="no"/>
      <point x="126.921" y="486" type="line" smooth="no"/>
      <point x="154.765" y="486" type="line" smooth="no"/>
      <point x="127.343" y="306.141" type="line" smooth="no"/>
      <point x="146.178" y="349.669"/>
      <point x="164.178" y="386.42"/>
      <point x="181.061" y="415.406" type="curve" smooth="yes"/>
      <point x="210.175" y="465.381"/>
      <point x="235.86" y="495.352"/>
      <point x="260.796" y="510.047" type="curve" smooth="yes"/>
      <point x="273.268" y="517.395"/>
      <point x="286.073" y="520.87"/>
      <point x="298.343" y="519.188" type="curve" smooth="yes"/>
      <point x="310.616" y="517.509"/>
      <point x="321.404" y="510.574"/>
      <point x="329.279" y="501.188" type="curve" smooth="yes"/>
      <point x="345.034" y="482.423"/>
      <point x="352.334" y="454.118"/>
      <point x="354.732" y="419.906" type="curve" smooth="yes"/>
      <point x="359.541" y="351.492"/>
      <point x="342.209" y="258.341"/>
      <point x="297.077" y="175.359" type="curve" smooth="yes"/>
      <point x="253.294" y="94.8604"/>
      <point x="182.077" y="24.2705"/>
      <point x="79.8115" y="0" type="curve" smooth="no"/>
      <point x="40.8848" y="-250.567" type="line" smooth="no"/>
    </contour>
    <contour>
      <point x="294.546" y="491.344" type="curve" smooth="yes"/>
      <point x="289.927" y="491.977"/>
      <point x="283.767" y="490.944"/>
      <point x="275.14" y="485.859" type="curve" smooth="yes"/>
      <point x="257.895" y="475.699"/>
      <point x="233.26" y="449.046"/>
      <point x="205.39" y="401.203" type="curve" smooth="yes"/>
      <point x="177.595" y="353.491"/>
      <point x="146.13" y="284.906"/>
      <point x="111.874" y="191.109" type="curve" smooth="no"/>
      <point x="85.1553" y="30.5156" type="line" smooth="no"/>
      <point x="172.044" y="55.0898"/>
      <point x="233.049" y="116.644"/>
      <point x="272.327" y="188.859" type="curve" smooth="yes"/>
      <point x="314.638" y="266.651"/>
      <point x="331.087" y="356.19"/>
      <point x="326.749" y="417.938" type="curve" smooth="yes"/>
      <point x="324.583" y="448.812"/>
      <point x="316.585" y="472.513"/>
      <point x="307.624" y="483.188" type="curve" smooth="yes"/>
      <point x="303.145" y="488.526"/>
      <point x="299.169" y="490.711"/>
    </contour>
  </outline>
</glyph>
<glyph name="q" format="1">
  <advance width="329"/>
  <unicode hex="0071"/>
  <outline>
    <contour>
      <point x="158.521" y="-250" type="line" smooth="no"/>
      <point x="232.878" y="195.188" type="line" smooth="no"/>
      <point x="216.763" y="159.214"/>
      <point x="201.396" y="128.918"/>
      <point x="186.753" y="103.781" type="curve" smooth="yes"/>
      <point x="157.64" y="53.8066"/>
      <point x="131.953" y="23.8359"/>
      <point x="107.019" y="9.14062" type="curve" smooth="yes"/>
      <point x="94.5469" y="1.79297"/>
      <point x="81.7412" y="-1.68359"/>
      <point x="69.4717" y="0" type="curve" smooth="yes"/>
      <point x="57.2021" y="1.67871"/>
      <point x="46.5498" y="8.61328"/>
      <point x="38.6748" y="18" type="curve" smooth="yes"/>
      <point x="22.9209" y="36.7646"/>
      <point x="15.4854" y="65.0703"/>
      <point x="13.0811" y="99.2812" type="curve" smooth="yes"/>
      <point x="8.27344" y="167.695"/>
      <point x="25.7461" y="260.851"/>
      <point x="70.8779" y="343.828" type="curve" smooth="yes"/>
      <point x="116.01" y="426.806"/>
      <point x="189.873" y="499.702"/>
      <point x="297.284" y="521.719" type="curve" smooth="yes"/>
      <point x="311.064" y="524.531" type="line" smooth="no"/>
      <point x="316.689" y="496.969" type="line" smooth="no"/>
      <point x="312.472" y="496.125" type="line" smooth="no"/>
      <point x="185.782" y="-250" type="line" smooth="no"/>
    </contour>
    <contour>
      <point x="73.2686" y="27.8438" type="curve" smooth="yes"/>
      <point x="77.8877" y="27.2109"/>
      <point x="84.1934" y="28.2441"/>
      <point x="92.8154" y="33.3281" type="curve" smooth="yes"/>
      <point x="110.06" y="43.4883"/>
      <point x="134.555" y="70.1406"/>
      <point x="162.425" y="117.984" type="curve" smooth="yes"/>
      <point x="189.896" y="165.138"/>
      <point x="221.162" y="232.866"/>
      <point x="254.956" y="324.984" type="curve" smooth="no"/>
      <point x="282.659" y="488.531" type="line" smooth="no"/>
      <point x="195.788" y="463.948"/>
      <point x="134.761" y="402.535"/>
      <point x="95.4873" y="330.328" type="curve" smooth="yes"/>
      <point x="53.1768" y="252.536"/>
      <point x="36.8682" y="162.993"/>
      <point x="41.2061" y="101.25" type="curve" smooth="yes"/>
      <point x="43.3721" y="70.374"/>
      <point x="51.2295" y="46.6738"/>
      <point x="60.1904" y="36" type="curve" smooth="yes"/>
      <point x="64.6689" y="30.6602"/>
      <point x="68.6455" y="28.4766"/>
    </contour>
  </outline>
</glyph>
<glyph name="r" format="1">
  <advance width="288"/>
  <unicode hex="0072"/>
  <outline>
    <contour>
      <point x="100.055" y="499" type="line" smooth="no"/>
      <point x="127.762" y="499" type="line" smooth="no"/>
      <point x="88.5234" y="276.562" type="line" smooth="no"/>
      <point x="117.703" y="327.847"/>
      <point x="144.07" y="372.667"/>
      <point x="164.742" y="403.969" type="curve" smooth="yes"/>
      <point x="180.066" y="427.177"/>
      <point x="193.127" y="445.106"/>
      <point x="204.539" y="458.391" type="curve" smooth="yes"/>
      <point x="215.956" y="471.676"/>
      <point x="225.162" y="480.486"/>
      <point x="236.18" y="485.109" type="curve" smooth="yes"/>
      <point x="241.69" y="487.421"/>
      <point x="248.458" y="488.528"/>
      <point x="255.023" y="486.234" type="curve" smooth="yes"/>
      <point x="261.594" y="483.945"/>
      <point x="266.37" y="478.772"/>
      <point x="269.086" y="473.578" type="curve" smooth="yes"/>
      <point x="274.521" y="463.194"/>
      <point x="275.414" y="451.307"/>
      <point x="275.414" y="435.75" type="curve" smooth="yes"/>
      <point x="275.094" y="387.239"/>
      <point x="263.443" y="338.733"/>
      <point x="256.012" y="289" type="curve" smooth="no"/>
      <point x="228.305" y="289" type="line" smooth="no"/>
      <point x="237.266" y="337.779"/>
      <point x="243.475" y="378.266"/>
      <point x="247.289" y="435.75" type="curve" smooth="yes"/>
      <point x="247.285" y="446.961"/>
      <point x="245.988" y="454.036"/>
      <point x="244.898" y="457.688" type="curve" smooth="no"/>
      <point x="241.348" y="455.517"/>
      <point x="234.689" y="450.327"/>
      <point x="225.914" y="440.109" type="curve" smooth="yes"/>
      <point x="215.75" y="428.279"/>
      <point x="203.154" y="410.965"/>
      <point x="188.227" y="388.359" type="curve" smooth="yes"/>
      <point x="159.279" y="344.524"/>
      <point x="121.21" y="279.354"/>
      <point x="73.6172" y="192.609" type="curve" smooth="no"/>
      <point x="40.4297" y="0" type="line" smooth="no"/>
      <point x="12.5859" y="0" type="line" smooth="no"/>
    </contour>
  </outline>
</glyph>
<glyph name="s" format="1">
  <advance width="258"/>
  <unicode hex="0073"/>
  <outline>
    <contour>
      <point x="231.516" y="504.703" type="curve" smooth="no"/>
      <point x="245.578" y="504.703" type="line" smooth="no"/>
      <point x="245.578" y="476.578" type="line" smooth="no"/>
      <point x="231.516" y="476.578" type="line" smooth="yes"/>
      <point x="179.979" y="476.578"/>
      <point x="146.71" y="468.884"/>
      <point x="127.594" y="457.875" type="curve" smooth="yes"/>
      <point x="108.482" y="446.871"/>
      <point x="102.049" y="434.109"/>
      <point x="101.016" y="415.406" type="curve" smooth="yes"/>
      <point x="98.959" y="378"/>
      <point x="128.525" y="318.472"/>
      <point x="158.672" y="258.75" type="curve" smooth="yes"/>
      <point x="188.818" y="199.032"/>
      <point x="219.998" y="138.626"/>
      <point x="210.422" y="86.0625" type="curve" smooth="yes"/>
      <point x="205.637" y="59.7832"/>
      <point x="188.511" y="36.4697"/>
      <point x="158.531" y="21.9375" type="curve" smooth="yes"/>
      <point x="128.557" y="7.40918"/>
      <point x="86.2148" y="0"/>
      <point x="26.4844" y="0" type="curve" smooth="yes"/>
      <point x="12.4219" y="0" type="line" smooth="no"/>
      <point x="12.4219" y="28.125" type="line" smooth="no"/>
      <point x="26.4844" y="28.125" type="line" smooth="yes"/>
      <point x="83.8281" y="28.125"/>
      <point x="122.514" y="35.7236"/>
      <point x="146.297" y="47.25" type="curve" smooth="yes"/>
      <point x="170.084" y="58.7812"/>
      <point x="179.511" y="72.7383"/>
      <point x="182.859" y="91.125" type="curve" smooth="yes"/>
      <point x="189.561" y="127.903"/>
      <point x="163.488" y="186.552"/>
      <point x="133.5" y="245.953" type="curve" smooth="yes"/>
      <point x="103.516" y="305.354"/>
      <point x="70.0342" y="365.022"/>
      <point x="72.8906" y="416.953" type="curve" smooth="yes"/>
      <point x="74.3232" y="442.921"/>
      <point x="87.4014" y="467.297"/>
      <point x="113.531" y="482.344" type="curve" smooth="yes"/>
      <point x="139.666" y="497.396"/>
      <point x="177.34" y="504.703"/>
    </contour>
  </outline>
</glyph>
<glyph name="t" format="1">
  <advance width="267"/>
  <unicode hex="0074"/>
  <outline>
    <contour>
      <point x="39.9541" y="499.047" type="line" smooth="no"/>
      <point x="39.9541" y="470.922" type="line" smooth="no"/>
      <point x="90.0596" y="470.922" type="line" smooth="no"/>
      <point x="39.7617" y="272.963"/>
      <point x="-16.7393" y="53.5049"/>
      <point x="29.5039" y="9" type="curve" smooth="yes"/>
      <point x="62.292" y="-22.5527"/>
      <point x="114.573" y="19.1514"/>
      <point x="186.173" y="100.072" type="curve" smooth="no"/>
      <point x="165.105" y="118.709" type="line" smooth="no"/>
      <point x="85.0156" y="28.1914"/>
      <point x="54.2188" y="24.249"/>
      <point x="49.0068" y="29.2676" type="curve" smooth="yes"/>
      <point x="16.2959" y="60.748"/>
      <point x="71.7197" y="273.156"/>
      <point x="120.517" y="470.922" type="curve" smooth="no"/>
      <point x="254.645" y="470.922" type="line" smooth="no"/>
      <point x="254.645" y="499.047" type="line" smooth="no"/>
      <point x="131.403" y="499.047" type="line" smooth="no"/>
      <point x="159.192" y="613.549"/>
      <point x="181.682" y="719.869"/>
      <point x="178.36" y="778.975" type="curve" smooth="no"/>
      <point x="150.278" y="777.396" type="line" smooth="no"/>
      <point x="153.189" y="725.594"/>
      <point x="127.304" y="618.038"/>
      <point x="97.1943" y="499.047" type="curve" smooth="no"/>
    </contour>
  </outline>
</glyph>
<glyph name="v" format="1">
  <advance width="285"/>
  <unicode hex="0076"/>
  <outline>
    <contour>
      <point x="272.449" y="486.712" type="line" smooth="no"/>
      <point x="244.712" y="491.335" type="line" smooth="no"/>
      <point x="214.455" y="309.806" type="line" smooth="no"/>
      <point x="120.395" y="137.971"/>
      <point x="65.5244" y="51.0029"/>
      <point x="42.0186" y="31.0039" type="curve" smooth="no"/>
      <point x="35.3115" y="73.415"/>
      <point x="68.2979" y="239.572"/>
      <point x="116.083" y="486.404" type="curve" smooth="no"/>
      <point x="88.4678" y="491.753" type="line" smooth="no"/>
      <point x="34.2617" y="211.746"/>
      <point x="-19.0352" y="7.69531"/>
      <point x="35.2334" y="0" type="curve" smooth="yes"/>
      <point x="75.0869" y="-5.65137"/>
      <point x="131.485" y="99.4834"/>
      <point x="240.271" y="298.415" type="curve" smooth="yes"/>
      <point x="240.896" y="299.562"/>
      <point x="241.548" y="301.386"/>
      <point x="241.802" y="302.915" type="curve" smooth="yes"/>
    </contour>
  </outline>
</glyph>
<glyph name="w" format="1">
  <advance width="407"/>
  <unicode hex="0077"/>
  <outline>
    <contour>
      <point x="90.7617" y="504.562" type="line" smooth="no"/>
      <point x="118.465" y="499.219" type="line" smooth="no"/>
      <point x="115.863" y="485.411" type="line" smooth="yes"/>
      <point x="91.1836" y="357.896"/>
      <point x="70.0332" y="252.519"/>
      <point x="56.5898" y="173.953" type="curve" smooth="yes"/>
      <point x="49.8711" y="134.671"/>
      <point x="45.1289" y="102.089"/>
      <point x="42.668" y="77.0625" type="curve" smooth="yes"/>
      <point x="40.4805" y="54.751"/>
      <point x="40.7129" y="39.292"/>
      <point x="41.9648" y="31.0781" type="curve" smooth="no"/>
      <point x="47.8633" y="36.0791"/>
      <point x="57.8604" y="46.6299"/>
      <point x="71.0742" y="65.3906" type="curve" smooth="yes"/>
      <point x="214.09" y="308.812" type="line" smooth="no"/>
      <point x="244.324" y="490.342" type="line" smooth="no"/>
      <point x="246.715" y="504.141" type="line" smooth="no"/>
      <point x="274.418" y="499.641" type="line" smooth="no"/>
      <point x="272.168" y="485.719" type="line" smooth="no"/>
      <point x="241.512" y="301.922" type="line" smooth="no"/>
      <point x="241.09" y="299.531" type="line" smooth="no"/>
      <point x="239.965" y="297.422" type="line" smooth="yes"/>
      <point x="179.074" y="188.156" type="line" smooth="no"/>
      <point x="168.281" y="126.505"/>
      <point x="161.777" y="79.5459"/>
      <point x="160.935" y="51.1875" type="curve" smooth="yes"/>
      <point x="160.652" y="41.7354"/>
      <point x="161.197" y="35.2793"/>
      <point x="161.918" y="30.6562" type="curve" smooth="no"/>
      <point x="165.777" y="33.9033"/>
      <point x="171.037" y="38.9004"/>
      <point x="178.09" y="47.8125" type="curve" smooth="yes"/>
      <point x="188.079" y="60.4287"/>
      <point x="200.625" y="78.5391"/>
      <point x="215.496" y="102.094" type="curve" smooth="yes"/>
      <point x="244.984" y="148.804"/>
      <point x="284.126" y="217.331"/>
      <point x="334.185" y="308.812" type="curve" smooth="no"/>
      <point x="364.418" y="490.342" type="line" smooth="no"/>
      <point x="366.81" y="504.141" type="line" smooth="no"/>
      <point x="394.513" y="499.641" type="line" smooth="no"/>
      <point x="392.121" y="485.719" type="line" smooth="no"/>
      <point x="361.605" y="301.922" type="line" smooth="no"/>
      <point x="361.185" y="299.531" type="line" smooth="no"/>
      <point x="360.06" y="297.422" type="line" smooth="yes"/>
      <point x="309.25" y="204.513"/>
      <point x="269.629" y="135.146"/>
      <point x="239.262" y="87.0469" type="curve" smooth="yes"/>
      <point x="224.079" y="63"/>
      <point x="211.189" y="44.2969"/>
      <point x="200.168" y="30.375" type="curve" smooth="yes"/>
      <point x="189.146" y="16.4531"/>
      <point x="180.688" y="7.26465"/>
      <point x="170.215" y="1.96875" type="curve" smooth="yes"/>
      <point x="164.981" y="-0.680664"/>
      <point x="158.057" y="-2.41699"/>
      <point x="151.09" y="0" type="curve" smooth="yes"/>
      <point x="144.125" y="2.41699"/>
      <point x="139.644" y="8.21387"/>
      <point x="137.31" y="13.5" type="curve" smooth="yes"/>
      <point x="132.646" y="24.0771"/>
      <point x="132.33" y="35.9209"/>
      <point x="132.81" y="52.0312" type="curve" smooth="yes"/>
      <point x="133.347" y="70.0225"/>
      <point x="135.832" y="93.1064"/>
      <point x="139.84" y="120.938" type="curve" smooth="no"/>
      <point x="122.14" y="91.5166"/>
      <point x="106.898" y="67.5352"/>
      <point x="93.9961" y="49.2188" type="curve" smooth="yes"/>
      <point x="77.6621" y="26.0332"/>
      <point x="65.8984" y="11.4697"/>
      <point x="52.9336" y="3.51562" type="curve" smooth="yes"/>
      <point x="46.4521" y="-0.461914"/>
      <point x="37.1758" y="-3.2168"/>
      <point x="28.6055" y="0.984375" type="curve" smooth="yes"/>
      <point x="20.0371" y="5.18555"/>
      <point x="16.7852" y="12.9287"/>
      <point x="14.9648" y="20.1797" type="curve" smooth="yes"/>
      <point x="11.3184" y="34.6816"/>
      <point x="12.1094" y="53.5205"/>
      <point x="14.6797" y="79.7344" type="curve" smooth="yes"/>
      <point x="17.2549" y="105.952"/>
      <point x="22.1064" y="138.973"/>
      <point x="28.8867" y="178.594" type="curve" smooth="yes"/>
      <point x="42.4395" y="257.836"/>
      <point x="63.4199" y="363.327"/>
      <point x="88.0859" y="490.759" type="curve" smooth="yes"/>
    </contour>
  </outline>
</glyph>
<glyph name="x" format="1">
  <advance width="452"/>
  <unicode hex="0078"/>
  <outline>
    <contour>
      <point x="12.5928" y="16.9053" type="line" smooth="no"/>
      <point x="35.0674" y="0" type="line" smooth="no"/>
      <point x="183.562" y="197.438"/>
      <point x="224.312" y="234.861"/>
      <point x="225.411" y="252.47" type="curve" smooth="yes"/>
      <point x="226.853" y="275.607"/>
      <point x="180.28" y="251.459"/>
      <point x="180.28" y="251.459" type="curve" smooth="no"/>
      <point x="179.858" y="253.011"/>
      <point x="179.528" y="254.347"/>
      <point x="179.353" y="256.662" type="curve" smooth="yes"/>
      <point x="166.714" y="424.793"/>
      <point x="121.183" y="486.229"/>
      <point x="113.808" y="494.376" type="curve" smooth="no"/>
      <point x="92.9521" y="475.501" type="line" smooth="no"/>
      <point x="92.9521" y="475.501"/>
      <point x="151.364" y="415.568"/>
      <point x="151.364" y="255.607" type="curve" smooth="yes"/>
      <point x="151.364" y="254.558" type="line" smooth="yes"/>
      <point x="152.356" y="241.343"/>
      <point x="156.536" y="229.144"/>
      <point x="171.253" y="224.068" type="curve" smooth="no"/>
    </contour>
    <contour>
      <point x="439.407" y="476.485" type="line" smooth="no"/>
      <point x="416.935" y="493.272" type="line" smooth="no"/>
      <point x="268.438" y="295.831"/>
      <point x="227.688" y="258.53"/>
      <point x="226.589" y="240.921" type="curve" smooth="yes"/>
      <point x="225.147" y="217.784"/>
      <point x="271.722" y="241.937"/>
      <point x="271.722" y="241.937" type="curve" smooth="no"/>
      <point x="272.144" y="240.385"/>
      <point x="272.376" y="239.049"/>
      <point x="272.552" y="236.733" type="curve" smooth="yes"/>
      <point x="285.19" y="68.6025"/>
      <point x="330.823" y="7.16309"/>
      <point x="338.192" y="-0.984375" type="curve" smooth="no"/>
      <point x="359.05" y="17.8896" type="line" smooth="no"/>
      <point x="359.05" y="17.8896"/>
      <point x="300.598" y="77.8271"/>
      <point x="300.598" y="237.783" type="curve" smooth="yes"/>
      <point x="300.598" y="238.838" type="line" smooth="yes"/>
      <point x="299.604" y="252.053"/>
      <point x="295.46" y="264.252"/>
      <point x="280.747" y="269.323" type="curve" smooth="no"/>
    </contour>
  </outline>
</glyph>
<glyph name="y" format="1">
  <advance width="285"/>
  <unicode hex="0079"/>
  <outline>
    <contour>
      <point x="88.501" y="498.797" type="curve" smooth="no"/>
      <point x="116.204" y="493.453" type="line" smooth="no"/>
      <point x="91.5205" y="365.933"/>
      <point x="70.4043" y="255.543"/>
      <point x="56.8604" y="176.969" type="curve" smooth="yes"/>
      <point x="50.0889" y="137.682"/>
      <point x="45.1797" y="105.113"/>
      <point x="42.6572" y="80.0781" type="curve" smooth="yes"/>
      <point x="40.4385" y="58.0264"/>
      <point x="40.6396" y="42.7109"/>
      <point x="41.8135" y="34.375" type="curve" smooth="no"/>
      <point x="47.7236" y="39.4941"/>
      <point x="57.5068" y="49.9053"/>
      <point x="70.501" y="68.4062" type="curve" smooth="yes"/>
      <point x="101.302" y="112.264"/>
      <point x="148.188" y="202.723"/>
      <point x="213.517" y="322.109" type="curve" smooth="no"/>
      <point x="244.876" y="503.516" type="line" smooth="no"/>
      <point x="272.579" y="498.734" type="line" smooth="no"/>
      <point x="143.062" y="-248" type="line" smooth="no"/>
      <point x="115.359" y="-248" type="line" smooth="no"/>
      <point x="199.173" y="239.281" type="line" smooth="no"/>
      <point x="155.195" y="160.799"/>
      <point x="118.492" y="87.7334"/>
      <point x="93.5635" y="52.2344" type="curve" smooth="yes"/>
      <point x="77.2861" y="29.0527"/>
      <point x="65.6758" y="14.6436"/>
      <point x="52.7822" y="6.67188" type="curve" smooth="yes"/>
      <point x="46.335" y="2.68555"/>
      <point x="36.8877" y="-0.257812"/>
      <point x="28.3135" y="4" type="curve" smooth="yes"/>
      <point x="19.7393" y="8.25781"/>
      <point x="16.585" y="16.168"/>
      <point x="14.8135" y="23.4062" type="curve" smooth="yes"/>
      <point x="11.2715" y="37.8867"/>
      <point x="12.0361" y="56.6816"/>
      <point x="14.6729" y="82.8906" type="curve" smooth="yes"/>
      <point x="17.3096" y="109.1"/>
      <point x="22.3281" y="142.133"/>
      <point x="29.1572" y="181.75" type="curve" smooth="yes"/>
      <point x="42.8154" y="260.983"/>
      <point x="63.835" y="371.369"/>
    </contour>
  </outline>
</glyph>
<glyph name="z" format="1">
  <advance width="281"/>
  <unicode hex="007a"/>
  <outline>
    <contour>
      <point x="248.049" y="516.375" type="curve" smooth="yes"/>
      <point x="249.868" y="516.375"/>
      <point x="251.784" y="516.094"/>
      <point x="253.955" y="515.531" type="curve" smooth="yes"/>
      <point x="258.302" y="514.401"/>
      <point x="263.997" y="510.517"/>
      <point x="266.33" y="505.266" type="curve" smooth="yes"/>
      <point x="271.006" y="494.763"/>
      <point x="267.021" y="488.092"/>
      <point x="263.377" y="480.234" type="curve" smooth="yes"/>
      <point x="46.9551" y="13.2188" type="line" smooth="no"/>
      <point x="86.0488" y="26.7188" type="line" smooth="yes"/>
      <point x="132.587" y="42.2314"/>
      <point x="199.762" y="57.6475"/>
      <point x="260.564" y="21.7969" type="curve" smooth="no"/>
      <point x="246.361" y="-2.39062" type="line" smooth="no"/>
      <point x="196.54" y="26.9873"/>
      <point x="139.012" y="14.7002"/>
      <point x="94.9131" y="0" type="curve" smooth="yes"/>
      <point x="72.8604" y="-7.35254"/>
      <point x="55.3799" y="-15.1396"/>
      <point x="41.3301" y="-18.2812" type="curve" smooth="yes"/>
      <point x="37.8193" y="-19.0674"/>
      <point x="34.54" y="-19.7227"/>
      <point x="30.3613" y="-19.4062" type="curve" smooth="yes"/>
      <point x="26.1865" y="-19.0947"/>
      <point x="19.8799" y="-17.1689"/>
      <point x="16.0176" y="-11.8125" type="curve" smooth="yes"/>
      <point x="12.1592" y="-6.45605"/>
      <point x="12.208" y="-0.557617"/>
      <point x="12.9238" y="3.65625" type="curve" smooth="yes"/>
      <point x="13.6445" y="7.87012"/>
      <point x="15.0908" y="11.4785"/>
      <point x="17.002" y="15.6094" type="curve" smooth="yes"/>
      <point x="234.413" y="484.312" type="line" smooth="no"/>
      <point x="203.611" y="475.014" type="line" smooth="yes"/>
      <point x="162.579" y="462.076"/>
      <point x="101.948" y="447.042"/>
      <point x="42.7363" y="473.155" type="curve" smooth="no"/>
      <point x="54.127" y="499.078" type="line" smooth="no"/>
      <point x="103.152" y="477.462"/>
      <point x="155.979" y="489.393"/>
      <point x="195.174" y="501.75" type="curve" smooth="yes"/>
      <point x="214.773" y="507.929"/>
      <point x="229.534" y="514.208"/>
      <point x="242.851" y="515.953" type="curve" smooth="yes"/>
      <point x="244.511" y="516.173"/>
      <point x="246.233" y="516.375"/>
    </contour>
  </outline>
</glyph>
<glyph name="braceleft" format="1">
  <advance width="533"/>
  <unicode hex="007b"/>
  <outline>
    <contour>
      <point x="271.102" y="499.922" type="line" smooth="no"/>
      <point x="271.102" y="73.125" type="line" smooth="no"/>
      <point x="469.242" y="504.562" type="line" smooth="no"/>
      <point x="492.438" y="493.856" type="line" smooth="no"/>
      <point x="492.438" y="499.781" type="line" smooth="no"/>
      <point x="520.656" y="499.781" type="line" smooth="no"/>
      <point x="520.656" y="0" type="line" smooth="no"/>
      <point x="492.531" y="0" type="line" smooth="no"/>
      <point x="492.531" y="150.047" type="line" smooth="no"/>
      <point x="337.316" y="150.047" type="line" smooth="no"/>
      <point x="266.836" y="1" type="line" smooth="no"/>
      <point x="242.977" y="1" type="line" smooth="no"/>
      <point x="242.977" y="470.953" type="line" smooth="no"/>
      <point x="167.703" y="470.953" type="line" smooth="no"/>
      <point x="41.4434" y="0" type="line" smooth="no"/>
      <point x="12.3438" y="0" type="line" smooth="no"/>
      <point x="138.594" y="470.953" type="line" smooth="no"/>
      <point x="53.7969" y="470.953" type="line" smooth="no"/>
      <point x="53.7969" y="499.078" type="line" smooth="no"/>
    </contour>
    <contour>
      <point x="350.359" y="178.172" type="line" smooth="yes"/>
      <point x="492.531" y="178.172" type="line" smooth="no"/>
      <point x="492.441" y="487.539" type="line" smooth="no"/>
      <point x="349.783" y="177.171" type="line" smooth="yes"/>
    </contour>
  </outline>
</glyph>
<glyph name="bar" format="1">
  <advance width="556"/>
  <unicode hex="007c"/>
  <outline>
    <contour>
      <point x="543.337" y="471.141" type="line" smooth="no"/>
      <point x="487.725" y="457.052"/>
      <point x="441.705" y="412.188"/>
      <point x="408.478" y="354.422" type="curve" smooth="yes"/>
      <point x="375.25" y="296.66"/>
      <point x="355.321" y="226.51"/>
      <point x="351.103" y="166.125" type="curve" smooth="yes"/>
      <point x="346.884" y="105.744"/>
      <point x="359.844" y="56.499"/>
      <point x="382.743" y="38.1562" type="curve" smooth="yes"/>
      <point x="394.191" y="28.9893"/>
      <point x="407.945" y="25.4648"/>
      <point x="428.728" y="30.4219" type="curve" smooth="yes"/>
      <point x="449.51" y="35.3828"/>
      <point x="476.654" y="49.9023"/>
      <point x="509.306" y="77.5312" type="curve" smooth="no"/>
      <point x="527.446" y="56.0156" type="line" smooth="no"/>
      <point x="492.689" y="26.6074"/>
      <point x="462.42" y="9.5"/>
      <point x="435.196" y="3" type="curve" smooth="yes"/>
      <point x="407.973" y="-3.49512"/>
      <point x="383.293" y="1.70312"/>
      <point x="365.165" y="16.2188" type="curve" smooth="yes"/>
      <point x="328.914" y="45.2578"/>
      <point x="318.583" y="103.146"/>
      <point x="323.118" y="168.094" type="curve" smooth="yes"/>
      <point x="327.653" y="233.045"/>
      <point x="348.475" y="306.465"/>
      <point x="384.149" y="368.484" type="curve" smooth="yes"/>
      <point x="407.879" y="409.74"/>
      <point x="438.36" y="446.238"/>
      <point x="475.444" y="470.953" type="curve" smooth="no"/>
      <point x="348.023" y="470.953" type="line" smooth="no"/>
      <point x="221.765" y="0" type="line" smooth="no"/>
      <point x="192.663" y="0" type="line" smooth="no"/>
      <point x="318.915" y="470.953" type="line" smooth="no"/>
      <point x="168.023" y="470.953" type="line" smooth="no"/>
      <point x="41.7637" y="0" type="line" smooth="no"/>
      <point x="12.6631" y="0" type="line" smooth="no"/>
      <point x="138.914" y="470.953" type="line" smooth="no"/>
      <point x="54.1172" y="470.953" type="line" smooth="no"/>
      <point x="54.1172" y="479.186"/>
      <point x="54.1172" y="502.435"/>
      <point x="54.1172" y="499.078" type="curve" smooth="no"/>
      <point x="537.242" y="499.078" type="line" smooth="no"/>
    </contour>
  </outline>
</glyph>
<glyph name="braceright" format="1">
  <advance width="574"/>
  <unicode hex="007d"/>
  <outline>
    <contour>
      <point x="192.514" y="0" type="line" smooth="no"/>
      <point x="248.018" y="207.016" type="line" smooth="no"/>
      <point x="97.127" y="207.016" type="line" smooth="no"/>
      <point x="41.75" y="0" type="line" smooth="no"/>
      <point x="12.5137" y="0" type="line" smooth="no"/>
      <point x="147.471" y="503.172" type="line" smooth="no"/>
      <point x="174.611" y="496" type="line" smooth="no"/>
      <point x="104.721" y="235.141" type="line" smooth="no"/>
      <point x="255.611" y="235.141" type="line" smooth="no"/>
      <point x="327.465" y="503.172" type="line" smooth="no"/>
      <point x="344.361" y="498.708" type="line" smooth="no"/>
      <point x="344.361" y="499.078" type="line" smooth="no"/>
      <point x="561.486" y="499.078" type="line" smooth="no"/>
      <point x="561.486" y="470.953" type="line" smooth="no"/>
      <point x="458.268" y="470.953" type="line" smooth="no"/>
      <point x="332.008" y="0" type="line" smooth="no"/>
      <point x="302.906" y="0" type="line" smooth="no"/>
      <point x="429.158" y="470.953" type="line" smooth="no"/>
      <point x="347.902" y="470.953" type="line" smooth="no"/>
      <point x="221.754" y="0" type="line" smooth="no"/>
    </contour>
  </outline>
</glyph>
<glyph name="asciitilde" format="1">
  <advance width="386"/>
  <unicode hex="007e"/>
  <outline>
    <contour>
      <point x="111.789" y="316.403" type="curve" smooth="yes"/>
      <point x="122.107" y="316.293"/>
      <point x="131.788" y="312.277"/>
      <point x="139.492" y="306.7" type="curve" smooth="yes"/>
      <point x="149.771" y="299.26"/>
      <point x="158.16" y="289.346"/>
      <point x="167.055" y="278.997" type="curve" smooth="yes"/>
      <point x="184.849" y="258.295"/>
      <point x="204.087" y="235.729"/>
      <point x="233.008" y="224.294" type="curve" smooth="yes"/>
      <point x="261.929" y="212.859"/>
      <point x="301.884" y="211.379"/>
      <point x="364.352" y="238.356" type="curve" smooth="no"/>
      <point x="375.461" y="212.481" type="line" smooth="no"/>
      <point x="308.497" y="183.561"/>
      <point x="259.384" y="183.648"/>
      <point x="222.742" y="198.138" type="curve" smooth="yes"/>
      <point x="186.104" y="212.627"/>
      <point x="163.288" y="240.229"/>
      <point x="145.68" y="260.716" type="curve" smooth="yes"/>
      <point x="136.878" y="270.959"/>
      <point x="129.244" y="279.428"/>
      <point x="123.039" y="283.919" type="curve" smooth="yes"/>
      <point x="116.834" y="288.41"/>
      <point x="113.828" y="289.258"/>
      <point x="108.414" y="287.856" type="curve" smooth="yes"/>
      <point x="97.5947" y="285.049"/>
      <point x="72.3389" y="262.258"/>
      <point x="34.7266" y="199.122" type="curve" smooth="no"/>
      <point x="10.5391" y="213.466" type="line" smooth="no"/>
      <point x="49.1455" y="278.271"/>
      <point x="73.1172" y="307.843"/>
      <point x="101.242" y="315.138" type="curve" smooth="yes"/>
      <point x="104.758" y="316.047"/>
      <point x="108.353" y="316.438"/>
    </contour>
  </outline>
</glyph>
<glyph name="sterling" format="1">
  <advance width="636"/>
  <unicode hex="00a3"/>
  <outline>
    <contour>
      <point x="190.109" y="499.016" type="curve" smooth="yes"/>
      <point x="206.5" y="499.916"/>
      <point x="221.258" y="498.748"/>
      <point x="234.688" y="495.5" type="curve" smooth="yes"/>
      <point x="242.775" y="493.547"/>
      <point x="250.32" y="490.811"/>
      <point x="257.281" y="487.381" type="curve" smooth="no"/>
      <point x="257.281" y="499.078" type="line" smooth="no"/>
      <point x="617.406" y="499.078" type="line" smooth="no"/>
      <point x="623.5" y="471.141" type="line" smooth="no"/>
      <point x="567.889" y="457.052"/>
      <point x="521.869" y="412.188"/>
      <point x="488.641" y="354.422" type="curve" smooth="yes"/>
      <point x="455.414" y="296.66"/>
      <point x="435.484" y="226.51"/>
      <point x="431.266" y="166.125" type="curve" smooth="yes"/>
      <point x="427.047" y="105.744"/>
      <point x="440.008" y="56.499"/>
      <point x="462.906" y="38.1562" type="curve" smooth="yes"/>
      <point x="474.355" y="28.9893"/>
      <point x="488.109" y="25.4648"/>
      <point x="508.891" y="30.4219" type="curve" smooth="yes"/>
      <point x="529.674" y="35.3828"/>
      <point x="556.818" y="49.9023"/>
      <point x="589.469" y="77.5312" type="curve" smooth="no"/>
      <point x="607.609" y="56.0156" type="line" smooth="no"/>
      <point x="572.854" y="26.6074"/>
      <point x="542.584" y="9.5"/>
      <point x="515.359" y="3" type="curve" smooth="yes"/>
      <point x="488.137" y="-3.49512"/>
      <point x="463.457" y="1.70312"/>
      <point x="445.328" y="16.2188" type="curve" smooth="yes"/>
      <point x="409.078" y="45.2578"/>
      <point x="398.746" y="103.146"/>
      <point x="403.281" y="168.094" type="curve" smooth="yes"/>
      <point x="407.816" y="233.045"/>
      <point x="428.639" y="306.465"/>
      <point x="464.312" y="368.484" type="curve" smooth="yes"/>
      <point x="488.043" y="409.74"/>
      <point x="518.525" y="446.238"/>
      <point x="555.607" y="470.953" type="curve" smooth="no"/>
      <point x="428.188" y="470.953" type="line" smooth="no"/>
      <point x="301.928" y="0" type="line" smooth="no"/>
      <point x="272.826" y="0" type="line" smooth="no"/>
      <point x="399.078" y="470.953" type="line" smooth="no"/>
      <point x="281.117" y="470.953" type="line" smooth="no"/>
      <point x="286.727" y="465.705"/>
      <point x="291.654" y="459.838"/>
      <point x="295.859" y="453.453" type="curve" smooth="yes"/>
      <point x="322.771" y="412.602"/>
      <point x="322.164" y="353.75"/>
      <point x="305.984" y="292.016" type="curve" smooth="yes"/>
      <point x="289.807" y="230.285"/>
      <point x="257.217" y="164.891"/>
      <point x="214.438" y="110.609" type="curve" smooth="yes"/>
      <point x="171.656" y="56.332"/>
      <point x="118.627" y="12.8662"/>
      <point x="59.8906" y="-2.875" type="curve" smooth="no"/>
      <point x="52.5781" y="24.2656" type="line" smooth="no"/>
      <point x="102.715" y="37.7041"/>
      <point x="152.105" y="76.9736"/>
      <point x="192.359" y="128.047" type="curve" smooth="yes"/>
      <point x="232.613" y="179.125"/>
      <point x="263.646" y="241.746"/>
      <point x="278.703" y="299.188" type="curve" smooth="yes"/>
      <point x="293.758" y="356.633"/>
      <point x="291.992" y="408.207"/>
      <point x="272.375" y="437.984" type="curve" smooth="yes"/>
      <point x="262.566" y="452.877"/>
      <point x="248.789" y="463.077"/>
      <point x="228.078" y="468.078" type="curve" smooth="yes"/>
      <point x="208.957" y="472.697"/>
      <point x="183.398" y="472.09"/>
      <point x="151.297" y="464.422" type="curve" smooth="no"/>
      <point x="39.7812" y="7.39062" type="line" smooth="no"/>
      <point x="12.5" y="14" type="line" smooth="no"/>
      <point x="128.094" y="487.766" type="line" smooth="no"/>
      <point x="136.109" y="489.875" type="line" smooth="yes"/>
      <point x="155.668" y="495.117"/>
      <point x="173.717" y="498.119"/>
    </contour>
  </outline>
</glyph>
<glyph name="section" format="1">
  <advance width="306"/>
  <unicode hex="00a7"/>
  <outline>
    <contour>
      <point x="293.695" y="572.594" type="curve" smooth="no"/>
      <point x="293.695" y="544.469" type="line" smooth="no"/>
      <point x="222.869" y="544.469"/>
      <point x="187.734" y="530.217"/>
      <point x="173.461" y="512.406" type="curve" smooth="yes"/>
      <point x="159.188" y="494.596"/>
      <point x="160.291" y="468.074"/>
      <point x="172.055" y="432.953" type="curve" smooth="yes"/>
      <point x="191.874" y="373.781"/>
      <point x="240.578" y="299.012"/>
      <point x="263.039" y="232" type="curve" smooth="yes"/>
      <point x="274.271" y="198.492"/>
      <point x="279.378" y="165.748"/>
      <point x="267.68" y="136.938" type="curve" smooth="yes"/>
      <point x="257.317" y="111.414"/>
      <point x="233.631" y="91.9199"/>
      <point x="196.102" y="80.5469" type="curve" smooth="no"/>
      <point x="199.011" y="62.6348"/>
      <point x="198.888" y="45.334"/>
      <point x="194.133" y="28.9375" type="curve" smooth="yes"/>
      <point x="187.115" y="4.74609"/>
      <point x="168.645" y="-15.6758"/>
      <point x="139.008" y="-28.5781" type="curve" smooth="yes"/>
      <point x="109.371" y="-41.4805"/>
      <point x="68.625" y="-48.125"/>
      <point x="12.3047" y="-48.125" type="curve" smooth="no"/>
      <point x="12.3047" y="-20" type="line" smooth="no"/>
      <point x="66.375" y="-20"/>
      <point x="103.883" y="-13.2988"/>
      <point x="127.898" y="-2.84375" type="curve" smooth="yes"/>
      <point x="151.914" y="7.61133"/>
      <point x="162.408" y="20.5312"/>
      <point x="167.133" y="36.8125" type="curve" smooth="yes"/>
      <point x="176.576" y="69.3711"/>
      <point x="156.811" y="122.098"/>
      <point x="129.445" y="177.578" type="curve" smooth="yes"/>
      <point x="102.08" y="233.059"/>
      <point x="68.7969" y="290.579"/>
      <point x="60.3984" y="341.547" type="curve" smooth="yes"/>
      <point x="56.2012" y="367.031"/>
      <point x="58.7021" y="392.211"/>
      <point x="73.8984" y="412.281" type="curve" smooth="yes"/>
      <point x="87.0908" y="429.705"/>
      <point x="108.431" y="441.904"/>
      <point x="138.586" y="448.984" type="curve" smooth="no"/>
      <point x="132.1" y="478.902"/>
      <point x="133.439" y="507.423"/>
      <point x="151.523" y="529.984" type="curve" smooth="yes"/>
      <point x="174.577" y="558.756"/>
      <point x="219.243" y="572.594"/>
    </contour>
    <contour>
      <point x="146.32" y="421.844" type="curve" smooth="no"/>
      <point x="119.742" y="415.801"/>
      <point x="104.498" y="406.146"/>
      <point x="96.2578" y="395.266" type="curve" smooth="yes"/>
      <point x="86.9062" y="382.912"/>
      <point x="84.6387" y="367.079"/>
      <point x="88.1016" y="346.047" type="curve" smooth="yes"/>
      <point x="95.0312" y="303.982"/>
      <point x="126.76" y="246.568"/>
      <point x="154.617" y="190.094" type="curve" smooth="yes"/>
      <point x="168.279" y="162.395"/>
      <point x="181.301" y="134.67"/>
      <point x="189.492" y="107.969" type="curve" smooth="no"/>
      <point x="220.368" y="117.399"/>
      <point x="234.993" y="131.189"/>
      <point x="241.664" y="147.625" type="curve" smooth="yes"/>
      <point x="249.324" y="166.5"/>
      <point x="246.564" y="192.432"/>
      <point x="236.32" y="223" type="curve" smooth="yes"/>
      <point x="216.066" y="283.438"/>
      <point x="168.513" y="357.147"/>
    </contour>
  </outline>
</glyph>
<glyph name="dieresis" format="1">
  <advance width="187"/>
  <unicode hex="00a8"/>
  <outline>
    <contour>
      <point x="140.497" y="578.51" type="curve" smooth="yes"/>
      <point x="124.265" y="578.51"/>
      <point x="111.397" y="565.639"/>
      <point x="111.397" y="549.405" type="curve" smooth="yes"/>
      <point x="111.397" y="533.172"/>
      <point x="124.265" y="520.305"/>
      <point x="140.497" y="520.305" type="curve" smooth="yes"/>
      <point x="156.735" y="520.305"/>
      <point x="169.603" y="533.172"/>
      <point x="169.603" y="549.405" type="curve" smooth="yes"/>
      <point x="169.603" y="565.639"/>
      <point x="156.735" y="578.51"/>
    </contour>
    <contour>
      <point x="40.4971" y="578.51" type="curve" smooth="yes"/>
      <point x="24.2646" y="578.51"/>
      <point x="11.3975" y="565.639"/>
      <point x="11.3975" y="549.405" type="curve" smooth="yes"/>
      <point x="11.3975" y="533.172"/>
      <point x="24.2646" y="520.305"/>
      <point x="40.4971" y="520.305" type="curve" smooth="yes"/>
      <point x="56.7354" y="520.305"/>
      <point x="69.6025" y="533.172"/>
      <point x="69.6025" y="549.405" type="curve" smooth="yes"/>
      <point x="69.6025" y="565.639"/>
      <point x="56.7354" y="578.51"/>
    </contour>
  </outline>
</glyph>
<glyph name="guillemotleft" format="1">
  <advance width="355"/>
  <unicode hex="00ab"/>
  <outline>
    <contour>
      <point x="319.77" y="505.828" type="line" smooth="no"/>
      <point x="342.27" y="488.953" type="line" smooth="no"/>
      <point x="333.832" y="477.703" type="line" smooth="yes"/>
      <point x="181.957" y="279.141" type="line" smooth="yes"/>
      <point x="174.926" y="270.281" type="line" smooth="no"/>
      <point x="176.227" y="269.899"/>
      <point x="177.536" y="269.648"/>
      <point x="178.863" y="269.016" type="curve" smooth="yes"/>
      <point x="189.094" y="264.155"/>
      <point x="194.081" y="252.743"/>
      <point x="195.035" y="240.047" type="curve" smooth="yes"/>
      <point x="195.035" y="239.484" type="line" smooth="no"/>
      <point x="195.035" y="238.922" type="line" smooth="yes"/>
      <point x="195.035" y="159.574"/>
      <point x="210.183" y="104.269"/>
      <point x="224.988" y="68.9062" type="curve" smooth="yes"/>
      <point x="239.794" y="33.5479"/>
      <point x="253.395" y="19.125"/>
      <point x="253.395" y="19.125" type="curve" smooth="no"/>
      <point x="262.957" y="8.85938" type="line" smooth="no"/>
      <point x="242.285" y="-10.2656" type="line" smooth="no"/>
      <point x="232.723" y="0" type="line" smooth="no"/>
      <point x="232.723" y="0"/>
      <point x="215.192" y="19.2041"/>
      <point x="198.973" y="57.9375" type="curve" smooth="yes"/>
      <point x="182.823" y="96.5088"/>
      <point x="167.046" y="155.558"/>
      <point x="166.91" y="237.938" type="curve" smooth="yes"/>
      <point x="166.651" y="241.427"/>
      <point x="166.413" y="242.71"/>
      <point x="166.207" y="243.422" type="curve" smooth="no"/>
      <point x="166.765" y="243.105"/>
      <point x="163.254" y="242.016"/>
      <point x="163.254" y="242.016" type="curve" smooth="yes"/>
      <point x="159.522" y="240.403"/>
      <point x="154.61" y="237.31"/>
      <point x="150.738" y="234.562" type="curve" smooth="yes"/>
      <point x="145.535" y="230.906" type="line" smooth="yes"/>
      <point x="144.731" y="230.344"/>
      <point x="144.081" y="229.769"/>
      <point x="142.863" y="229.078" type="curve" smooth="yes"/>
      <point x="142.257" y="228.735"/>
      <point x="141.55" y="228.34"/>
      <point x="140.051" y="227.812" type="curve" smooth="yes"/>
      <point x="138.552" y="227.29"/>
      <point x="135.832" y="225.202"/>
      <point x="129.223" y="228.234" type="curve" smooth="yes"/>
      <point x="125.918" y="229.751"/>
      <point x="122.666" y="233.548"/>
      <point x="121.629" y="236.672" type="curve" smooth="yes"/>
      <point x="120.597" y="239.801"/>
      <point x="120.847" y="241.993"/>
      <point x="121.066" y="243.422" type="curve" smooth="yes"/>
      <point x="121.506" y="246.282"/>
      <point x="122.191" y="247.073"/>
      <point x="122.613" y="247.922" type="curve" smooth="yes"/>
      <point x="123.457" y="249.618"/>
      <point x="123.993" y="250.523"/>
      <point x="124.723" y="251.578" type="curve" smooth="yes"/>
      <point x="126.19" y="253.692"/>
      <point x="128.216" y="256.224"/>
      <point x="131.051" y="259.875" type="curve" smooth="yes"/>
      <point x="159.879" y="296.578" type="line" smooth="yes"/>
      <point x="311.332" y="494.578" type="line" smooth="yes"/>
    </contour>
    <contour>
      <point x="211.629" y="505.828" type="line" smooth="no"/>
      <point x="234.134" y="488.953" type="line" smooth="no"/>
      <point x="225.556" y="477.703" type="line" smooth="yes"/>
      <point x="73.8213" y="279.141" type="line" smooth="yes"/>
      <point x="66.79" y="270.281" type="line" smooth="no"/>
      <point x="68.0684" y="269.903"/>
      <point x="69.2764" y="269.64"/>
      <point x="70.5869" y="269.016" type="curve" smooth="yes"/>
      <point x="80.8125" y="264.155"/>
      <point x="85.8047" y="252.743"/>
      <point x="86.7588" y="240.047" type="curve" smooth="yes"/>
      <point x="86.8945" y="239.484" type="line" smooth="no"/>
      <point x="86.8945" y="238.922" type="line" smooth="yes"/>
      <point x="86.8945" y="159.574"/>
      <point x="101.901" y="104.269"/>
      <point x="116.707" y="68.9062" type="curve" smooth="yes"/>
      <point x="131.513" y="33.5479"/>
      <point x="145.113" y="19.125"/>
      <point x="145.113" y="19.125" type="curve" smooth="no"/>
      <point x="154.676" y="8.85938" type="line" smooth="no"/>
      <point x="134.004" y="-10.2656" type="line" smooth="no"/>
      <point x="124.441" y="0" type="line" smooth="no"/>
      <point x="124.441" y="0"/>
      <point x="107.052" y="19.2041"/>
      <point x="90.832" y="57.9375" type="curve" smooth="yes"/>
      <point x="74.6826" y="96.5088"/>
      <point x="58.9053" y="155.558"/>
      <point x="58.7695" y="237.938" type="curve" smooth="yes"/>
      <point x="58.5107" y="241.427"/>
      <point x="58.1318" y="242.71"/>
      <point x="57.9258" y="243.422" type="curve" smooth="no"/>
      <point x="58.3389" y="243.153"/>
      <point x="54.9727" y="242.016"/>
      <point x="54.9727" y="242.016" type="curve" smooth="yes"/>
      <point x="51.2412" y="240.403"/>
      <point x="46.4697" y="237.31"/>
      <point x="42.5977" y="234.562" type="curve" smooth="yes"/>
      <point x="37.3945" y="230.906" type="line" smooth="yes"/>
      <point x="36.5908" y="230.344"/>
      <point x="35.7998" y="229.769"/>
      <point x="34.582" y="229.078" type="curve" smooth="yes"/>
      <point x="33.9756" y="228.735"/>
      <point x="33.4092" y="228.34"/>
      <point x="31.9102" y="227.812" type="curve" smooth="yes"/>
      <point x="30.4111" y="227.29"/>
      <point x="27.6914" y="225.202"/>
      <point x="21.082" y="228.234" type="curve" smooth="yes"/>
      <point x="17.7773" y="229.751"/>
      <point x="14.5254" y="233.548"/>
      <point x="13.4883" y="236.672" type="curve" smooth="yes"/>
      <point x="12.4561" y="239.801"/>
      <point x="12.7061" y="241.993"/>
      <point x="12.9258" y="243.422" type="curve" smooth="yes"/>
      <point x="13.3652" y="246.282"/>
      <point x="14.0508" y="247.073"/>
      <point x="14.4727" y="247.922" type="curve" smooth="yes"/>
      <point x="15.3164" y="249.618"/>
      <point x="15.8525" y="250.523"/>
      <point x="16.582" y="251.578" type="curve" smooth="yes"/>
      <point x="18.0498" y="253.692"/>
      <point x="19.9346" y="256.224"/>
      <point x="22.7695" y="259.875" type="curve" smooth="yes"/>
      <point x="51.5977" y="296.578" type="line" smooth="yes"/>
      <point x="203.191" y="494.578" type="line" smooth="yes"/>
    </contour>
  </outline>
</glyph>
<glyph name="registered" format="1">
  <advance width="608"/>
  <unicode hex="00ae"/>
  <outline>
    <contour>
      <point x="595.41" y="498.078" type="line" smooth="no"/>
      <point x="595.41" y="469.953" type="line" smooth="no"/>
      <point x="458.438" y="469.953" type="line" smooth="no"/>
      <point x="395.02" y="233.141" type="line" smooth="no"/>
      <point x="490.785" y="233.141" type="line" smooth="no"/>
      <point x="490.785" y="205.016" type="line" smooth="no"/>
      <point x="387.426" y="205.016" type="line" smooth="no"/>
      <point x="332.546" y="0" type="line" smooth="no"/>
      <point x="303.35" y="0" type="line" smooth="no"/>
      <point x="429.651" y="470.953" type="line" smooth="no"/>
      <point x="355.316" y="470.953" type="line" smooth="no"/>
      <point x="229.058" y="0" type="line" smooth="no"/>
      <point x="199.956" y="0" type="line" smooth="no"/>
      <point x="326.208" y="470.953" type="line" smooth="no"/>
      <point x="254.431" y="470.953" type="line" smooth="no"/>
      <point x="37.4492" y="0" type="line" smooth="no"/>
      <point x="12.5898" y="0" type="line" smooth="no"/>
      <point x="12.5898" y="499.922" type="line" smooth="no"/>
      <point x="40.7148" y="499.922" type="line" smooth="no"/>
      <point x="40.7148" y="73.125" type="line" smooth="no"/>
      <point x="238.855" y="504.562" type="line" smooth="no"/>
      <point x="250.738" y="499.078" type="line" smooth="no"/>
    </contour>
  </outline>
</glyph>
<glyph name="uni00B2" format="1">
  <advance width="226"/>
  <unicode hex="00b2"/>
  <outline>
    <contour>
      <point x="12.501" y="233.656" type="line" smooth="no"/>
      <point x="34.0166" y="257.141" type="line" smooth="no"/>
      <point x="34.0166" y="257.141"/>
      <point x="87.9111" y="316.511"/>
      <point x="131.61" y="375.266" type="curve" smooth="yes"/>
      <point x="153.46" y="404.643"/>
      <point x="172.664" y="434.148"/>
      <point x="180.829" y="454.016" type="curve" smooth="yes"/>
      <point x="184.613" y="463.218"/>
      <point x="185.145" y="469.801"/>
      <point x="185.048" y="471.453" type="curve" smooth="yes"/>
      <point x="184.767" y="471.555"/>
      <point x="184.459" y="471.875"/>
      <point x="181.954" y="471.875" type="curve" smooth="yes"/>
      <point x="110.71" y="471.875"/>
      <point x="84.6416" y="412.25"/>
      <point x="84.6416" y="412.25" type="curve" smooth="no"/>
      <point x="59.0479" y="423.922" type="line" smooth="no"/>
      <point x="59.0479" y="423.922"/>
      <point x="94.6523" y="500"/>
      <point x="181.954" y="500" type="curve" smooth="yes"/>
      <point x="188.669" y="500"/>
      <point x="195.169" y="498.857"/>
      <point x="200.938" y="495.219" type="curve" smooth="yes"/>
      <point x="206.709" y="491.58"/>
      <point x="210.778" y="485.283"/>
      <point x="212.329" y="479.188" type="curve" smooth="yes"/>
      <point x="215.432" y="466.997"/>
      <point x="211.942" y="455.729"/>
      <point x="206.845" y="443.328" type="curve" smooth="yes"/>
      <point x="196.649" y="418.525"/>
      <point x="176.558" y="388.572"/>
      <point x="154.11" y="358.391" type="curve" smooth="yes"/>
      <point x="123.313" y="316.98"/>
      <point x="94.499" y="283.547"/>
      <point x="75.3604" y="261.781" type="curve" smooth="no"/>
      <point x="195.173" y="261.781" type="line" smooth="no"/>
      <point x="195.173" y="233.656" type="line" smooth="no"/>
    </contour>
  </outline>
</glyph>
<glyph name="uni00B3" format="1">
  <advance width="210"/>
  <unicode hex="00b3"/>
  <outline>
    <contour>
      <point x="165.965" y="500" type="curve" smooth="yes"/>
      <point x="173.312" y="500"/>
      <point x="180.445" y="498.555"/>
      <point x="186.496" y="494.094" type="curve" smooth="yes"/>
      <point x="192.543" y="489.629"/>
      <point x="196.115" y="482.431"/>
      <point x="197.043" y="475.812" type="curve" smooth="yes"/>
      <point x="198.889" y="462.576"/>
      <point x="194.328" y="450.312"/>
      <point x="187.762" y="436.297" type="curve" smooth="yes"/>
      <point x="175.348" y="409.794"/>
      <point x="152.979" y="377.735"/>
      <point x="129.262" y="346.719" type="curve" smooth="no"/>
      <point x="146.932" y="321.441"/>
      <point x="161.746" y="297.391"/>
      <point x="168.777" y="276.969" type="curve" smooth="yes"/>
      <point x="172.549" y="266.014"/>
      <point x="175.018" y="255.638"/>
      <point x="170.746" y="244.625" type="curve" smooth="yes"/>
      <point x="168.605" y="239.119"/>
      <point x="164.062" y="233.907"/>
      <point x="158.652" y="230.984" type="curve" smooth="yes"/>
      <point x="153.238" y="228.062"/>
      <point x="147.318" y="227.047"/>
      <point x="141.215" y="227.047" type="curve" smooth="yes"/>
      <point x="53.9092" y="227.047"/>
      <point x="18.4502" y="303.266"/>
      <point x="18.4502" y="303.266" type="curve" smooth="no"/>
      <point x="12.5439" y="316.062" type="line" smooth="no"/>
      <point x="38.2783" y="327.594" type="line" smooth="no"/>
      <point x="44.0439" y="314.797" type="line" smooth="no"/>
      <point x="44.0439" y="314.797"/>
      <point x="69.9668" y="255.172"/>
      <point x="141.215" y="255.172" type="curve" smooth="yes"/>
      <point x="143.416" y="255.172"/>
      <point x="143.865" y="255.449"/>
      <point x="144.309" y="255.594" type="curve" smooth="yes"/>
      <point x="144.322" y="256.117"/>
      <point x="144.793" y="260.292"/>
      <point x="142.199" y="267.828" type="curve" smooth="yes"/>
      <point x="136.654" y="283.935"/>
      <point x="121.277" y="309.515"/>
      <point x="102.544" y="335.891" type="curve" smooth="yes"/>
      <point x="94.3877" y="347.281" type="line" smooth="no"/>
      <point x="94.3877" y="347.562" type="line" smooth="no"/>
      <point x="102.966" y="358.672" type="line" smooth="yes"/>
      <point x="127.645" y="390.62"/>
      <point x="151.16" y="424.454"/>
      <point x="162.309" y="448.25" type="curve" smooth="yes"/>
      <point x="167.789" y="459.948"/>
      <point x="169.428" y="469.221"/>
      <point x="169.199" y="471.594" type="curve" smooth="yes"/>
      <point x="169.129" y="471.607"/>
      <point x="168.83" y="471.875"/>
      <point x="165.965" y="471.875" type="curve" smooth="yes"/>
      <point x="94.7168" y="471.875"/>
      <point x="68.6533" y="412.25"/>
      <point x="68.6533" y="412.25" type="curve" smooth="no"/>
      <point x="62.8877" y="399.453" type="line" smooth="no"/>
      <point x="37.2939" y="411.125" type="line" smooth="no"/>
      <point x="43.0596" y="423.922" type="line" smooth="no"/>
      <point x="43.0596" y="423.922"/>
      <point x="78.6592" y="500"/>
    </contour>
  </outline>
</glyph>
<glyph name="acute" format="1">
  <advance width="189"/>
  <unicode hex="00b4"/>
  <unicode hex="0301"/>
  <unicode hex="02ca"/>
  <unicode hex="02ca"/>
  <unicode hex="0301"/>
  <unicode hex="02ca"/>
  <unicode hex="0301"/>
  <outline>
    <contour>
      <point x="161.297" y="500" type="line" smooth="no"/>
      <point x="175.359" y="475.672" type="line" smooth="no"/>
      <point x="27.7031" y="390.453" type="line" smooth="no"/>
      <point x="13.6406" y="414.781" type="line" smooth="no"/>
    </contour>
  </outline>
</glyph>
<glyph name="uni00B5" format="1">
  <advance width="709"/>
  <unicode hex="00b5"/>
  <outline>
    <contour>
      <point x="120.812" y="0" type="line" smooth="no"/>
      <point x="120.812" y="183.922" type="line" smooth="no"/>
      <point x="41.7402" y="0" type="line" smooth="no"/>
      <point x="12.5625" y="0" type="line" smooth="no"/>
      <point x="12.5625" y="498.922" type="line" smooth="no"/>
      <point x="40.6875" y="498.922" type="line" smooth="no"/>
      <point x="40.6875" y="72.4062" type="line" smooth="no"/>
      <point x="120.812" y="251.281" type="line" smooth="no"/>
      <point x="120.812" y="498.922" type="line" smooth="no"/>
      <point x="146.438" y="498.922" type="line" smooth="no"/>
      <point x="146.438" y="312.453" type="line" smooth="no"/>
      <point x="238.688" y="503.562" type="line" smooth="no"/>
      <point x="264.281" y="491.75" type="line" smooth="no"/>
      <point x="146.438" y="245.234" type="line" smooth="no"/>
      <point x="146.438" y="72.4062" type="line" smooth="no"/>
      <point x="344.438" y="503.562" type="line" smooth="no"/>
      <point x="355.875" y="499.073" type="line" smooth="no"/>
      <point x="696.438" y="498.078" type="line" smooth="no"/>
      <point x="696.438" y="469.953" type="line" smooth="no"/>
      <point x="559.464" y="469.953" type="line" smooth="no"/>
      <point x="496.047" y="233.141" type="line" smooth="no"/>
      <point x="591.812" y="233.141" type="line" smooth="no"/>
      <point x="591.812" y="205.016" type="line" smooth="no"/>
      <point x="488.453" y="205.016" type="line" smooth="no"/>
      <point x="433.573" y="0" type="line" smooth="no"/>
      <point x="404.377" y="0" type="line" smooth="no"/>
      <point x="530.679" y="470.953" type="line" smooth="no"/>
      <point x="456.344" y="470.953" type="line" smooth="no"/>
      <point x="330.085" y="0" type="line" smooth="no"/>
      <point x="300.983" y="0" type="line" smooth="no"/>
      <point x="427.235" y="470.953" type="line" smooth="no"/>
      <point x="365" y="470.953" type="line" smooth="no"/>
      <point x="149.174" y="0" type="line" smooth="no"/>
    </contour>
  </outline>
</glyph>
<glyph name="paragraph" format="1">
  <advance width="355"/>
  <unicode hex="00b6"/>
  <outline>
    <contour>
      <point x="220.527" y="518.203" type="curve" smooth="yes"/>
      <point x="226.768" y="519.314"/>
      <point x="233.033" y="518.805"/>
      <point x="239.296" y="515.979" type="curve" smooth="yes"/>
      <point x="245.325" y="513.259"/>
      <point x="249.82" y="508.852"/>
      <point x="253.104" y="503.191" type="curve" smooth="no"/>
      <point x="262.986" y="512.591"/>
      <point x="272.571" y="520.316"/>
      <point x="281.932" y="525.85" type="curve" smooth="yes"/>
      <point x="286.941" y="528.815"/>
      <point x="291.973" y="531.285"/>
      <point x="297.189" y="532.832" type="curve" smooth="yes"/>
      <point x="302.406" y="534.379"/>
      <point x="307.877" y="535.025"/>
      <point x="313.551" y="534.15" type="curve" smooth="yes"/>
      <point x="324.901" y="532.401"/>
      <point x="334.367" y="522.765"/>
      <point x="338.309" y="511.462" type="curve" smooth="yes"/>
      <point x="342.256" y="500.159"/>
      <point x="343.1" y="486.501"/>
      <point x="341.754" y="468.725" type="curve" smooth="yes"/>
      <point x="336.375" y="397.626"/>
      <point x="294.386" y="258.306"/>
      <point x="188.996" y="5.0625" type="curve" smooth="no"/>
      <point x="162.963" y="15.8994" type="line" smooth="no"/>
      <point x="267.948" y="268.167"/>
      <point x="308.963" y="408.353"/>
      <point x="313.691" y="470.856" type="curve" smooth="yes"/>
      <point x="314.873" y="486.483"/>
      <point x="313.511" y="497.184"/>
      <point x="311.73" y="502.281" type="curve" smooth="yes"/>
      <point x="309.951" y="507.375"/>
      <point x="310.136" y="506.232"/>
      <point x="309.217" y="506.373" type="curve" smooth="yes"/>
      <point x="308.295" y="506.518"/>
      <point x="303.311" y="505.89"/>
      <point x="296.227" y="501.697" type="curve" smooth="yes"/>
      <point x="289.143" y="497.509"/>
      <point x="280.318" y="490.43"/>
      <point x="270.721" y="481.122" type="curve" smooth="no"/>
      <point x="256.426" y="495.672" type="line" smooth="yes"/>
      <point x="257.977" y="491.321"/>
      <point x="259.133" y="486.531"/>
      <point x="259.748" y="481.565" type="curve" smooth="yes"/>
      <point x="263.559" y="450.76"/>
      <point x="255.146" y="402.104"/>
      <point x="231.421" y="323.051" type="curve" smooth="yes"/>
      <point x="207.695" y="243.993"/>
      <point x="168.145" y="135.417"/>
      <point x="107.279" y="-10.8369" type="curve" smooth="no"/>
      <point x="81.2461" y="0" type="line" smooth="no"/>
      <point x="110.105" y="69.3457"/>
      <point x="133.516" y="128.878"/>
      <point x="153.295" y="181.92" type="curve" smooth="no"/>
      <point x="105.795" y="154.19"/>
      <point x="72.6289" y="142.356"/>
      <point x="46.9082" y="147.757" type="curve" smooth="yes"/>
      <point x="32.3662" y="150.807"/>
      <point x="20.8223" y="161.617"/>
      <point x="16.1895" y="174.586" type="curve" smooth="yes"/>
      <point x="11.5586" y="187.55"/>
      <point x="11.9404" y="201.929"/>
      <point x="14.6523" y="217.837" type="curve" smooth="yes"/>
      <point x="25.4883" y="281.461"/>
      <point x="77.2432" y="372.959"/>
      <point x="128.633" y="439.005" type="curve" smooth="yes"/>
      <point x="154.328" y="472.029"/>
      <point x="179.249" y="498.357"/>
      <point x="202.399" y="511.237" type="curve" smooth="yes"/>
      <point x="208.188" y="514.454"/>
      <point x="214.291" y="517.091"/>
    </contour>
  </outline>
</glyph>
<glyph name="cedilla" format="1">
  <advance width="92"/>
  <unicode hex="00b8"/>
  <outline>
    <contour>
      <point x="57.2852" y="18.2812" type="line" smooth="no"/>
      <point x="73.7422" y="-1.19141"/>
      <point x="80.6328" y="-24.2754"/>
      <point x="79.3633" y="-47.1094" type="curve" smooth="yes"/>
      <point x="78.0977" y="-69.9434"/>
      <point x="69.3223" y="-92.4473"/>
      <point x="56.1602" y="-114.188" type="curve" smooth="yes"/>
      <point x="29.8457" y="-157.662"/>
      <point x="-14.3984" y="-198.483"/>
      <point x="-60.418" y="-230.203" type="curve" smooth="no"/>
      <point x="-76.3086" y="-207.141" type="line" smooth="no"/>
      <point x="-32.7148" y="-177.091"/>
      <point x="9.07227" y="-137.764"/>
      <point x="32.1133" y="-99.7031" type="curve" smooth="yes"/>
      <point x="43.6367" y="-80.6699"/>
      <point x="50.3203" y="-62.1348"/>
      <point x="51.2383" y="-45.5615" type="curve" smooth="yes"/>
      <point x="52.1621" y="-28.9902"/>
      <point x="47.9023" y="-14.3613"/>
      <point x="35.7695" y="0" type="curve" smooth="no"/>
    </contour>
  </outline>
</glyph>
<glyph name="uni00B9" format="1">
  <advance width="163"/>
  <unicode hex="00b9"/>
  <outline>
    <contour>
      <point x="127.062" y="500" type="line" smooth="no"/>
      <point x="150.688" y="486.359" type="line" smooth="no"/>
      <point x="86.8438" y="248.141" type="line" smooth="no"/>
      <point x="59.7031" y="255.453" type="line" smooth="no"/>
      <point x="110.047" y="443.188" type="line" smooth="no"/>
      <point x="32.1406" y="365.281" type="line" smooth="no"/>
      <point x="12.3125" y="385.109" type="line" smooth="no"/>
    </contour>
  </outline>
</glyph>
